<?xml version="1.0" encoding="UTF-8" standalone="no"?> <!-- Created with Vectornator for iOS (http://vectornator.io/) --><!DOCTYPE svg PUBLIC "-//W3C//DTD SVG 1.1//EN" "http://www.w3.org/Graphics/SVG/1.1/DTD/svg11.dtd">
<svg height="100%" style="fill-rule:evenodd;clip-rule:evenodd;stroke-linecap:round;stroke-linejoin:round;" xmlns:xlink="http://www.w3.org/1999/xlink" xmlns="http://www.w3.org/2000/svg" xml:space="preserve" width="100%" xmlns:vectornator="http://vectornator.io" version="1.1" viewBox="0 0 543 550">
<metadata>
<vectornator:setting key="DimensionsVisible" value="1"/>
<vectornator:setting key="PencilOnly" value="0"/>
<vectornator:setting key="SnapToPoints" value="0"/>
<vectornator:setting key="OutlineMode" value="0"/>
<vectornator:setting key="CMYKEnabledKey" value="0"/>
<vectornator:setting key="RulersVisible" value="1"/>
<vectornator:setting key="SnapToEdges" value="0"/>
<vectornator:setting key="GuidesVisible" value="1"/>
<vectornator:setting key="DisplayWhiteBackground" value="0"/>
<vectornator:setting key="doHistoryDisabled" value="0"/>
<vectornator:setting key="SnapToGuides" value="1"/>
<vectornator:setting key="TimeLapseWatermarkDisabled" value="0"/>
<vectornator:setting key="Units" value="Pixels"/>
<vectornator:setting key="DynamicGuides" value="0"/>
<vectornator:setting key="IsolateActiveLayer" value="0"/>
<vectornator:setting key="SnapToGrid" value="0"/>
</metadata>
<defs/>
<g id="Layer 1" vectornator:layerName="Layer 1">
<path stroke="#2c6065" stroke-width="1" d="M246+386C258.194+373.806+262.7+355+283+355C283.5+353+283.5+353+284+351C280.31+351+278.584+352.195+275+351C282.297+349.176+284.74+345.935+293+348C293+344.241+307.398+331.602+312+327C318.319+339.638+289.277+360.861+277+367C277+365+277+363+277+361C275.5+361.5+275.5+361.5+274+362C274+369.046+271.903+373+265+373C269.943+368.057+269+370.886+269+365C258.956+370.022+256.929+383.036+247+388C246.5+387+246.5+387+246+386Z" fill="#2c6065" stroke-linecap="round" opacity="1" stroke-linejoin="round"/>
<path stroke="#7f6c2b" stroke-width="1" d="M305+263C290.93+263+279.524+244.631+265+241C265+236.015+242.357+232+239+232C239+228.5+239+228.5+239+225C234+225+234+225+229+225C252.219+222.42+262.602+233.1+286+237C291.764+237.961+296.623+249.325+305+251C303.514+256.946+309.116+260.928+310+268C305.763+268+306.281+266.843+305+263Z" fill="#ffef17" stroke-linecap="round" opacity="1" stroke-linejoin="round"/>
<path stroke="#534921" stroke-width="1" d="M276+275C276+273.496+260.995+253.995+256+249C259.258+249+269.421+260.211+275+263C275+262+275+262+275+261C274+261+274+261+273+261C273+259+273+259+273+257C270.5+257+270.5+257+268+257C268+252.3+268.196+254.981+267+249C287.59+246.059+288.574+263+305+263C306.288+266.864+306.051+267.684+310+269C310+272.726+308.792+273.375+310+277C308.5+277.5+308.5+277.5+307+278C311.333+280.167+308.31+281.62+310+285C305.277+286.181+307.229+285.385+304+287C304.5+288.5+304.5+288.5+305+290C300.255+290+301.596+288.807+300+292C302.5+292+302.5+292+305+292C305+293+305+293+305+294C300.3+294+302.981+293.804+297+295C295.32+291.641+292.357+288.678+289+287C287.529+289.943+287.764+288.293+289+292C285.757+290.919+283+290.831+283+295C291.19+296.17+288.693+294.039+292+299C291+300+291+300+290+301C293+301+293+301+296+301C296+308.675+276.844+301.275+273+301C273+300+273+300+273+299C262.225+299+264+299.641+264+289C265.5+289+265.5+289+267+289C267+285.274+268.208+284.625+267+281C272.989+280.335+278+281.802+278+275C277+275+277+275+276+275Z" fill="#e2bd26" stroke-linecap="round" opacity="1" stroke-linejoin="round"/>
<path stroke="#1f2f2b" stroke-width="1" d="M276+279C271.011+279.624+264.768+281.384+260+279C255.56+283.44+262.647+289.589+264+295C261+295.5+261+295.5+258+296C258.5+294.5+258.5+294.5+259+293C257+293+257+293+255+293C255+286.946+246+290.747+246+283C243.5+283+243.5+283+241+283C244.521+275.959+239.046+265.909+243+258C244.5+258.5+244.5+258.5+246+259C246+255.948+245.557+254+249+254C246.255+251.255+246.702+252.894+248+249C252.924+250.641+249.96+250.173+257+249C257+255.251+259.802+263.45+266+265C251.244+272.378+270.717+278.472+276+279Z" fill="#1f2f2b" stroke-linecap="round" opacity="1" stroke-linejoin="round"/>
<path stroke="#377c82" stroke-width="1" d="M383+253C377.807+259.924+365.847+259.541+363+251C359.948+251+358+251.443+358+248C356+248+356+248+354+248C354+246.5+354+246.5+354+245C353+245+353+245+352+245C352+244+352+244+352+243C350+243+350+243+348+243C348+242+348+242+348+241C346.5+241+346.5+241+345+241C345+236.808+346.619+230.809+347+227C356.743+227+355.692+253+383+253Z" fill="#377c82" stroke-linecap="round" opacity="1" stroke-linejoin="round"/>
<path stroke="#367b81" stroke-width="1" d="M251+173C262.441+173+270.816+164.447+276+180C277.5+180+277.5+180+279+180C279+183.745+279.894+182.553+277+184C278.5+184.5+278.5+184.5+280+185C281.615+181.771+280.277+183.181+285+182C285+186.461+288.085+186.217+292+187C287.41+188.148+284.259+191.482+282+196C270.584+190.292+273.956+176.493+259+174C258.5+175.5+258.5+175.5+258+177C260.5+177+260.5+177+263+177C259+177.5+259+177.5+255+178C255+173.509+255.894+175.447+251+173Z" fill="#367b81" stroke-linecap="round" opacity="1" stroke-linejoin="round"/>
<path stroke="#347378" stroke-width="1" d="M451+315C450+315.5+450+315.5+449+316C458.741+317.082+455.3+315.65+460+318C454+319+454+319+448+320C448+319+448+319+448+318C443.5+318+443.5+318+439+318C442+317.5+442+317.5+445+317C435.029+313.012+422.027+289+440+289C440+303.167+434.434+308.373+451+315Z" fill="#347378" stroke-linecap="round" opacity="1" stroke-linejoin="round"/>
<path stroke="#3d8d93" stroke-width="1" d="M426+292C427.5+291.5+427.5+291.5+429+291C422.039+287.52+423.834+281.278+432+284C432+282+432+282+432+280C422.226+276.742+419.21+268.681+418+259C419.5+258.5+419.5+258.5+421+258C422.408+263.634+428.526+269+434+269C434+272.875+434.788+284.788+439+289C433.721+291.639+432.456+292+426+292Z" fill="#3d8d93" stroke-linecap="round" opacity="1" stroke-linejoin="round"/>
<path stroke="#6c2637" stroke-width="1" d="M459+145C450.255+145+453.385+146.193+449+144C448.5+148.5+448.5+148.5+448+153C446.5+153+446.5+153+445+153C450.71+141.579+425.99+147.063+428+135C430.002+122.988+437.788+140.519+438+142C445.515+140.497+451.758+142.931+459+145Z" fill="#6c2637" stroke-linecap="round" opacity="1" stroke-linejoin="round"/>
<path stroke="#34797f" stroke-width="1" d="M199+409C203.076+409+205+407.134+205+403C208.708+403+206.588+401+211+401C211+404.324+207.84+406.24+206+409C208+409+208+409+210+409C208.553+411.894+209+410.255+209+414C208.5+412.5+208.5+412.5+208+411C200.503+414.749+192.834+444.337+186+417C191.461+418.82+199+416.593+199+409Z" fill="#34797f" stroke-linecap="round" opacity="1" stroke-linejoin="round"/>
<path stroke="#326f74" stroke-width="1" d="M230+391C230+392.5+230+392.5+230+394C228.5+394.5+228.5+394.5+227+395C227+393.5+227+393.5+227+392C223.946+392+225.632+392.211+222+391C229.561+389.488+244.837+377.245+249+371C252.802+378.604+241+381.149+241+386C244+386+244+386+247+386C247+394.578+235.866+391+230+391Z" fill="#326f74" stroke-linecap="round" opacity="1" stroke-linejoin="round"/>
<path stroke="#33757b" stroke-width="1" d="M431+262C431+260.5+431+260.5+431+259C430+259+430+259+429+259C429+247.761+421.682+236.046+418+225C407.736+225+423.202+260.44+431+262Z" fill="#33757b" stroke-linecap="round" opacity="1" stroke-linejoin="round"/>
<path stroke="#316e73" stroke-width="1" d="M216+163C217+163+217+163+218+163C218+169.43+221.631+170.947+225+176C211.394+176+204.027+164.041+198+155C200+154.5+200+154.5+202+154C205.798+161.595+207.169+164.792+216+167C216+165+216+165+216+163Z" fill="#316e73" stroke-linecap="round" opacity="1" stroke-linejoin="round"/>
<path stroke="#36797f" stroke-width="1" d="M238+223C235.15+214.45+235.922+205.766+233+197C238.412+198.804+249.958+218.916+253+225C247.656+223.219+243.808+221.548+238+223Z" fill="#36797f" stroke-linecap="round" opacity="1" stroke-linejoin="round"/>
<path stroke="#377e85" stroke-width="1" d="M237+398C230.479+399.63+225.425+398.877+224+406C218.057+406+220.179+404.821+217+408C217.5+409+217.5+409+218+410C215.744+412.256+213.046+414+210+414C207.167+405.501+232.095+388.191+237+398Z" fill="#377e85" stroke-linecap="round" opacity="1" stroke-linejoin="round"/>
<path stroke="#367b81" stroke-width="1" d="M512+260C512+259+512+259+512+258C508.925+259.537+510.62+258.587+507+261C505.255+257.509+506.745+259+501+259C505.498+256.751+514+244.34+514+238C511.205+238+510.446+239.777+508+241C508+236.609+510+236.633+510+233C517.751+233+518.082+243.571+519+250C514.698+252.151+511.369+252.631+508+256C514.735+257.123+513.093+255.186+515+259C513.5+259.5+513.5+259.5+512+260Z" fill="#367b81" stroke-linecap="round" opacity="1" stroke-linejoin="round"/>
<path stroke="#3a858b" stroke-width="1" d="M232+197C228.971+192.456+227.501+187.834+222+186C222+187.5+222+187.5+222+189C220+189.5+220+189.5+218+190C218+185.5+218+185.5+218+181C214.626+181+216.647+181.162+212+180C212+178.5+212+178.5+212+177C223.947+173.018+229.997+189.997+236+196C234+196.5+234+196.5+232+197Z" fill="#3a858b" stroke-linecap="round" opacity="1" stroke-linejoin="round"/>
<path stroke="#275256" stroke-width="1" d="M367+301C363.41+301+361+301.98+361+306C356.586+306+356.414+309+352+309C352.5+307.5+352.5+307.5+353+306C346.435+306+349.117+310.942+345+313C345+312+345+312+345+311C343.5+311+343.5+311+342+311C344.775+305.45+367+285.126+367+301Z" fill="#275256" stroke-linecap="round" opacity="1" stroke-linejoin="round"/>
<path stroke="#5b2431" stroke-width="1" d="M287+48C265.577+58.7115+240.701+43.0997+220+50C223.745+42.5105+277.436+45.6089+287+48Z" fill="#5b2431" stroke-linecap="round" opacity="1" stroke-linejoin="round"/>
<path stroke="#77293b" stroke-width="1" d="M437+110C437.5+114+437.5+114+438+118C446.374+118+442.736+117.434+449+119C446.658+123.683+448+120.255+448+130C446.5+130+446.5+130+445+130C446.133+123.201+413.301+106.614+437+110Z" fill="#77293b" stroke-linecap="round" opacity="1" stroke-linejoin="round"/>
<path stroke="#42989f" stroke-width="1" d="M334+233C334.5+225.5+334.5+225.5+335+218C332.69+218+326.123+212.249+323+211C321.57+213.86+318.354+216.646+316+219C322.707+221.236+320.114+221.943+324+220C324+221+324+221+324+222C327.5+222+327.5+222+331+222C324.265+223.123+325.907+221.186+324+225C326.665+227.665+328.36+229.787+332+231C332+232+332+232+332+233C333+233+333+233+334+233Z" fill="#42989f" stroke-linecap="round" opacity="1" stroke-linejoin="round"/>
<path stroke="#2f676c" stroke-width="1" d="M323+325C339.655+325+323.698+334+319+334C319+330.255+318.553+331.894+320+329C318+329+318+329+316+329C317.447+326.106+316.255+327+320+327C320+325.5+320+325.5+320+324C318.5+324+318.5+324+317+324C319.722+318.556+339+312.093+339+319C339+324.244+325.944+319.112+323+325Z" fill="#2f676c" stroke-linecap="round" opacity="1" stroke-linejoin="round"/>
<path stroke="#4c212c" stroke-width="1" d="M421+120C422.298+117.404+421.255+118+424+118C424+113.5+424+113.5+424+109C418.5+109+418.5+109+413+109C413.667+107.667+414.333+106.333+415+105C415+106+415+106+415+107C422.674+107+431.136+104.568+438+108C428.019+109.248+421.314+115.09+435+119C430.077+120.407+425.824+122.412+421+120Z" fill="#4c212c" stroke-linecap="round" opacity="1" stroke-linejoin="round"/>
<path stroke="#4a1b26" stroke-width="1" d="M426+421C426+415.929+429.779+412.044+435+411C436.687+419.433+443.44+417.92+451+419C443.361+420.273+444.436+419.821+443+427C442.5+425+442.5+425+442+423C436.025+423+432.777+419.306+426+421Z" fill="#4a1b26" stroke-linecap="round" opacity="1" stroke-linejoin="round"/>
<path stroke="#7e2b3e" stroke-width="1" d="M62+246C61.3333+244+60.6667+242+60+240C53.0572+240+55.4142+238.586+52+242C50.4037+238.807+51.7454+240+47+240C47+231.458+43.2849+230.619+53+229C53+232.629+54.6928+235.614+53+239C59.8486+239+60.9204+237.989+68+239C63.0765+240.641+65.1733+238.96+64+246C63+246+63+246+62+246Z" fill="#7e2b3e" stroke-linecap="round" opacity="1" stroke-linejoin="round"/>
<path stroke="#4c1f2a" stroke-width="1" d="M458+165C455.5+165+455.5+165+453+165C453+158.255+453.894+160.789+452+157C462.5+156.5+462.5+156.5+473+156C473+159.564+472.859+163.578+474+167C478+167+478+167+482+167C469.95+168.095+474.493+169.164+468+167C473.737+155.527+460.135+152.192+458+165Z" fill="#4c1f2a" stroke-linecap="round" opacity="1" stroke-linejoin="round"/>
<path stroke="#40949a" stroke-width="1" d="M318+212C320+212+320+212+322+212C316.396+217.604+310.439+214.146+304+212C306.342+207.317+304.255+210+314+210C314+208+314+208+314+206C308.333+206+302.667+206+297+206C297+195.294+316.695+201.557+318+212Z" fill="#40949a" stroke-linecap="round" opacity="1" stroke-linejoin="round"/>
<path stroke="#2f6a6f" stroke-width="1" d="M483+312C487.7+314.35+484.259+312.918+494+314C494+315+494+315+494+316C488.255+316+489.745+314.509+488+318C495.7+318+492.039+318.392+499+317C499+321.608+496.057+321.713+495+327C490.596+324.798+493.74+326.092+485+325C485+324+485+324+485+323C480.103+323+480.117+325.559+475+323C478.188+318.218+478.928+316.072+483+312Z" fill="#2f6a6f" stroke-linecap="round" opacity="1" stroke-linejoin="round"/>
<path stroke="#388187" stroke-width="1" d="M458+320C458+326.682+453+325.255+453+333C443.555+333+436.813+326.439+434+318C441.334+318+451.901+319.679+458+320Z" fill="#388187" stroke-linecap="round" opacity="1" stroke-linejoin="round"/>
<path stroke="#381e25" stroke-width="1" d="M148+446C147.5+450.5+147.5+450.5+147+455C149+455+149+455+151+455C143.681+456.464+141.14+458.035+133+456C133.5+451+133.5+451+134+446C132+445.5+132+445.5+130+445C132+444.5+132+444.5+134+444C132.5+443.5+132.5+443.5+131+443C133.5+442.5+133.5+442.5+136+442C136+443+136+443+136+444C137+444+137+444+138+444C131.609+453.586+150.511+459.532+145+443C146+442.5+146+442.5+147+442C147+443+147+443+147+444C150+444+150+444+153+444C150.293+446.707+151.943+446+148+446Z" fill="#381e25" stroke-linecap="round" opacity="1" stroke-linejoin="round"/>
<path stroke="#1b383b" stroke-width="1" d="M188+423C185.255+423+186.298+422.404+185+425C184.333+423.667+183.667+422.333+183+421C178.291+424.139+179.948+426.74+181+432C177.657+430.886+174.021+426.021+171+423C173.223+418.554+177.334+421.001+175+414C176+413.5+176+413.5+177+413C177+415.867+179.042+417.126+180+420C181+416+181+416+182+412C182.965+414.895+182.752+417+186+417C187.181+421.723+186.385+419.771+188+423Z" fill="#1b383b" stroke-linecap="round" opacity="1" stroke-linejoin="round"/>
<path stroke="#38161f" stroke-width="1" d="M284+62C284.5+64.5+284.5+64.5+285+67C281.933+60.8663+283.479+61.2465+276+60C277.671+56.6575+277.671+53.3425+276+50C279.5+50+279.5+50+283+50C275.641+61.0385+289.149+58.2594+296+61C288.027+62.3288+292.028+62+284+62Z" fill="#38161f" stroke-linecap="round" opacity="1" stroke-linejoin="round"/>
<path stroke="#2d666b" stroke-width="1" d="M237+214C233.255+214+234.894+213.553+232+215C229.662+207.985+224.374+200.747+221+194C226.533+194+235.123+210.246+237+214Z" fill="#2d666b" stroke-linecap="round" opacity="1" stroke-linejoin="round"/>
<path stroke="#388288" stroke-width="1" d="M476+296C476.965+298.895+476.753+301+480+301C480+306.067+476.372+310+471+310C471+308.5+471+308.5+471+307C466.53+309.235+450.662+304.892+458+300C462.725+296.85+468.186+301.861+476+296Z" fill="#388288" stroke-linecap="round" opacity="1" stroke-linejoin="round"/>
<path stroke="#7b293d" stroke-width="1" d="M61+193C61+196.831+62.2393+199.282+61+203C78.0277+203+71.068+202.178+82+204C59.6775+208.465+43.7883+193+61+193Z" fill="#7b293d" stroke-linecap="round" opacity="1" stroke-linejoin="round"/>
<path stroke="#9f354e" stroke-width="1" d="M442+133C437.798+133+439.555+132.168+437+136C436.234+133.702+404.984+121+429+121C429+125.357+428.906+122.34+430+130C432.5+129.5+432.5+129.5+435+129C436.943+132.886+435.293+130.764+442+133Z" fill="#9f354e" stroke-linecap="round" opacity="1" stroke-linejoin="round"/>
<path stroke="#56232f" stroke-width="1" d="M274+64C272.258+60.5163+270.372+61.6279+268+64C267.5+62.5+267.5+62.5+267+61C264+61+264+61+261+61C261+55.9533+262.257+53.514+260+49C264+49+264+49+268+49C260.743+59.886+274.463+59.9233+282+61C275.07+62.155+277.434+60.5663+274+64Z" fill="#56232f" stroke-linecap="round" opacity="1" stroke-linejoin="round"/>
<path stroke="#7a2a3d" stroke-width="1" d="M91+179C96.4081+181.95+68.5741+183.871+67+176C66.6615+174.308+65.1906+169.476+69+169C75.4093+168.199+81.8951+174.033+91+179Z" fill="#7a2a3d" stroke-linecap="round" opacity="1" stroke-linejoin="round"/>
<path stroke="#4b1f2a" stroke-width="1" d="M101+161C95.1699+152.255+78.66+164.458+99+167C91.0901+168.582+92.6999+170.486+84+168C84+165.26+84.0239+164+87+164C87+160.5+87+160.5+87+157C95.0695+154.31+88.948+156.066+106+155C100.351+156.412+102.27+154.652+101+161Z" fill="#4b1f2a" stroke-linecap="round" opacity="1" stroke-linejoin="round"/>
<path stroke="#4d242f" stroke-width="1" d="M130+118C132+118+132+118+134+118C134+113.5+134+113.5+134+109C130.255+109+131.894+108.553+129+110C132.293+103.414+143.636+108+151+108C146.878+108.824+124.737+113.912+140+119C134.683+120.772+134.968+121.726+130+118Z" fill="#4d242f" stroke-linecap="round" opacity="1" stroke-linejoin="round"/>
<path stroke="#816925" stroke-width="1" d="M295+304C295.5+302.5+295.5+302.5+296+301C293+301+293+301+290+301C291+300+291+300+292+299C289.771+294.541+291.723+297.181+283+295C283+290.831+285.757+290.919+289+292C287.529+289.057+287.764+290.707+289+287C293.529+289.265+295.051+295+300+295C300+297.745+299.702+296.404+301+299C298.823+301.177+298.212+304+295+304Z" fill="#816925" stroke-linecap="round" opacity="1" stroke-linejoin="round"/>
<path stroke="#398288" stroke-width="1" d="M245+152C243.301+154.549+241+155.24+241+158C242+158+242+158+243+158C239.781+164.438+232.606+162.422+231+156C227.3+156+229.654+155.869+224+157C224+140.07+237.819+150.564+245+152Z" fill="#398288" stroke-linecap="round" opacity="1" stroke-linejoin="round"/>
<path stroke="#58212e" stroke-width="1" d="M267+62C258.252+59.0839+250+62.0485+250+51C248.5+50.5+248.5+50.5+247+50C245.711+53.8658+247.035+55.8617+246+60C249.604+60.9011+251.37+60.74+253+64C255.707+61.2929+254.057+62+258+62C258+63+258+63+258+64C262.664+60.8906+259.798+62+267+62Z" fill="#58212e" stroke-linecap="round" opacity="1" stroke-linejoin="round"/>
<path stroke="#a93852" stroke-width="1" d="M404+96C399.663+97.0843+392.207+96.7934+390+99C388.392+95.7834+385.245+96.0815+382+95C382+91.4494+380.824+89.5277+382+86C389.653+86+394.079+86.7627+391+96C400.007+94.7133+395.675+94.6125+404+96Z" fill="#a93852" stroke-linecap="round" opacity="1" stroke-linejoin="round"/>
<path stroke="#6d5a22" stroke-width="1" d="M252+223C257+223+257+223+262+223C263.956+232.782+270.508+229.016+274+236C261.367+236+268.089+234.584+257+233C257+229.764+253.559+226.119+252+223Z" fill="#6d5a22" stroke-linecap="round" opacity="1" stroke-linejoin="round"/>
<path stroke="#51212d" stroke-width="1" d="M110+130C110+125.5+110+125.5+110+121C112.5+120.5+112.5+120.5+115+120C115+131.103+110.035+128.012+125+133C124.5+134+124.5+134+124+135C117.564+132.855+112.75+133.844+106+133C107.471+130.057+106.293+131.236+110+130Z" fill="#51212d" stroke-linecap="round" opacity="1" stroke-linejoin="round"/>
<path stroke="#9e344c" stroke-width="1" d="M407+95C414.635+96.527+410.313+96.2108+420+95C420+96+420+96+420+97C411.841+97+417.255+99.0509+407+97C380.673+91.7345+413.216+76.3505+407+95Z" fill="#9e344c" stroke-linecap="round" opacity="1" stroke-linejoin="round"/>
<path stroke="#26181c" stroke-width="1" d="M406+445C409.5+444.5+409.5+444.5+413+444C413+435.641+409.367+430.606+419+429C415.293+430.236+416.471+429.057+415+432C418.5+432+418.5+432+422+432C420.255+435.491+421.745+434+416+434C414.969+445.341+416.586+448.529+406+445Z" fill="#26181c" stroke-linecap="round" opacity="1" stroke-linejoin="round"/>
<path stroke="#421822" stroke-width="1" d="M313+62C302.094+62+291+65.2454+291+51C294.5+50.5+294.5+50.5+298+50C295.946+54.1082+296.895+51.262+298+59C303.51+59+308.898+57.8979+313+62Z" fill="#421822" stroke-linecap="round" opacity="1" stroke-linejoin="round"/>
<path stroke="#2e181e" stroke-width="1" d="M459+155C461.181+146.277+462.229+149.459+460+145C461+144.5+461+144.5+462+144C462+148.5+462+148.5+462+153C464.5+153+464.5+153+467+153C467+154+467+154+467+155C476.046+156.131+472.45+155.15+478+157C475.5+157.5+475.5+157.5+473+158C473+157+473+157+473+156C466+155.5+466+155.5+459+155Z" fill="#2e181e" stroke-linecap="round" opacity="1" stroke-linejoin="round"/>
<path stroke="#387e84" stroke-width="1" d="M511+258C513.149+264.447+509+266.709+509+272C504.379+272+501.869+276+498+276C496.702+272.106+496.255+273.745+499+271C498+271+498+271+497+271C501.759+266.241+504.832+261.084+511+258Z" fill="#387e84" stroke-linecap="round" opacity="1" stroke-linejoin="round"/>
<path stroke="#2a5e62" stroke-width="1" d="M211+152C209.5+152+209.5+152+208+152C208+150.5+208+150.5+208+149C189.302+149+194.402+150.394+198+136C199.134+136.756+207+146.523+207+148C208+148+208+148+209+148C209+151.745+208.106+150.553+211+152Z" fill="#2a5e62" stroke-linecap="round" opacity="1" stroke-linejoin="round"/>
<path stroke="#a13750" stroke-width="1" d="M153+107C134.318+108.168+142.303+108.663+129+107C129+92.6935+141.899+95.3034+138+107C144.825+107+145.288+106.036+153+107Z" fill="#a13750" stroke-linecap="round" opacity="1" stroke-linejoin="round"/>
<path stroke="#57202d" stroke-width="1" d="M237+63C235.093+59.1865+236.735+61.1225+230+60C230+56.3706+231.693+53.3857+230+50C232.5+50.5+232.5+50.5+235+51C235.5+54.5+235.5+54.5+236+58C246.689+59.1877+242.04+58.408+250+60C245.374+61.1564+240.635+60.5766+237+63Z" fill="#57202d" stroke-linecap="round" opacity="1" stroke-linejoin="round"/>
<path stroke="#7a2b3e" stroke-width="1" d="M83+192C77.0572+192+79.1785+190.821+76+194C70.8998+188.9+74.9319+192.143+61+190C58.1446+172.867+74.8321+189.666+83+192Z" fill="#7a2b3e" stroke-linecap="round" opacity="1" stroke-linejoin="round"/>
<path stroke="#341d23" stroke-width="1" d="M358+468C362+467.5+362+467.5+366+467C366+462.139+368+466.041+368+458C368.5+462+368.5+462+369+466C377.7+466+373.712+466.458+381+465C375.324+467.838+363.816+470.908+358+468Z" fill="#341d23" stroke-linecap="round" opacity="1" stroke-linejoin="round"/>
<path stroke="#903147" stroke-width="1" d="M453+142C461.7+142+457.712+141.542+465+143C459.565+144.812+458.42+145.284+452+144C426.507+138.901+458.881+124.357+453+142Z" fill="#903147" stroke-linecap="round" opacity="1" stroke-linejoin="round"/>
<path stroke="#782b3d" stroke-width="1" d="M157+84C162.259+81.3707+168.478+83.0797+174+84C174.5+83+174.5+83+175+82C179+83+179+83+183+84C183.5+83+183.5+83+184+82C184+83.5+184+83.5+184+85C186.5+85.5+186.5+85.5+189+86C187.52+90.4407+186.69+90+182+90C184.666+82.0033+168.365+86.273+162+85C161.5+86+161.5+86+161+87C159.529+84.0572+160.707+85.2357+157+84Z" fill="#782b3d" stroke-linecap="round" opacity="1" stroke-linejoin="round"/>
<path stroke="#3a868c" stroke-width="1" d="M236+316C238.633+327.847+238.459+321.918+242+329C236.837+331.581+231.804+331.171+226+332C231.041+325.699+228.293+328.281+234+324C232.385+319.156+232.458+321.904+236+316Z" fill="#3a868c" stroke-linecap="round" opacity="1" stroke-linejoin="round"/>
<path stroke="#3d888e" stroke-width="1" d="M260+247C262+246.5+262+246.5+264+246C265.834+249.667+266.715+253.144+268+257C270.5+257+270.5+257+273+257C273+259+273+259+273+261C274+261+274+261+275+261C275+262+275+262+275+263C264.21+263+262.845+255.536+260+247Z" fill="#3d888e" stroke-linecap="round" opacity="1" stroke-linejoin="round"/>
<path stroke="#32151c" stroke-width="1" d="M375+86C379.715+76.5698+385.322+91.2559+383+75C386.5+74.5+386.5+74.5+390+74C386.151+81.699+390.128+82.5321+396+84C388.857+85.7859+382.564+86+375+86Z" fill="#32151c" stroke-linecap="round" opacity="1" stroke-linejoin="round"/>
<path stroke="#1d2e30" stroke-width="1" d="M194+397C199.731+395.854+197.48+396.76+201+395C201+396+201+396+201+397C202.5+397+202.5+397+204+397C204+393.5+204+393.5+204+390C205+390+205+390+206+390C206+393.5+206+393.5+206+397C209.5+397+209.5+397+213+397C211.764+400.707+212.471+399.057+211+402C209.5+401.5+209.5+401.5+208+401C206.553+403.894+207.745+403+204+403C204+401+204+401+204+399C199+398+199+398+194+397Z" fill="#1d2e30" stroke-linecap="round" opacity="1" stroke-linejoin="round"/>
<path stroke="#321a20" stroke-width="1" d="M311+60C308.5+59.5+308.5+59.5+306+59C308.198+54.6034+309.114+49+303+49C309.3+45.8501+315.15+47.1437+322+48C321.5+49+321.5+49+321+50C312.136+48.2273+313.162+51.3508+311+60Z" fill="#321a20" stroke-linecap="round" opacity="1" stroke-linejoin="round"/>
<path stroke="#5c2532" stroke-width="1" d="M311+60C315.302+55.698+336.655+58.9425+343+60C343.5+59+343.5+59+344+58C347.5+58.5+347.5+58.5+351+59C349+59.5+349+59.5+347+60C349+60.5+349+60.5+351+61C350.5+62+350.5+62+350+63C348.5+62.5+348.5+62.5+347+62C346.5+63+346.5+63+346+64C342.834+60.8343+339.383+59.6166+336+63C333.513+58.0269+317.341+64.2274+311+60Z" fill="#5c2532" stroke-linecap="round" opacity="1" stroke-linejoin="round"/>
<path stroke="#1f1014" stroke-width="1" d="M360+72C362.043+67.913+361+70.7453+361+63C364+62.5+364+62.5+367+62C361.022+73.9564+374.616+70.9451+382+72C374.49+73.502+367.535+73.0764+360+72Z" fill="#1f1014" stroke-linecap="round" opacity="1" stroke-linejoin="round"/>
<path stroke="#3b888e" stroke-width="1" d="M278+275C278+289.18+240.772+263.555+275+266C275.94+266.067+276.515+267.192+277+268C277.542+268.904+277.667+270+278+271C272.5+271+272.5+271+267+271C266.5+272.5+266.5+272.5+266+274C270.057+274+273.955+275+278+275Z" fill="#3b888e" stroke-linecap="round" opacity="1" stroke-linejoin="round"/>
<path stroke="#2f1d22" stroke-width="1" d="M335+480C339+479.5+339+479.5+343+479C343+474.534+345+477.75+345+471C345.5+474.5+345.5+474.5+346+478C354.028+478+350.027+478.329+358+477C351.403+479.199+341.563+483.281+335+480Z" fill="#2f1d22" stroke-linecap="round" opacity="1" stroke-linejoin="round"/>
<path stroke="#a33650" stroke-width="1" d="M376+84C371.7+88.2998+356.99+85.0833+358+77C358.978+69.1792+372.557+73.8868+368+83C372+83.5+372+83.5+376+84Z" fill="#a33650" stroke-linecap="round" opacity="1" stroke-linejoin="round"/>
<path stroke="#357a80" stroke-width="1" d="M511+275C507.473+278.527+509.265+277.368+506+279C510.994+288.989+497.626+288.252+495+283C492.544+278.087+507.568+268.136+511+275Z" fill="#357a80" stroke-linecap="round" opacity="1" stroke-linejoin="round"/>
<path stroke="#70293a" stroke-width="1" d="M206+63C206+62+206+62+206+61C198.255+61+200.043+58.913+198+63C197.5+61+197.5+61+197+59C198+58.5+198+58.5+199+58C199+59+199+59+199+60C205.745+60+204.106+61.7889+206+58C216.012+59.2515+211.349+58.5582+220+60C220.5+59+220.5+59+221+58C225+59+225+59+229+60C229.5+59+229.5+59+230+58C230+59+230+59+230+60C232.5+60+232.5+60+235+60C228.822+61.2357+230.943+59.5858+228+64C222.341+61.1705+211.675+60.1623+206+63Z" fill="#70293a" stroke-linecap="round" opacity="1" stroke-linejoin="round"/>
<path stroke="#822b3f" stroke-width="1" d="M466+167C460.882+168.024+456.078+169.693+451+168C451.5+167+451.5+167+452+166C447.752+164.584+446.888+161.775+445+158C448+158+448+158+451+158C453.822+167.878+456.093+165.762+466+167Z" fill="#822b3f" stroke-linecap="round" opacity="1" stroke-linejoin="round"/>
<path stroke="#a63650" stroke-width="1" d="M76+171C71.7927+162.585+73.8785+157+84+157C84+161.042+85.3137+164.059+84+168C87+168+87+168+90+168C83.2648+169.123+85.8135+168.093+82+170C82+169+82+169+82+168C76.7981+168+78.7396+166.891+76+171Z" fill="#a63650" stroke-linecap="round" opacity="1" stroke-linejoin="round"/>
<path stroke="#408d94" stroke-width="1" d="M452+308C458.625+308+460.192+310.577+462+316C466.5+316+466.5+316+471+316C471+317+471+317+471+318C462.065+318+457.81+316.979+449+316C452.068+312.932+454.37+312.741+452+308Z" fill="#408d94" stroke-linecap="round" opacity="1" stroke-linejoin="round"/>
<path stroke="#892d43" stroke-width="1" d="M60+216C60+199.461+72.8151+206.37+69+214C76.7454+214+73.913+212.956+78+215C77.5+216.5+77.5+216.5+77+218C69.5615+215.52+75.0516+217.075+60+216Z" fill="#892d43" stroke-linecap="round" opacity="1" stroke-linejoin="round"/>
<path stroke="#a4364f" stroke-width="1" d="M226+75C226.5+74+226.5+74+227+73C217.043+70.5109+228.356+61+215+61C203.865+61+222.127+74.2254+226+75Z" fill="#a4364f" stroke-linecap="round" opacity="1" stroke-linejoin="round"/>
<path stroke="#275155" stroke-width="1" d="M500+307C497.247+301.493+494.118+310+490+310C490+304.421+493+298.502+493+292C498.103+292+497.925+295.701+499+300C500.5+300+500.5+300+502+300C502+303.795+502.248+301.381+500+307Z" fill="#275155" stroke-linecap="round" opacity="1" stroke-linejoin="round"/>
<path stroke="#2a1b20" stroke-width="1" d="M97+144C101.452+141.774+101.456+136.456+98+133C99.5+132.5+99.5+132.5+101+132C101+137+101+137+101+142C109.028+142+105.027+141.671+113+143C105.977+144.17+104.268+145.038+97+144Z" fill="#2a1b20" stroke-linecap="round" opacity="1" stroke-linejoin="round"/>
<path stroke="#357479" stroke-width="1" d="M297+203C294.807+198.615+296.745+201+288+201C292.364+195.181+295.475+191.495+303+193C303+195.745+302.702+194.404+304+197C301.141+197+300.288+197.425+299+200C303+200+303+200+307+200C303.321+200.736+300.317+201.342+297+203Z" fill="#357479" stroke-linecap="round" opacity="1" stroke-linejoin="round"/>
<path stroke="#1a2f31" stroke-width="1" d="M234+202C234+196.625+226.995+187.665+222+186C220.343+190.971+227.216+196.647+229+202C231.5+202+231.5+202+234+202Z" fill="#1a2f31" stroke-linecap="round" opacity="1" stroke-linejoin="round"/>
<path stroke="#271217" stroke-width="1" d="M422+422C425.23+420.385+422.77+419.615+426+418C426+419.5+426+419.5+426+421C427+421+427+421+428+421C424.436+428.128+430.703+429.243+436+430C436+431+436+431+436+432C410.745+432+436.845+429.423+422+422Z" fill="#271217" stroke-linecap="round" opacity="1" stroke-linejoin="round"/>
<path stroke="#2c6266" stroke-width="1" d="M205+366C211.5+366.5+211.5+366.5+218+367C218+375.688+213.36+371+209+371C209+374.607+210.122+377.488+211+381C204.341+381+205+370.938+205+366Z" fill="#2c6266" stroke-linecap="round" opacity="1" stroke-linejoin="round"/>
<path stroke="#35767b" stroke-width="1" d="M204+135C204+137.5+204+137.5+204+140C205+140+205+140+206+140C206+135.648+209.209+132.895+213+131C210+130.5+210+130.5+207+130C207+128.5+207+128.5+207+127C201.32+127+198+132.727+198+138C201.839+138+201.568+138.649+204+135Z" fill="#35767b" stroke-linecap="round" opacity="1" stroke-linejoin="round"/>
<path stroke="#a2344e" stroke-width="1" d="M183+84C173.279+82.6113+176.572+85.2866+174+75C180.606+70.5963+175.798+73+190+73C188.255+76.4907+189.745+75+184+75C184+82.7453+185.043+79.913+183+84Z" fill="#a2344e" stroke-linecap="round" opacity="1" stroke-linejoin="round"/>
<path stroke="#a2344e" stroke-width="1" d="M174+75C174+73+174+73+174+71C161.953+68.9921+168.79+64+176+64C177.207+70.0336+177.537+67.3875+176+72C182.745+72+180.211+72.8944+184+71C184+72+184+72+184+73C175.798+73+178.941+71.7057+174+75Z" fill="#a2344e" stroke-linecap="round" opacity="1" stroke-linejoin="round"/>
<path stroke="#28171b" stroke-width="1" d="M335+61C333+61+333+61+331+61C330.073+64.706+330+68.3156+330+72C333+72.5+333+72.5+336+73C336+74+336+74+336+75C339.491+73.2546+337.255+74+343+74C335.806+70.403+335+70.4946+335+61Z" fill="#28171b" stroke-linecap="round" opacity="1" stroke-linejoin="round"/>
<path stroke="#192f32" stroke-width="1" d="M365+241C365+239.5+365+239.5+365+238C359.255+238+361.491+238.745+358+237C358+244.276+361.918+248.959+368+252C369+250+369+250+370+248C367.367+246.245+364.833+244.416+362+243C363.298+240.404+362.255+241+365+241Z" fill="#192f32" stroke-linecap="round" opacity="1" stroke-linejoin="round"/>
<path stroke="#55471e" stroke-width="1" d="M265+240C271.009+241.717+276.462+244.231+282+247C272.033+249.492+276.711+249.452+268+248C267.5+249+267.5+249+267+250C264.593+246.389+262.895+244.211+265+240Z" fill="#55471e" stroke-linecap="round" opacity="1" stroke-linejoin="round"/>
<path stroke="#1a3538" stroke-width="1" d="M193+418C170.876+418+188.497+407.251+195+404C195+412.464+189.814+406.85+193+418Z" fill="#1a3538" stroke-linecap="round" opacity="1" stroke-linejoin="round"/>
<path stroke="#387d83" stroke-width="1" d="M236+162C241.182+162+252+150.437+252+162C253.5+162.5+253.5+162.5+255+163C247.417+166.792+242.336+168.336+236+162Z" fill="#387d83" stroke-linecap="round" opacity="1" stroke-linejoin="round"/>
<path stroke="#8c2f45" stroke-width="1" d="M452+406C427.968+402.996+458+383.777+458+403C457.5+401+457.5+401+457+399C456+399+456+399+455+399C453.529+403.414+454.471+401.057+452+406Z" fill="#8c2f45" stroke-linecap="round" opacity="1" stroke-linejoin="round"/>
<path stroke="#0f191b" stroke-width="1" d="M471+318C471+317+471+317+471+316C466.5+316+466.5+316+462+316C462+313.5+462+313.5+462+311C465.161+310.21+467.179+309.411+470+308C471.346+310.692+471.768+314+475+314C475+315+475+315+475+316C476.5+316+476.5+316+478+316C478+320.477+474.473+318.695+471+318Z" fill="#0f191b" stroke-linecap="round" opacity="1" stroke-linejoin="round"/>
<path stroke="#381d24" stroke-width="1" d="M59+327C59+328+59+328+59+329C57+329+57+329+55+329C54.5+332.5+54.5+332.5+54+336C56.5+336+56.5+336+59+336C53.1725+337.457+53.6392+339.557+55+345C52.8956+340.791+49.3685+323.316+54+321C54+324+54+324+54+327C56.5+327+56.5+327+59+327Z" fill="#381d24" stroke-linecap="round" opacity="1" stroke-linejoin="round"/>
<path stroke="#4f232e" stroke-width="1" d="M123+128C121.408+120.041+117.976+123.976+113+119C116.853+115.147+123.999+118.286+129+119C122.333+120.667+125.333+118.667+123+128Z" fill="#4f232e" stroke-linecap="round" opacity="1" stroke-linejoin="round"/>
<path stroke="#9a334b" stroke-width="1" d="M421+98C423.894+96.5528+422.255+97+426+97C420.363+95.5908+421.677+85.4647+414+87C404.614+88.8773+417.472+95+420+95C420.5+96.5+420.5+96.5+421+98Z" fill="#9a334b" stroke-linecap="round" opacity="1" stroke-linejoin="round"/>
<path stroke="#2d6166" stroke-width="1" d="M229+346C229+344+229+344+229+342C250.738+334.754+219+333.314+219+345C222.938+345+223.734+344.633+227+343C227+344.5+227+344.5+227+346C228+346+228+346+229+346Z" fill="#2d6166" stroke-linecap="round" opacity="1" stroke-linejoin="round"/>
<path stroke="#2d696e" stroke-width="1" d="M481+304C482.27+310.348+480.351+308.588+486+310C485.5+312+485.5+312+485+314C484+313+484+313+483+312C478.727+314.137+480.588+316+475+316C475+315+475+315+475+314C467.47+314+475.326+304+481+304Z" fill="#2d696e" stroke-linecap="round" opacity="1" stroke-linejoin="round"/>
<path stroke="#4c222d" stroke-width="1" d="M444+154C446+153.5+446+153.5+448+153C448+149+448+149+448+145C449.5+145+449.5+145+451+145C448.338+152.986+451.292+153.073+459+155C451.575+156.237+450.761+157.38+444+154Z" fill="#4c222d" stroke-linecap="round" opacity="1" stroke-linejoin="round"/>
<path stroke="#502530" stroke-width="1" d="M184+72C193.007+70.7133+188.675+70.6125+197+72C197.5+71+197.5+71+198+70C202+71+202+71+206+72C206.5+71+206.5+71+207+70C207+71+207+71+207+72C209.5+72+209.5+72+212+72C212+73+212+73+212+74C206.057+74+208.179+72.8215+205+76C202.971+71.9414+188.828+73.6095+184+72Z" fill="#502530" stroke-linecap="round" opacity="1" stroke-linejoin="round"/>
<path stroke="#4e212c" stroke-width="1" d="M75+227C69.5+227.5+69.5+227.5+64+228C64+226.5+64+226.5+64+225C62.5+225+62.5+225+61+225C63.7294+219.541+64+225.236+64+216C69+216+69+216+74+216C61.9171+218.417+65.1392+225.357+75+227Z" fill="#4e212c" stroke-linecap="round" opacity="1" stroke-linejoin="round"/>
<path stroke="#a53751" stroke-width="1" d="M336+74C306.315+74+330+50.4845+330+72C333+73+333+73+336+74Z" fill="#a53751" stroke-linecap="round" opacity="1" stroke-linejoin="round"/>
<path stroke="#9f334d" stroke-width="1" d="M128+434C134.482+430.759+129.257+433.05+145+432C143.093+435.814+144.735+433.877+138+435C141.023+444.07+129.982+443.911+128+434Z" fill="#9f334d" stroke-linecap="round" opacity="1" stroke-linejoin="round"/>
<path stroke="#ba3b58" stroke-width="1" d="M68+241C70.5+241+70.5+241+73+241C71+240.5+71+240.5+69+240C69+227.676+60+223.225+60+237C64+238+64+238+68+239C68+240+68+240+68+241Z" fill="#ba3b58" stroke-linecap="round" opacity="1" stroke-linejoin="round"/>
<path stroke="#81293e" stroke-width="1" d="M435+409C440.774+405.151+436.798+407+448+407C448+408+448+408+448+409C445.255+409+446.298+408.404+445+411C446.5+411+446.5+411+448+411C448+415+448+415+448+419C438.548+419+437.35+418.398+435+409Z" fill="#81293e" stroke-linecap="round" opacity="1" stroke-linejoin="round"/>
<path stroke="#2b5f64" stroke-width="1" d="M467+298C465.5+298+465.5+298+464+298C464+292.204+473.214+287.321+477+293C479.908+297.362+461.677+308.645+467+298Z" fill="#2b5f64" stroke-linecap="round" opacity="1" stroke-linejoin="round"/>
<path stroke="#9b324b" stroke-width="1" d="M359+61C356+60.5+356+60.5+353+60C353+56.2547+352.553+57.8944+354+55C348.976+49.9755+342.132+48.6599+344+58C347.5+58.5+347.5+58.5+351+59C349+59.5+349+59.5+347+60C352.158+62.5789+352.798+61+359+61Z" fill="#9b324b" stroke-linecap="round" opacity="1" stroke-linejoin="round"/>
<path stroke="#aa3954" stroke-width="1" d="M143+97C129.093+91.4371+140.98+76.9397+147+95C149+95+149+95+151+95C148+95.5+148+95.5+145+96C145+95+145+95+145+94C144+95.5+144+95.5+143+97Z" fill="#aa3954" stroke-linecap="round" opacity="1" stroke-linejoin="round"/>
<path stroke="#3f9299" stroke-width="1" d="M240+310C244.446+311.482+248.485+313.454+250+318C245.505+319.124+244+319.244+244+324C243+324+243+324+242+324C240.926+313.258+243.996+315.498+239+313C239.5+311.5+239.5+311.5+240+310Z" fill="#3f9299" stroke-linecap="round" opacity="1" stroke-linejoin="round"/>
<path stroke="#2e666b" stroke-width="1" d="M211+152C209.5+152+209.5+152+208+152C208+150.5+208+150.5+208+149C206.5+149+206.5+149+205+149C205+155.842+210.736+160.368+216+163C216+158.065+212.065+158.39+211+152Z" fill="#2e666b" stroke-linecap="round" opacity="1" stroke-linejoin="round"/>
<path stroke="#224b4e" stroke-width="1" d="M343+236C338.076+234.359+341.04+235.173+334+234C336.938+228.124+335+232.746+335+219C335.5+220.5+335.5+220.5+336+222C339+222+339+222+342+222C338.192+223.904+338.666+228.005+338+232C341.001+232+343+232.771+343+236Z" fill="#224b4e" stroke-linecap="round" opacity="1" stroke-linejoin="round"/>
<path stroke="#99344c" stroke-width="1" d="M81+348C79+347.5+79+347.5+77+347C77+327.111+59.4658+341.562+75+346C75+347.5+75+347.5+75+349C78.3743+349+76.3533+349.162+81+348Z" fill="#99344c" stroke-linecap="round" opacity="1" stroke-linejoin="round"/>
<path stroke="#832c41" stroke-width="1" d="M399+84C401+84+401+84+403+84C372.533+94.1558+405.578+57.6877+399+84Z" fill="#832c41" stroke-linecap="round" opacity="1" stroke-linejoin="round"/>
<path stroke="#270e14" stroke-width="1" d="M136+444C137.785+440.43+139.318+438.955+138+435C141+434.5+141+434.5+144+434C144.5+437+144.5+437+145+440C148+440.5+148+440.5+151+441C141.203+442.959+149.333+444+136+444Z" fill="#270e14" stroke-linecap="round" opacity="1" stroke-linejoin="round"/>
<path stroke="#98334b" stroke-width="1" d="M75+373C75+371.5+75+371.5+75+370C60.5655+367.594+74.4285+350.428+77+371C79+371+79+371+81+371C79+371.667+77+372.333+75+373Z" fill="#98334b" stroke-linecap="round" opacity="1" stroke-linejoin="round"/>
<path stroke="#281319" stroke-width="1" d="M53+289C51.4514+284.354+55.8347+280.835+52+277C54.2267+272.547+59.0324+274.032+62+277C58.9325+278.534+59+279.611+59+283C57.5+283+57.5+283+56+283C55.5+285.5+55.5+285.5+55+288C57+288+57+288+59+288C56+288.5+56+288.5+53+289Z" fill="#281319" stroke-linecap="round" opacity="1" stroke-linejoin="round"/>
<path stroke="#132729" stroke-width="1" d="M416+242C421.352+244.676+423.109+253.656+424+259C422.553+256.106+423.745+257+420+257C420+251.177+413.312+247.375+416+242Z" fill="#132729" stroke-linecap="round" opacity="1" stroke-linejoin="round"/>
<path stroke="#842b3f" stroke-width="1" d="M64+228C48.351+228+47.2618+217.674+64+216C64+225.236+63.7294+219.541+61+225C62.5+225+62.5+225+64+225C64+226.5+64+226.5+64+228Z" fill="#842b3f" stroke-linecap="round" opacity="1" stroke-linejoin="round"/>
<path stroke="#306b70" stroke-width="1" d="M243+168C248.373+166.209+253.261+162.13+259+165C255.473+168.527+257.265+167.368+254+169C255+170+255+170+256+171C252.168+173.555+254.202+173+250+173C250+171.5+250+171.5+250+170C249.5+171+249.5+171+249+172C245.467+170.822+246.024+169.512+243+168Z" fill="#306b70" stroke-linecap="round" opacity="1" stroke-linejoin="round"/>
<path stroke="#439ea5" stroke-width="1" d="M493+288C503.166+288+510.963+300+499+300C499+294.312+495.398+292.797+493+288Z" fill="#439ea5" stroke-linecap="round" opacity="1" stroke-linejoin="round"/>
<path stroke="#9c334c" stroke-width="1" d="M375+82C372.204+76.4087+374.893+70.2977+383+73C388.399+74.7996+380.584+93.1677+375+82Z" fill="#9c334c" stroke-linecap="round" opacity="1" stroke-linejoin="round"/>
<path stroke="#255054" stroke-width="1" d="M201+395C196.733+395+193.818+392.909+190+391C191.838+387.324+193.936+386.257+195+382C196.298+384.596+196+383.255+196+386C198.5+386.5+198.5+386.5+201+387C197.203+388.898+199.904+391.711+201+395Z" fill="#255054" stroke-linecap="round" opacity="1" stroke-linejoin="round"/>
<path stroke="#220e13" stroke-width="1" d="M220+73C213.548+70.8493+212+70.0123+212+63C209.5+63+209.5+63+207+63C208.173+70.0398+208.641+67.0765+207+72C212.745+72+211.255+70.5093+213+74C217.265+72.5784+214.946+73+220+73Z" fill="#220e13" stroke-linecap="round" opacity="1" stroke-linejoin="round"/>
<path stroke="#a83651" stroke-width="1" d="M281+61C245.838+61+286.006+39.9873+276+60C278.5+60.5+278.5+60.5+281+61Z" fill="#a83651" stroke-linecap="round" opacity="1" stroke-linejoin="round"/>
<path stroke="#b03955" stroke-width="1" d="M121+117C119.651+113.746+121.68+102.68+129+110C137.193+118.193+123.823+123.809+121+117Z" fill="#b03955" stroke-linecap="round" opacity="1" stroke-linejoin="round"/>
<path stroke="#9a314a" stroke-width="1" d="M60+276C60+275+60+275+60+274C47.4194+272.203+49.8093+266.399+61+265C61+268.374+60.8383+266.353+62+271C63+271+63+271+64+271C64+273.5+64+273.5+64+276C62.6667+276+61.3333+276+60+276Z" fill="#9a314a" stroke-linecap="round" opacity="1" stroke-linejoin="round"/>
<path stroke="#af3854" stroke-width="1" d="M471+168C469.5+167.5+469.5+167.5+468+167C473.551+155.898+459+151.101+459+166C467.683+167.24+463.689+166.538+471+168Z" fill="#af3854" stroke-linecap="round" opacity="1" stroke-linejoin="round"/>
<path stroke="#34767c" stroke-width="1" d="M215+139C214.5+138+214.5+138+214+137C208.933+140.8+211.667+140+206+140C206+135.212+210.212+131+215+131C216.412+136.649+214.652+134.73+221+136C216.86+137.38+218.877+136.415+215+139Z" fill="#34767c" stroke-linecap="round" opacity="1" stroke-linejoin="round"/>
<path stroke="#377a80" stroke-width="1" d="M223+357C218.866+352.866+221.937+355.104+212+354C212+353+212+353+212+352C215.231+351.282+222.983+348+227+348C227+351.956+224.732+352.67+223+357Z" fill="#377a80" stroke-linecap="round" opacity="1" stroke-linejoin="round"/>
<path stroke="#863044" stroke-width="1" d="M287+49C288.5+48.5+288.5+48.5+290+48C290+44.6257+290.162+46.6467+289+42C298.532+42+301.063+39.7474+299+48C301+48+301+48+303+48C297.444+49.8519+292.982+50.994+287+49Z" fill="#863044" stroke-linecap="round" opacity="1" stroke-linejoin="round"/>
<path stroke="#471924" stroke-width="1" d="M167+85C167+91.0749+164.218+93.7395+171+96C166.879+98.0606+165.83+97.9661+161+97C161+89.2908+158.347+85+167+85Z" fill="#471924" stroke-linecap="round" opacity="1" stroke-linejoin="round"/>
<path stroke="#0d1718" stroke-width="1" d="M208+155C208+162.002+216+160.074+216+167C211.532+167+199.559+159.221+208+155Z" fill="#0d1718" stroke-linecap="round" opacity="1" stroke-linejoin="round"/>
<path stroke="#240e14" stroke-width="1" d="M54+304C54+302+54+302+54+300C59.9153+298.521+59.1257+295.625+64+294C64+297+64+297+64+300C65.5+300+65.5+300+67+300C60.9267+301.215+60.2307+304+54+304Z" fill="#240e14" stroke-linecap="round" opacity="1" stroke-linejoin="round"/>
<path stroke="#a0344e" stroke-width="1" d="M59+260C58.6745+232.154+77.5917+279.592+60+262C59.473+261.473+59.0087+260.745+59+260Z" fill="#a0344e" stroke-linecap="round" opacity="1" stroke-linejoin="round"/>
<path stroke="#782a3d" stroke-width="1" d="M383+459C382.5+458+382.5+458+382+457C385.5+456.5+385.5+456.5+389+456C389+454.5+389+454.5+389+453C377.765+453+381.832+444+390+444C390+460.234+392.983+454.009+383+459Z" fill="#782a3d" stroke-linecap="round" opacity="1" stroke-linejoin="round"/>
<path stroke="#882f44" stroke-width="1" d="M116+423C112.78+439.098+92.6975+416.957+121+421C119.404+424.193+120.745+423+116+423Z" fill="#882f44" stroke-linecap="round" opacity="1" stroke-linejoin="round"/>
<path stroke="#a0354f" stroke-width="1" d="M140+119C136.214+118.775+134.624+118.19+136+112C138.718+99.7701+156.541+119.984+140+119Z" fill="#a0354f" stroke-linecap="round" opacity="1" stroke-linejoin="round"/>
<path stroke="#be3d5b" stroke-width="1" d="M230+58C227.885+66.7115+220.485+56.3611+220+52C219.381+46.4293+232.004+49.7475+230+58Z" fill="#be3d5b" stroke-linecap="round" opacity="1" stroke-linejoin="round"/>
<path stroke="#367c81" stroke-width="1" d="M495+327C495+328.5+495+328.5+495+330C485.798+330+488.479+327.781+485+333C487.5+333.5+487.5+333.5+490+334C490+335+490+335+490+336C475.932+336+480.284+325.528+495+327Z" fill="#367c81" stroke-linecap="round" opacity="1" stroke-linejoin="round"/>
<path stroke="#ad3954" stroke-width="1" d="M124+133C113.231+133+106.639+122+121+122C122.5+127.5+122.5+127.5+124+133Z" fill="#ad3954" stroke-linecap="round" opacity="1" stroke-linejoin="round"/>
<path stroke="#2c6166" stroke-width="1" d="M186+130C186.5+129+186.5+129+187+128C186+128+186+128+185+128C185+124.004+187.351+119.649+190+117C198.311+121.156+193.742+130+186+130Z" fill="#2c6166" stroke-linecap="round" opacity="1" stroke-linejoin="round"/>
<path stroke="#b33956" stroke-width="1" d="M171+96C167.246+95.642+162.557+85+169+85C178.226+85+179.887+96.8475+171+96Z" fill="#b33956" stroke-linecap="round" opacity="1" stroke-linejoin="round"/>
<path stroke="#265357" stroke-width="1" d="M369+282C374.028+282+371.014+281.836+378+283C378+284.5+378+284.5+378+286C381.414+286+379.529+285.529+383+289C376.474+291.61+373.948+288.974+368+286C368.5+284+368.5+284+369+282Z" fill="#265357" stroke-linecap="round" opacity="1" stroke-linejoin="round"/>
<path stroke="#220c11" stroke-width="1" d="M453+406C453+401.818+452.846+400.385+457+399C458.466+404.864+457.704+404.741+464+406C461.057+407.471+462.236+406.293+461+410C457.509+406.509+459.894+408.298+453+406Z" fill="#220c11" stroke-linecap="round" opacity="1" stroke-linejoin="round"/>
<path stroke="#bc3c5a" stroke-width="1" d="M445+121C445+125.448+446.108+128.569+445+133C432.415+133+432.169+122.604+445+121Z" fill="#bc3c5a" stroke-linecap="round" opacity="1" stroke-linejoin="round"/>
<path stroke="#ba3b59" stroke-width="1" d="M260+49C260+54.2232+262.798+54.4042+260+60C247.571+58.4464+247.216+49+260+49Z" fill="#ba3b59" stroke-linecap="round" opacity="1" stroke-linejoin="round"/>
<path stroke="#2d191e" stroke-width="1" d="M64+276C64+273.5+64+273.5+64+271C63+271+63+271+62+271C62+270+62+270+62+269C63+269+63+269+64+269C64+266.5+64+266.5+64+264C63+264+63+264+62+264C64.5+263.5+64.5+263.5+67+263C68.4803+267.441+65.1561+271.052+71+273C66.9593+274.347+68.2457+276+64+276Z" fill="#2d191e" stroke-linecap="round" opacity="1" stroke-linejoin="round"/>
<path stroke="#23171b" stroke-width="1" d="M125+434C124.5+438.5+124.5+438.5+124+443C123+443+123+443+122+443C122+439.201+122.74+435.48+121+432C122.5+431+122.5+431+124+430C124+431+124+431+124+432C127+432+127+432+130+432C127.293+434.707+128.943+434+125+434Z" fill="#23171b" stroke-linecap="round" opacity="1" stroke-linejoin="round"/>
<path stroke="#163033" stroke-width="1" d="M503+291C499.527+289.263+496.723+287.241+493+286C494+284+494+284+495+282C498.651+283.825+502.193+285.477+506+287C503.057+288.471+504.236+287.293+503+291Z" fill="#163033" stroke-linecap="round" opacity="1" stroke-linejoin="round"/>
<path stroke="#3b868d" stroke-width="1" d="M362+243C364.609+237.783+376.082+245.082+379+248C369.153+248+369.51+246.755+362+243Z" fill="#3b868d" stroke-linecap="round" opacity="1" stroke-linejoin="round"/>
<path stroke="#2d1a1f" stroke-width="1" d="M105+408C102+408+102+408+99+408C99+403.046+97.5337+397.399+99+393C102+393+102+393+105+393C101+394.333+102.333+393+101+397C103.5+397+103.5+397+106+397C104.553+399.894+105.745+399+102+399C101.5+403+101.5+403+101+407C103+407.5+103+407.5+105+408Z" fill="#2d1a1f" stroke-linecap="round" opacity="1" stroke-linejoin="round"/>
<path stroke="#201317" stroke-width="1" d="M60+265C56+265+56+265+52+265C52+260.43+56.0031+257.003+52+253C53.7454+249.509+52.2546+251+58+251C54.4798+252.76+56.1462+251.269+55+257C58.7454+257+57.5528+256.106+59+259C54.6962+260.435+56.2557+258.977+55+264C57.5+264.5+57.5+264.5+60+265Z" fill="#201317" stroke-linecap="round" opacity="1" stroke-linejoin="round"/>
<path stroke="#993149" stroke-width="1" d="M413+119C413+108.675+410.608+110.339+424+109C424+113.5+424+113.5+424+118C418.47+119.843+422.054+119+413+119Z" fill="#993149" stroke-linecap="round" opacity="1" stroke-linejoin="round"/>
<path stroke="#be3c5a" stroke-width="1" d="M151+95C151+86.7302+149.048+86.369+160+85C160+86+160+86+160+87C161+87+161+87+162+87C162+97.2458+161.783+95+151+95Z" fill="#be3c5a" stroke-linecap="round" opacity="1" stroke-linejoin="round"/>
<path stroke="#bd3c5a" stroke-width="1" d="M60+240C47.3325+240+49.0968+249.183+60+251C62.2656+246.469+61.5556+244.667+60+240Z" fill="#bd3c5a" stroke-linecap="round" opacity="1" stroke-linejoin="round"/>
<path stroke="#1d1518" stroke-width="1" d="M52+313C52+307.75+53+302.514+53+297C55.5+297.5+55.5+297.5+58+298C53.3876+299.537+55.2067+297.966+54+304C56.5+304+56.5+304+59+304C59+305+59+305+59+306C57+306+57+306+55+306C53.8775+312.735+55.8135+311.093+52+313Z" fill="#1d1518" stroke-linecap="round" opacity="1" stroke-linejoin="round"/>
<path stroke="#41969d" stroke-width="1" d="M231+143C231+147.299+229.705+145.591+228+149C227.5+147.5+227.5+147.5+227+146C222.258+149.161+224.339+149.732+218+151C218+144.227+224.846+140.949+231+143Z" fill="#41969d" stroke-linecap="round" opacity="1" stroke-linejoin="round"/>
<path stroke="#b73b58" stroke-width="1" d="M459+156C446.728+152.494+448.143+146.482+460+145C460+149.719+461.755+151.867+459+156Z" fill="#b73b58" stroke-linecap="round" opacity="1" stroke-linejoin="round"/>
<path stroke="#ba3b59" stroke-width="1" d="M283+50C289.222+45.3179+292+51.9638+292+59C292+63.2426+279.61+52.5512+283+50Z" fill="#ba3b59" stroke-linecap="round" opacity="1" stroke-linejoin="round"/>
<path stroke="#933249" stroke-width="1" d="M98+386C98+388+98+388+98+390C96.4037+386.807+97.7454+388+93+388C89.6588+401.365+69.451+381.922+98+386Z" fill="#933249" stroke-linecap="round" opacity="1" stroke-linejoin="round"/>
<path stroke="#35777d" stroke-width="1" d="M392+271C392+276.054+391.578+273.735+393+278C389.551+276.85+386.449+275.15+383+274C383+271.047+385.34+269.49+387+267C388.435+271.304+386.977+269.744+392+271Z" fill="#35777d" stroke-linecap="round" opacity="1" stroke-linejoin="round"/>
<path stroke="#99324a" stroke-width="1" d="M443+427C441.464+422.271+443.34+416.753+452+420C454.159+420.81+446.183+436.8+443+427Z" fill="#99324a" stroke-linecap="round" opacity="1" stroke-linejoin="round"/>
<path stroke="#37787d" stroke-width="1" d="M346+235C345.5+234+345.5+234+345+233C337.237+236.881+334.721+225.07+343+223C343+226.556+343.335+227+347+227C346.5+231+346.5+231+346+235Z" fill="#37787d" stroke-linecap="round" opacity="1" stroke-linejoin="round"/>
<path stroke="#b33956" stroke-width="1" d="M206+72C202.5+71.5+202.5+71.5+199+71C197.746+60.9708+196.066+61+206+61C206+62+206+62+206+63C207+63+207+63+208+63C206.895+70.7377+208.054+67.8919+206+72Z" fill="#b33956" stroke-linecap="round" opacity="1" stroke-linejoin="round"/>
<path stroke="#46a4ab" stroke-width="1" d="M182+421C184.481+425.961+192.715+437+181+437C181+432.279+178.872+424.128+182+421Z" fill="#46a4ab" stroke-linecap="round" opacity="1" stroke-linejoin="round"/>
<path stroke="#9b344c" stroke-width="1" d="M92+153C95+153.5+95+153.5+98+154C63.9648+158.254+99.5842+137.832+92+153Z" fill="#9b344c" stroke-linecap="round" opacity="1" stroke-linejoin="round"/>
<path stroke="#275256" stroke-width="1" d="M206+390C206+384.596+204+382.039+204+376C200.255+376+201.894+376.447+199+375C197.889+379.445+200.011+390+206+390Z" fill="#275256" stroke-linecap="round" opacity="1" stroke-linejoin="round"/>
<path stroke="#4b242e" stroke-width="1" d="M343+75C343+74+343+74+343+73C342+73+342+73+341+73C347.84+69.5802+359.333+70.9047+367+72C359.788+73.4425+349.093+71.9537+343+75Z" fill="#4b242e" stroke-linecap="round" opacity="1" stroke-linejoin="round"/>
<path stroke="#913047" stroke-width="1" d="M150+85C150.5+84+150.5+84+151+83C148+83+148+83+145+83C145+77.5072+148.946+76+154+76C154+82.0541+154.527+79.4189+153+84C155+84+155+84+157+84C152.03+85.2425+154.374+85+150+85Z" fill="#913047" stroke-linecap="round" opacity="1" stroke-linejoin="round"/>
<path stroke="#1d0a0f" stroke-width="1" d="M66+311C62.8074+312.596+64+311.255+64+316C60.0494+316+58.6129+313.538+54+312C54+309.5+54+309.5+54+307C60.0608+307+60.3308+308.732+66+311Z" fill="#1d0a0f" stroke-linecap="round" opacity="1" stroke-linejoin="round"/>
<path stroke="#c13d5c" stroke-width="1" d="M159+83C159+74.4775+157.211+73+168+73C168+81.9573+173.855+84.6505+159+83Z" fill="#c13d5c" stroke-linecap="round" opacity="1" stroke-linejoin="round"/>
<path stroke="#b83b58" stroke-width="1" d="M97+143C86.3407+141.819+87.4056+131.344+99+133C99.2473+133.035+102.298+143.587+97+143Z" fill="#b83b58" stroke-linecap="round" opacity="1" stroke-linejoin="round"/>
<path stroke="#30141b" stroke-width="1" d="M184+75C186.5+75+186.5+75+189+75C189.936+80.6131+188.965+82.3217+194+84C189.162+85.6127+189.632+86.1263+184+85C184+81.6667+184+78.3333+184+75Z" fill="#30141b" stroke-linecap="round" opacity="1" stroke-linejoin="round"/>
<path stroke="#983149" stroke-width="1" d="M62+294C61.5406+299.027+61.4297+298.873+53+297C44.8894+295.198+63.154+281.372+62+294Z" fill="#983149" stroke-linecap="round" opacity="1" stroke-linejoin="round"/>
<path stroke="#ab3853" stroke-width="1" d="M113+120C105.86+117.62+108.169+119.754+105+115C108.455+111.545+108.746+109+114+109C114+113.719+115.755+115.867+113+120Z" fill="#ab3853" stroke-linecap="round" opacity="1" stroke-linejoin="round"/>
<path stroke="#49abb4" stroke-width="1" d="M487+313C487+310.5+487+310.5+487+308C488.5+307.5+488.5+307.5+490+307C490+308.5+490+308.5+490+310C493.244+310+497.347+303.898+499+305C503+307.667+491.807+313+487+313Z" fill="#49abb4" stroke-linecap="round" opacity="1" stroke-linejoin="round"/>
<path stroke="#36797e" stroke-width="1" d="M221+137C221+140.943+221.707+139.293+219+142C221+142+221+142+223+142C221.592+144.816+212.763+147.527+211+144C215.586+141.707+214.51+137+221+137Z" fill="#36797e" stroke-linecap="round" opacity="1" stroke-linejoin="round"/>
<path stroke="#812b3f" stroke-width="1" d="M422+417C422+409.143+428.757+409+435+409C435+410+435+410+435+411C433+411+433+411+431+411C429.395+417.421+428.927+417+422+417Z" fill="#812b3f" stroke-linecap="round" opacity="1" stroke-linejoin="round"/>
<path stroke="#361f25" stroke-width="1" d="M254+479C253+479+253+479+252+479C252+477+252+477+252+475C249.48+480.04+251.731+476.854+241+479C245.924+480.641+242.96+479.827+250+481C250+482+250+482+250+483C252+481+252+481+254+479Z" fill="#361f25" stroke-linecap="round" opacity="1" stroke-linejoin="round"/>
<path stroke="#a93651" stroke-width="1" d="M76+349C79.7745+345.968+85.9596+349.242+85+355C84.1557+360.066+68.6339+354.918+76+349Z" fill="#a93651" stroke-linecap="round" opacity="1" stroke-linejoin="round"/>
<path stroke="#b03854" stroke-width="1" d="M107+145C107+148.629+108.693+151.614+107+155C94.813+153.477+94.1194+145+107+145Z" fill="#b03854" stroke-linecap="round" opacity="1" stroke-linejoin="round"/>
<path stroke="#c13d5c" stroke-width="1" d="M306+49C306+57.4622+311.086+60.8694+298+59C296.668+49.6726+296.743+49+306+49Z" fill="#c13d5c" stroke-linecap="round" opacity="1" stroke-linejoin="round"/>
<path stroke="#b43a57" stroke-width="1" d="M91+170C93.3333+177+93.6667+174+92+179C80.5806+177.573+76.9316+170+91+170Z" fill="#b43a57" stroke-linecap="round" opacity="1" stroke-linejoin="round"/>
<path stroke="#0e0608" stroke-width="1" d="M124+443C124+439+124+439+124+435C126+434.5+126+434.5+128+434C128+437.549+126.854+441+131+441C131+442+131+442+131+443C132.5+443+132.5+443+134+443C126.644+444.226+129.967+444.492+124+443Z" fill="#0e0608" stroke-linecap="round" opacity="1" stroke-linejoin="round"/>
<path stroke="#16070b" stroke-width="1" d="M54+336C54+333+54+333+54+330C56.5+329.5+56.5+329.5+59+329C59+335.658+64+330.684+64+339C59.9781+339+58.3762+336.875+54+336Z" fill="#16070b" stroke-linecap="round" opacity="1" stroke-linejoin="round"/>
<path stroke="#19080c" stroke-width="1" d="M87+374C85+374+85+374+83+374C83+373+83+373+83+372C79.6257+372+81.6467+372.162+77+371C77+367.5+77+367.5+77+364C79.5+364+79.5+364+82+364C83.6749+369.025+87+368.266+87+374Z" fill="#19080c" stroke-linecap="round" opacity="1" stroke-linejoin="round"/>
<path stroke="#bd3c5a" stroke-width="1" d="M328+59C328+50.5998+327.194+49+337+49C337+52.6667+337+56.3333+337+60C332.5+59.5+332.5+59.5+328+59Z" fill="#bd3c5a" stroke-linecap="round" opacity="1" stroke-linejoin="round"/>
<path stroke="#0c090a" stroke-width="1" d="M422+423C423+423+423+423+424+423C424+427+424+427+424+431C425+431+425+431+426+431C420.5+431.5+420.5+431.5+415+432C417.539+426.922+422+430.227+422+423Z" fill="#0c090a" stroke-linecap="round" opacity="1" stroke-linejoin="round"/>
<path stroke="#441924" stroke-width="1" d="M78+192C91.8421+193.73+87.5723+200.678+77+202C77+198.497+76.4245+195.151+78+192Z" fill="#441924" stroke-linecap="round" opacity="1" stroke-linejoin="round"/>
<path stroke="#21181b" stroke-width="1" d="M428+432C432+432+432+432+436+432C436+429.255+435.702+430.596+437+428C437.5+429.5+437.5+429.5+438+431C440+431+440+431+442+431C437.736+432.421+432.93+433.035+429+435C428.5+433.5+428.5+433.5+428+432Z" fill="#21181b" stroke-linecap="round" opacity="1" stroke-linejoin="round"/>
<path stroke="#9e334c" stroke-width="1" d="M78+215C69.9782+212.159+77.1324+200.132+82+205C84.7909+207.791+80.9545+216.046+78+215Z" fill="#9e334c" stroke-linecap="round" opacity="1" stroke-linejoin="round"/>
<path stroke="#822d41" stroke-width="1" d="M75+327C74.5+328.5+74.5+328.5+74+330C72+329.5+72+329.5+70+329C66.0465+340.86+48.8405+322.64+75+327Z" fill="#822d41" stroke-linecap="round" opacity="1" stroke-linejoin="round"/>
<path stroke="#902f46" stroke-width="1" d="M406+447C407.67+450.75+406.687+456.27+399+452C392.517+448.398+402.363+438.834+406+447Z" fill="#902f46" stroke-linecap="round" opacity="1" stroke-linejoin="round"/>
<path stroke="#361d23" stroke-width="1" d="M64+252C64+250.5+64+250.5+64+249C62.5+249+62.5+249+61+249C61.5+247.5+61.5+247.5+62+246C63+246+63+246+64+246C64+243.5+64+243.5+64+241C66+240.5+66+240.5+68+240C68+243.501+67.3999+246.8+69+250C66.0571+251.471+67.7072+250.764+64+252Z" fill="#361d23" stroke-linecap="round" opacity="1" stroke-linejoin="round"/>
<path stroke="#122426" stroke-width="1" d="M227+351C227+349.5+227+349.5+227+348C223.842+348+220.115+349.481+217+350C217+348.5+217+348.5+217+347C220.741+346.065+223.591+344.704+227+343C227+344.5+227+344.5+227+346C228+346+228+346+229+346C229+348.5+229+348.5+229+351C228+351+228+351+227+351Z" fill="#122426" stroke-linecap="round" opacity="1" stroke-linejoin="round"/>
<path stroke="#7d2d40" stroke-width="1" d="M143+96C146.491+92.5093+144.106+93.7019+151+96C151+95+151+95+151+94C153.104+98.2077+158.896+98.2077+161+94C161+98.7453+162.193+97.4037+159+99C159+98+159+98+159+97C155.149+97+146.819+96.5906+144+98C143.5+97+143.5+97+143+96Z" fill="#7d2d40" stroke-linecap="round" opacity="1" stroke-linejoin="round"/>
<path stroke="#240e13" stroke-width="1" d="M69+330C76.7869+330+75.8595+331.016+77+339C74.8764+334.753+69.9753+336.025+67+339C65.3604+330.802+69+335.852+69+330Z" fill="#240e13" stroke-linecap="round" opacity="1" stroke-linejoin="round"/>
<path stroke="#b23955" stroke-width="1" d="M144+458C146.15+454.612+151.262+454.655+153+459C156.586+467.964+139.379+465.283+144+458Z" fill="#b23955" stroke-linecap="round" opacity="1" stroke-linejoin="round"/>
<path stroke="#b23955" stroke-width="1" d="M75+373C79.0276+373+76.3422+373.11+83+372C83+376.357+82.9057+373.34+84+381C76.551+382.064+72.1615+381.516+75+373Z" fill="#b23955" stroke-linecap="round" opacity="1" stroke-linejoin="round"/>
<path stroke="#240c11" stroke-width="1" d="M459+142C456+142+456+142+453+142C453+138.886+454.459+136.917+453+134C455.829+131.171+458.431+131.216+462+133C457.073+135.464+458.003+136.019+459+142Z" fill="#240c11" stroke-linecap="round" opacity="1" stroke-linejoin="round"/>
<path stroke="#b53a57" stroke-width="1" d="M130+420C130+423.357+131.569+425.863+130+429C117.217+427.402+117.547+420+130+420Z" fill="#b53a57" stroke-linecap="round" opacity="1" stroke-linejoin="round"/>
<path stroke="#25191d" stroke-width="1" d="M112+419C111+419+111+419+110+419C110+415+110+415+110+411C108.5+411+108.5+411+107+411C107+410+107+410+107+409C108.5+409+108.5+409+110+409C110+407.5+110+407.5+110+406C111+406+111+406+112+406C112+407.5+112+407.5+112+409C113+409+113+409+114+409C112.455+412.09+112.857+415.571+112+419Z" fill="#25191d" stroke-linecap="round" opacity="1" stroke-linejoin="round"/>
<path stroke="#ac3752" stroke-width="1" d="M337+489C333+488.5+333+488.5+329+488C326.594+473.563+342+479.001+337+489Z" fill="#ac3752" stroke-linecap="round" opacity="1" stroke-linejoin="round"/>
<path stroke="#04090a" stroke-width="1" d="M194+408C195.412+402.351+194.73+405.348+196+399C200+399+200+399+204+399C204+408.028+205.639+408+194+408Z" fill="#04090a" stroke-linecap="round" opacity="1" stroke-linejoin="round"/>
<path stroke="#280d13" stroke-width="1" d="M101+400C103+399.5+103+399.5+105+399C106.098+403.392+108.623+404.868+110+409C102.423+409+101+408.433+101+400Z" fill="#280d13" stroke-linecap="round" opacity="1" stroke-linejoin="round"/>
<path stroke="#223f42" stroke-width="1" d="M415+244C413.702+241.404+414.745+242+412+242C412+237.934+413.178+233.108+414+229C415.885+232.771+415.995+236.991+418+241C416.5+242.5+416.5+242.5+415+244Z" fill="#223f42" stroke-linecap="round" opacity="1" stroke-linejoin="round"/>
<path stroke="#14070a" stroke-width="1" d="M90+397C89.5+395.5+89.5+395.5+89+394C92.832+391.445+92+393.202+92+389C94.5+388.5+94.5+388.5+97+388C97+390.764+98.3147+393.259+99+396C91.9459+396+94.8974+395.368+90+397Z" fill="#14070a" stroke-linecap="round" opacity="1" stroke-linejoin="round"/>
<path stroke="#402129" stroke-width="1" d="M64+199C64+196+64+196+64+193C67+193+67+193+70+193C65.8834+196.087+63.9084+197.908+68+202C64.5+202.5+64.5+202.5+61+203C61+200.26+61.0239+199+64+199Z" fill="#402129" stroke-linecap="round" opacity="1" stroke-linejoin="round"/>
<path stroke="#17080c" stroke-width="1" d="M54+322C58.0774+322+61+322.708+61+318C62.5+318+62.5+318+64+318C64+326.399+62.1727+327+54+327C54+324.5+54+324.5+54+322Z" fill="#17080c" stroke-linecap="round" opacity="1" stroke-linejoin="round"/>
<path stroke="#441621" stroke-width="1" d="M64+249C64+254.251+59+252.863+59+259C57.5528+256.106+58.7454+257+55+257C55+252.004+59.5244+249+64+249Z" fill="#441621" stroke-linecap="round" opacity="1" stroke-linejoin="round"/>
<path stroke="#409198" stroke-width="1" d="M258+279C266.878+279+267+281.918+267+289C261.088+287.029+258+285.175+258+279Z" fill="#409198" stroke-linecap="round" opacity="1" stroke-linejoin="round"/>
<path stroke="#0d1e1f" stroke-width="1" d="M241+386C241+381.689+248+381.828+248+376C249+376+249+376+250+376C250+383.093+248.66+386+241+386Z" fill="#0d1e1f" stroke-linecap="round" opacity="1" stroke-linejoin="round"/>
<path stroke="#c33e5d" stroke-width="1" d="M153+107C141.815+105.602+139.091+95.8485+152+98C152.5+102.5+152.5+102.5+153+107Z" fill="#c33e5d" stroke-linecap="round" opacity="1" stroke-linejoin="round"/>
<path stroke="#1c0a0e" stroke-width="1" d="M66+287C62.8074+288.596+64+287.255+64+292C59.5631+292+55+288.905+55+284C59.8647+284+61.2963+285.119+66+287Z" fill="#1c0a0e" stroke-linecap="round" opacity="1" stroke-linejoin="round"/>
<path stroke="#1a383a" stroke-width="1" d="M201+131C199+130.5+199+130.5+197+130C207.779+108.442+180.667+144.555+201+131Z" fill="#1a383a" stroke-linecap="round" opacity="1" stroke-linejoin="round"/>
<path stroke="#295559" stroke-width="1" d="M195+404C192.255+401.255+193.298+402.894+192+399C188.5+399+188.5+399+185+399C189.377+390.245+194.244+399.465+195+404Z" fill="#295559" stroke-linecap="round" opacity="1" stroke-linejoin="round"/>
<path stroke="#a63650" stroke-width="1" d="M54+321C50.7983+320.159+49.5089+314.283+54+313C61.1949+310.944+65.0908+323.912+54+321Z" fill="#a63650" stroke-linecap="round" opacity="1" stroke-linejoin="round"/>
<path stroke="#ae3853" stroke-width="1" d="M145+432C151.35+433.27+155.281+434.438+152+441C148.5+440.5+148.5+440.5+145+440C143.877+433.265+143.093+435.814+145+432Z" fill="#ae3853" stroke-linecap="round" opacity="1" stroke-linejoin="round"/>
<path stroke="#3d1f27" stroke-width="1" d="M452+417C450.667+417.667+449.333+418.333+448+419C448+415+448+415+448+411C446.5+411+446.5+411+445+411C446.298+408.404+445.255+409+448+409C448+408+448+408+448+407C449.5+407.5+449.5+407.5+451+408C449.8+411.601+450.312+413.623+452+417Z" fill="#3d1f27" stroke-linecap="round" opacity="1" stroke-linejoin="round"/>
<path stroke="#142b2d" stroke-width="1" d="M304+212C300.925+210.463+302.413+211.62+300+208C306.493+205.836+301.95+207.095+314+206C314+208+314+208+314+210C304.255+210+306.342+207.317+304+212Z" fill="#142b2d" stroke-linecap="round" opacity="1" stroke-linejoin="round"/>
<path stroke="#0a1516" stroke-width="1" d="M237+214C235.553+211.106+236.745+212+233+212C233+208.522+231.546+205.092+230+202C236.755+203.689+236.051+207.359+237+214Z" fill="#0a1516" stroke-linecap="round" opacity="1" stroke-linejoin="round"/>
<path stroke="#231a1d" stroke-width="1" d="M89+408C88+408+88+408+87+408C87+403.5+87+403.5+87+399C85.5+398.5+85.5+398.5+84+398C85.5+397.5+85.5+397.5+87+397C87+395.5+87+395.5+87+394C88+394+88+394+89+394C90.631+398.893+89.9944+403.028+89+408Z" fill="#231a1d" stroke-linecap="round" opacity="1" stroke-linejoin="round"/>
<path stroke="#b73b58" stroke-width="1" d="M151+446C155.087+443.956+152.255+445+160+445C161.809+457.665+152.587+455.519+151+446Z" fill="#b73b58" stroke-linecap="round" opacity="1" stroke-linejoin="round"/>
<path stroke="#af3854" stroke-width="1" d="M183+455C183+459.357+182.906+456.34+184+464C170.912+464+172.697+455+183+455Z" fill="#af3854" stroke-linecap="round" opacity="1" stroke-linejoin="round"/>
<path stroke="#a3334d" stroke-width="1" d="M191+468C191+471.357+192.569+473.863+191+477C180.239+475.463+178.977+468+191+468Z" fill="#a3334d" stroke-linecap="round" opacity="1" stroke-linejoin="round"/>
<path stroke="#aa3651" stroke-width="1" d="M375+468C375+471.357+376.569+473.863+375+477C363.607+475.372+363.688+468+375+468Z" fill="#aa3651" stroke-linecap="round" opacity="1" stroke-linejoin="round"/>
<path stroke="#ab3652" stroke-width="1" d="M214+480C214+483.357+215.569+485.863+214+489C210+488.5+210+488.5+206+488C204.47+480.351+206.564+480+214+480Z" fill="#ab3652" stroke-linecap="round" opacity="1" stroke-linejoin="round"/>
<path stroke="#a4344f" stroke-width="1" d="M429+441C419.913+439.702+422.745+442.236+420+434C425.852+431.074+432.535+433.93+429+441Z" fill="#a4344f" stroke-linecap="round" opacity="1" stroke-linejoin="round"/>
<path stroke="#250c12" stroke-width="1" d="M62+269C62+264.539+58.9154+264.783+55+264C55+262.5+55+262.5+55+261C57.5+260.5+57.5+260.5+60+260C60+261+60+261+60+262C61+262+61+262+62+262C62+263+62+263+62+264C63+264+63+264+64+264C64+266.5+64+266.5+64+269C63+269+63+269+62+269Z" fill="#250c12" stroke-linecap="round" opacity="1" stroke-linejoin="round"/>
<path stroke="#132b2d" stroke-width="1" d="M215+400C215+406.928+212.858+407.857+206+409C209.468+405.532+210.537+402.231+215+400Z" fill="#132b2d" stroke-linecap="round" opacity="1" stroke-linejoin="round"/>
<path stroke="#c03d5b" stroke-width="1" d="M430+106C425.5+106+425.5+106+421+106C418.995+93.9682+427.221+94.8825+430+106Z" fill="#c03d5b" stroke-linecap="round" opacity="1" stroke-linejoin="round"/>
<path stroke="#122325" stroke-width="1" d="M442+310C438.131+308.066+437.802+304.01+437+300C437.5+302+437.5+302+438+304C438.5+302.5+438.5+302.5+439+301C440.784+304.567+440.699+307+445+307C442.333+308.333+443.333+307.333+442+310Z" fill="#122325" stroke-linecap="round" opacity="1" stroke-linejoin="round"/>
<path stroke="#3b8990" stroke-width="1" d="M283+196C283+190.081+288.56+188+293+188C293+193.942+288.137+196+283+196Z" fill="#3b8990" stroke-linecap="round" opacity="1" stroke-linejoin="round"/>
<path stroke="#a4344f" stroke-width="1" d="M389+458C393.108+455.946+390.262+457.105+398+456C398+465.928+391.701+468.803+389+458Z" fill="#a4344f" stroke-linecap="round" opacity="1" stroke-linejoin="round"/>
<path stroke="#161819" stroke-width="1" d="M64+324C64+321+64+321+64+318C62.5+318+62.5+318+61+318C61+317+61+317+61+316C62.5+316+62.5+316+64+316C64+311.255+62.8074+312.596+66+311C66+316.464+67+318.845+67+324C65.5+324+65.5+324+64+324Z" fill="#161819" stroke-linecap="round" opacity="1" stroke-linejoin="round"/>
<path stroke="#bc3b59" stroke-width="1" d="M314+63C314.5+66.5+314.5+66.5+315+70C301.119+71.7352+301.236+61.1766+314+63Z" fill="#bc3b59" stroke-linecap="round" opacity="1" stroke-linejoin="round"/>
<path stroke="#a73550" stroke-width="1" d="M444+154C438.428+152.143+438.43+150.721+437+145C443.225+145.889+448.241+147.638+444+154Z" fill="#a73550" stroke-linecap="round" opacity="1" stroke-linejoin="round"/>
<path stroke="#ba3b59" stroke-width="1" d="M90+397C92.6667+397+95.3333+397+98+397C101.911+408.732+91.6329+408.43+90+397Z" fill="#ba3b59" stroke-linecap="round" opacity="1" stroke-linejoin="round"/>
<path stroke="#ac3752" stroke-width="1" d="M482+167C478+167+478+167+474+167C474+163.31+472.805+161.584+474+158C476.5+158+476.5+158+479+158C479+161.179+480.991+163.974+482+167Z" fill="#ac3752" stroke-linecap="round" opacity="1" stroke-linejoin="round"/>
<path stroke="#ae3854" stroke-width="1" d="M344+469C344.5+472.5+344.5+472.5+345+476C336.561+480.219+329.312+466.552+344+469Z" fill="#ae3854" stroke-linecap="round" opacity="1" stroke-linejoin="round"/>
<path stroke="#1a1a1c" stroke-width="1" d="M66+348C64+348+64+348+62+348C65.7889+346.106+64+347.745+64+341C62.5+341+62.5+341+61+341C61+340+61+340+61+339C62.5+339+62.5+339+64+339C64+336.5+64+336.5+64+334C65+334+65+334+66+334C66+339.294+67.0466+342.767+66+348Z" fill="#1a1a1c" stroke-linecap="round" opacity="1" stroke-linejoin="round"/>
<path stroke="#ae3753" stroke-width="1" d="M352+480C352+484.028+351.89+481.343+353+488C340.825+488+340.182+480+352+480Z" fill="#ae3753" stroke-linecap="round" opacity="1" stroke-linejoin="round"/>
<path stroke="#ae3854" stroke-width="1" d="M459+132C457.671+126.685+456.952+125.476+452+123C448.509+129.982+451.697+129.913+459+132Z" fill="#ae3854" stroke-linecap="round" opacity="1" stroke-linejoin="round"/>
<path stroke="#3c868c" stroke-width="1" d="M360+289C365.298+289+369.163+289.163+373+293C366.045+295.318+365.811+294.362+359+293C359.5+291+359.5+291+360+289Z" fill="#3c868c" stroke-linecap="round" opacity="1" stroke-linejoin="round"/>
<path stroke="#17080c" stroke-width="1" d="M67+343C69.3596+347.719+78.7529+343.494+75+351C67.8431+349.807+65.498+350.51+67+343Z" fill="#17080c" stroke-linecap="round" opacity="1" stroke-linejoin="round"/>
<path stroke="#080304" stroke-width="1" d="M347+62C348.5+62.5+348.5+62.5+350+63C350+68.9428+348.821+66.8215+352+70C350.106+73.7889+351.745+72+345+72C345+68.4874+345.423+65.1548+347+62Z" fill="#080304" stroke-linecap="round" opacity="1" stroke-linejoin="round"/>
<path stroke="#191214" stroke-width="1" d="M169+84C169+79.2881+170.142+77.284+168+73C171.193+71.4037+169.255+72+174+72C174+78+174+78+174+84C171.5+84+171.5+84+169+84Z" fill="#191214" stroke-linecap="round" opacity="1" stroke-linejoin="round"/>
<path stroke="#c03d5b" stroke-width="1" d="M268+47C268+44+268+44+268+41C259.35+39.7643+262.414+38.1144+258+44C261.619+47.6193+262.229+47+268+47Z" fill="#c03d5b" stroke-linecap="round" opacity="1" stroke-linejoin="round"/>
<path stroke="#a5354f" stroke-width="1" d="M268+492C268+499.812+271.512+500+261+500C258.139+491.418+259.101+492+268+492Z" fill="#a5354f" stroke-linecap="round" opacity="1" stroke-linejoin="round"/>
<path stroke="#37767c" stroke-width="1" d="M387+267C390.075+265.462+388.587+266.62+391+263C393.333+267.667+393.667+265.667+392+269C394+269+394+269+396+269C396+270+396+270+396+271C390.977+269.744+393.304+269.565+389+271C388+269+388+269+387+267Z" fill="#37767c" stroke-linecap="round" opacity="1" stroke-linejoin="round"/>
<path stroke="#1d090e" stroke-width="1" d="M428+121C432+121+432+121+436+121C434.473+125.581+435+122.946+435+129C432.5+129.5+432.5+129.5+430+130C430+122.057+431.65+124.65+428+121Z" fill="#1d090e" stroke-linecap="round" opacity="1" stroke-linejoin="round"/>
<path stroke="#161617" stroke-width="1" d="M89+383C88+383+88+383+87+383C87+379.5+87+379.5+87+376C86+377+86+377+85+378C84.5+376+84.5+376+84+374C85.5+374+85.5+374+87+374C87+372+87+372+87+370C88+370+88+370+89+370C89+374.757+90.1686+378.325+89+383Z" fill="#161617" stroke-linecap="round" opacity="1" stroke-linejoin="round"/>
<path stroke="#25464a" stroke-width="1" d="M193+418C190.646+409.76+190.18+407.236+199+409C199+413.172+194.782+414.437+193+418Z" fill="#25464a" stroke-linecap="round" opacity="1" stroke-linejoin="round"/>
<path stroke="#a0334c" stroke-width="1" d="M237+492C237+495.7+236.869+493.346+238+499C233+499+233+499+228+499C228+492.04+230.39+492+237+492Z" fill="#a0334c" stroke-linecap="round" opacity="1" stroke-linejoin="round"/>
<path stroke="#220b10" stroke-width="1" d="M328+59C325+59.5+325+59.5+322+60C323.671+56.6575+323.671+53.3425+322+50C325.5+50+325.5+50+329+50C326.393+53.91+328+54.6975+328+59Z" fill="#220b10" stroke-linecap="round" opacity="1" stroke-linejoin="round"/>
<path stroke="#161718" stroke-width="1" d="M67+286C63.4798+287.76+65.1462+286.269+64+292C63+292+63+292+62+292C62+293+62+293+62+294C63+294+63+294+64+294C64+297+64+297+64+300C65+300+65+300+66+300C66+294.969+67+291.097+67+286Z" fill="#161718" stroke-linecap="round" opacity="1" stroke-linejoin="round"/>
<path stroke="#b73a57" stroke-width="1" d="M352+75C352.5+78.5+352.5+78.5+353+82C343.109+82+337.393+75+352+75Z" fill="#b73a57" stroke-linecap="round" opacity="1" stroke-linejoin="round"/>
<path stroke="#192122" stroke-width="1" d="M519+246C519+241.777+518.015+238.015+515+235C517+234+517+234+519+233C521.059+239.178+520.105+234.951+519+246Z" fill="#192122" stroke-linecap="round" opacity="1" stroke-linejoin="round"/>
<path stroke="#a83651" stroke-width="1" d="M314+492C314+495.7+313.869+493.346+315+499C310.5+499+310.5+499+306+499C304.424+491.12+305.99+492+314+492Z" fill="#a83651" stroke-linecap="round" opacity="1" stroke-linejoin="round"/>
<path stroke="#bb3b59" stroke-width="1" d="M300+68C295+68+295+68+290+68C288.667+64+288.667+66+290+62C299.174+62+298.159+60.6351+300+68Z" fill="#bb3b59" stroke-linecap="round" opacity="1" stroke-linejoin="round"/>
<path stroke="#9c324b" stroke-width="1" d="M330+471C330+478.056+325.056+479.056+320+474C323.479+468.781+320.798+471+330+471Z" fill="#9c324b" stroke-linecap="round" opacity="1" stroke-linejoin="round"/>
<path stroke="#41979e" stroke-width="1" d="M390+263C390+261.5+390+261.5+390+260C385.222+260+385.328+263+379+263C383.783+253.433+396.783+259.608+390+263Z" fill="#41979e" stroke-linecap="round" opacity="1" stroke-linejoin="round"/>
<path stroke="#260c12" stroke-width="1" d="M74+187C72+187+72+187+70+187C70+179.277+63.2627+179.363+78+181C73.2+184.6+74+182.333+74+187Z" fill="#260c12" stroke-linecap="round" opacity="1" stroke-linejoin="round"/>
<path stroke="#b23855" stroke-width="1" d="M375+87C375.5+90+375.5+90+376+93C370.006+93+370.125+92.688+367+88C370.434+84.5663+368.07+85.845+375+87Z" fill="#b23855" stroke-linecap="round" opacity="1" stroke-linejoin="round"/>
<path stroke="#b63a57" stroke-width="1" d="M99+393C102.5+393+102.5+393+106+393C107.699+382.805+97.1328+379.93+99+393Z" fill="#b63a57" stroke-linecap="round" opacity="1" stroke-linejoin="round"/>
<path stroke="#9b324b" stroke-width="1" d="M368+486C363.5+486.5+363.5+486.5+359+487C359+478.309+366.225+477.126+368+486Z" fill="#9b324b" stroke-linecap="round" opacity="1" stroke-linejoin="round"/>
<path stroke="#a3364f" stroke-width="1" d="M123+99C123+107.077+123.077+107+115+107C115+102.29+118.338+99+123+99Z" fill="#a3364f" stroke-linecap="round" opacity="1" stroke-linejoin="round"/>
<path stroke="#210a10" stroke-width="1" d="M375+83C371.5+83+371.5+83+368+83C369.55+79.9005+369.55+77.0995+368+74C371.5+74+371.5+74+375+74C372.943+78.1144+372.261+78.892+375+83Z" fill="#210a10" stroke-linecap="round" opacity="1" stroke-linejoin="round"/>
<path stroke="#210e13" stroke-width="1" d="M75+214C72+214+72+214+69+214C70.7844+210.431+70.8288+207.829+68+205C71.5+205+71.5+205+75+205C75+208+75+211+75+214Z" fill="#210e13" stroke-linecap="round" opacity="1" stroke-linejoin="round"/>
<path stroke="#b83a58" stroke-width="1" d="M283+47C283.5+43.5+283.5+43.5+284+40C279.5+40+279.5+40+275+40C275+43+275+43+275+46C279+46.5+279+46.5+283+47Z" fill="#b83a58" stroke-linecap="round" opacity="1" stroke-linejoin="round"/>
<path stroke="#19080c" stroke-width="1" d="M121+118C118+118+118+118+115+118C115+110.255+116.043+113.087+114+109C117.5+109+117.5+109+121+109C121+112+121+115+121+118Z" fill="#19080c" stroke-linecap="round" opacity="1" stroke-linejoin="round"/>
<path stroke="#280d13" stroke-width="1" d="M138+98C141+97.5+141+97.5+144+97C144+104.392+145.995+107+138+107C138+104+138+101+138+98Z" fill="#280d13" stroke-linecap="round" opacity="1" stroke-linejoin="round"/>
<path stroke="#973149" stroke-width="1" d="M75+322C75+318+75+318+75+314C64.2165+311.843+66.0941+320.219+75+322Z" fill="#973149" stroke-linecap="round" opacity="1" stroke-linejoin="round"/>
<path stroke="#a53650" stroke-width="1" d="M68+241C71+241+71+241+74+241C74+248.054+74.6325+245.103+73+250C67.7436+248.686+66.2317+246.305+68+241Z" fill="#a53650" stroke-linecap="round" opacity="1" stroke-linejoin="round"/>
<path stroke="#be3c5b" stroke-width="1" d="M269+68C264+67.5+264+67.5+259+67C259+58.3727+266.682+62.2055+269+68Z" fill="#be3c5b" stroke-linecap="round" opacity="1" stroke-linejoin="round"/>
<path stroke="#2c1017" stroke-width="1" d="M107+133C104.057+137.414+104.764+134.821+106+141C103.5+141.5+103.5+141.5+101+142C101+137+101+137+101+132C104+132.5+104+132.5+107+133Z" fill="#2c1017" stroke-linecap="round" opacity="1" stroke-linejoin="round"/>
<path stroke="#260e14" stroke-width="1" d="M391+86C394+86+394+86+397+86C395.743+89.7711+395.743+92.2289+397+96C394+96+394+96+391+96C391+92.6667+391+89.3333+391+86Z" fill="#260e14" stroke-linecap="round" opacity="1" stroke-linejoin="round"/>
<path stroke="#b03854" stroke-width="1" d="M252+48C253.596+44.8075+253+46.7453+253+42C240.792+40.256+240.981+46.1635+252+48Z" fill="#b03854" stroke-linecap="round" opacity="1" stroke-linejoin="round"/>
<path stroke="#923047" stroke-width="1" d="M391+474C387.211+475.894+389.745+475+383+475C380.915+466.658+389.301+465.505+391+474Z" fill="#923047" stroke-linecap="round" opacity="1" stroke-linejoin="round"/>
<path stroke="#bf3c5b" stroke-width="1" d="M283+63C283.5+65.5+283.5+65.5+284+68C279+68+279+68+274+68C274+60.7466+275.754+61.9649+283+63Z" fill="#bf3c5b" stroke-linecap="round" opacity="1" stroke-linejoin="round"/>
<path stroke="#275256" stroke-width="1" d="M189+141C185.956+136.434+188.42+135.58+192+132C196.806+134.403+191.863+139.092+189+141Z" fill="#275256" stroke-linecap="round" opacity="1" stroke-linejoin="round"/>
<path stroke="#357378" stroke-width="1" d="M386+283C381.11+283+379.096+283.048+375+281C378.337+275.994+386+277.007+386+283Z" fill="#357378" stroke-linecap="round" opacity="1" stroke-linejoin="round"/>
<path stroke="#a3344e" stroke-width="1" d="M329+492C329+495.374+328.838+493.353+330+498C325.5+498+325.5+498+321+498C318.874+491.622+323.863+492+329+492Z" fill="#a3344e" stroke-linecap="round" opacity="1" stroke-linejoin="round"/>
<path stroke="#8f2d44" stroke-width="1" d="M167+100C163.798+103.202+163.367+104+159+104C159+99.6957+163.416+92.8327+167+100Z" fill="#8f2d44" stroke-linecap="round" opacity="1" stroke-linejoin="round"/>
<path stroke="#953048" stroke-width="1" d="M54+338C57+337.5+57+337.5+60+337C64.1822+345.364+57.4955+348.487+54+338Z" fill="#953048" stroke-linecap="round" opacity="1" stroke-linejoin="round"/>
<path stroke="#367e83" stroke-width="1" d="M401+276C401+270.914+400+268.491+400+264C398.5+264.5+398.5+264.5+397+265C397+270.923+393.905+273.635+401+276Z" fill="#367e83" stroke-linecap="round" opacity="1" stroke-linejoin="round"/>
<path stroke="#a4354f" stroke-width="1" d="M130+446C130+448.745+129.702+447.404+131+450C126.388+450+124.149+450.297+122+446C125.491+442.509+123.106+443.702+130+446Z" fill="#a4354f" stroke-linecap="round" opacity="1" stroke-linejoin="round"/>
<path stroke="#060203" stroke-width="1" d="M46+269C44.3854+265.771+45.1808+267.723+44+263C52.5538+260.149+56.5056+266.899+46+269Z" fill="#060203" stroke-linecap="round" opacity="1" stroke-linejoin="round"/>
<path stroke="#441d27" stroke-width="1" d="M60+216C55.2469+216+54.7452+216.127+51+218C51+212.537+60+208.475+60+216Z" fill="#441d27" stroke-linecap="round" opacity="1" stroke-linejoin="round"/>
<path stroke="#172527" stroke-width="1" d="M269+179C266.787+174.574+263.753+174.792+259+174C258.5+175.5+258.5+175.5+258+177C262.956+177+264.361+177.84+269+179Z" fill="#172527" stroke-linecap="round" opacity="1" stroke-linejoin="round"/>
<path stroke="#040708" stroke-width="1" d="M198+390C198.5+389+198.5+389+199+388C205.607+389.652+202.83+387.636+204+397C202.5+397+202.5+397+201+397C201+393.579+201.369+391.684+198+390Z" fill="#040708" stroke-linecap="round" opacity="1" stroke-linejoin="round"/>
<path stroke="#2b0e15" stroke-width="1" d="M415+98C417.5+98+417.5+98+420+98C420.5+102+420.5+102+421+106C418+106.5+418+106.5+415+107C415+104+415+101+415+98Z" fill="#2b0e15" stroke-linecap="round" opacity="1" stroke-linejoin="round"/>
<path stroke="#290f15" stroke-width="1" d="M77+169C79.5+168.5+79.5+168.5+82+168C83.3411+170.682+82+173.696+82+177C79.5+177+79.5+177+77+177C77+174.333+77+171.667+77+169Z" fill="#290f15" stroke-linecap="round" opacity="1" stroke-linejoin="round"/>
<path stroke="#152f31" stroke-width="1" d="M383+253C378.129+251.376+373.871+253.624+369+252C369+251+369+251+369+250C382.054+250+377.205+248.735+384+251C383.5+252+383.5+252+383+253Z" fill="#152f31" stroke-linecap="round" opacity="1" stroke-linejoin="round"/>
<path stroke="#18080c" stroke-width="1" d="M98+409C94+408.5+94+408.5+90+408C90+405.5+90+405.5+90+403C94.4142+405.943+91.8215+404.764+98+406C98+407.5+98+407.5+98+409Z" fill="#18080c" stroke-linecap="round" opacity="1" stroke-linejoin="round"/>
<path stroke="#78273a" stroke-width="1" d="M443+432C443+437.485+439.933+438+435+438C435+432.775+438.424+432.915+443+432Z" fill="#78273a" stroke-linecap="round" opacity="1" stroke-linejoin="round"/>
<path stroke="#a2344e" stroke-width="1" d="M222+497C214.262+495.895+217.108+497.054+213+495C216.493+489.76+220.574+491.297+222+497Z" fill="#a2344e" stroke-linecap="round" opacity="1" stroke-linejoin="round"/>
<path stroke="#a83550" stroke-width="1" d="M314+47C314.5+45.5+314.5+45.5+315+44C310.892+41.9459+313.738+43.1054+306+42C306+48.3528+307.554+47+314+47Z" fill="#a83550" stroke-linecap="round" opacity="1" stroke-linejoin="round"/>
<path stroke="#893247" stroke-width="1" d="M74+351C74+352+74+352+74+353C52.2218+353+56.9169+347.583+74+351Z" fill="#893247" stroke-linecap="round" opacity="1" stroke-linejoin="round"/>
<path stroke="#0f1d1f" stroke-width="1" d="M276+275C267.946+275+271.214+275.738+266+274C266+273+266+273+266+272C271.5+271.5+271.5+271.5+277+271C275.702+273.596+276+272.255+276+275Z" fill="#0f1d1f" stroke-linecap="round" opacity="1" stroke-linejoin="round"/>
<path stroke="#973249" stroke-width="1" d="M47+310C47+306+47+306+47+302C49.5+302+49.5+302+52+302C53.1142+308.685+53.7755+310+47+310Z" fill="#973249" stroke-linecap="round" opacity="1" stroke-linejoin="round"/>
<path stroke="#1e0a0f" stroke-width="1" d="M443+141C440.5+141.5+440.5+141.5+438+142C438+138+438+138+438+134C440.5+133.5+440.5+133.5+443+133C443+135.667+443+138.333+443+141Z" fill="#1e0a0f" stroke-linecap="round" opacity="1" stroke-linejoin="round"/>
<path stroke="#ae3753" stroke-width="1" d="M191+58C192.732+52.8045+194.207+54+200+54C200+60.2474+196.167+58.8611+191+58Z" fill="#ae3753" stroke-linecap="round" opacity="1" stroke-linejoin="round"/>
<path stroke="#9b314a" stroke-width="1" d="M237+473C237+474.5+237+474.5+237+476C229.057+476+231.65+477.65+228+474C229.863+470.275+233.351+472.27+237+473Z" fill="#9b314a" stroke-linecap="round" opacity="1" stroke-linejoin="round"/>
<path stroke="#953048" stroke-width="1" d="M191+459C196.613+459+197.29+458.87+199+464C195.5+464+195.5+464+192+464C191.5+461.5+191.5+461.5+191+459Z" fill="#953048" stroke-linecap="round" opacity="1" stroke-linejoin="round"/>
<path stroke="#973149" stroke-width="1" d="M168+447C173.134+447+173.243+447.864+176+452C172.5+452+172.5+452+169+452C168.5+449.5+168.5+449.5+168+447Z" fill="#973149" stroke-linecap="round" opacity="1" stroke-linejoin="round"/>
<path stroke="#200b0f" stroke-width="1" d="M130+118C132+118+132+118+134+118C134+113.5+134+113.5+134+109C128.249+109+130+112.315+130+118Z" fill="#200b0f" stroke-linecap="round" opacity="1" stroke-linejoin="round"/>
<path stroke="#a0334c" stroke-width="1" d="M237+47C237.5+45+237.5+45+238+43C233.015+43+230.637+42.0876+229+47C231.667+47+234.333+47+237+47Z" fill="#a0334c" stroke-linecap="round" opacity="1" stroke-linejoin="round"/>
<path stroke="#1e0a0e" stroke-width="1" d="M151+95C149+95+149+95+147+95C147+90.5+147+90.5+147+86C149+86+149+86+151+86C151+89.6903+149.805+91.4163+151+95Z" fill="#1e0a0e" stroke-linecap="round" opacity="1" stroke-linejoin="round"/>
<path stroke="#1e0b0f" stroke-width="1" d="M58+211C56+211+56+211+54+211C54+208+54+208+54+205C56.5+205+56.5+205+59+205C59+209.054+59.3162+207.051+58+211Z" fill="#1e0b0f" stroke-linecap="round" opacity="1" stroke-linejoin="round"/>
</g>
</svg>
