<svg height="512" viewBox="0 0 512 512" width="512" xmlns="http://www.w3.org/2000/svg" xmlns:xlink="http://www.w3.org/1999/xlink"><linearGradient id="a" gradientUnits="userSpaceOnUse" x1="23.621" x2="517.214" y1="504.379" y2="10.786" data-name="New Gradient Swatch 1"><stop offset="0" stop-color="#003f8a"/><stop offset=".518" stop-color="#00d7df"/><stop offset="1" stop-color="#006df0"/></linearGradient><path d="m476 104h-76v-88a8 8 0 0 0 -8-8h-64a8 8 0 0 0 -8 8v88h-14.37a75.939 75.939 0 0 0 3.64-10.57 31.826 31.826 0 0 0 -13.28-34.58c-23.48-15.6-23.98-41.78-23.99-42.85a8 8 0 0 0 -12.25-6.78c-1.79 1.12-43.75 27.83-43.75 62.78a81.287 81.287 0 0 0 6.35 32h-14.35v-8a8.081 8.081 0 0 0 -.84-3.58l-40-80a8.009 8.009 0 0 0 -14.32 0l-40 80a8.081 8.081 0 0 0 -.84 3.58v8h-76a28.031 28.031 0 0 0 -28 28v280a28.031 28.031 0 0 0 28 28h160.18l-9.6 24h-42.58a8 8 0 0 0 -8 8v24a8 8 0 0 0 8 8h224a8 8 0 0 0 8-8v-24a8 8 0 0 0 -8-8h-42.58l-9.6-24h160.18a28.031 28.031 0 0 0 28-28v-280a28.031 28.031 0 0 0 -28-28zm-140-80h48v24h-8a8 8 0 0 0 0 16h8v32h-24a8 8 0 0 0 0 16h23.86a7.772 7.772 0 0 0 .14 1.46v30.54h-8a8 8 0 0 0 0 16h8v32h-24a8 8 0 0 0 0 16h24v32h-8a8 8 0 0 0 0 16h8v32h-24a8 8 0 0 0 0 16h24v32h-8a8 8 0 0 0 0 16h8v24h-48zm-40 96h24v256h-31.27l15.24-175.31a7.8 7.8 0 0 0 -.13-2.26l-14.42-72.11a52.27 52.27 0 0 0 6.39-6.33c.06 0 .13.01.19.01zm-37.94-89.63a69.65 69.65 0 0 0 29.07 41.81 15.822 15.822 0 0 1 6.67 17.17c-4.83 18.33-16.81 30.65-29.8 30.65-17.35 0-32-21.98-32-48 0-17.05 15.34-32.75 26.06-41.63zm29.21 177.63-14.6 168h-17.34l-14.6-168zm-45.51-16 11.52-57.58a37.536 37.536 0 0 0 10.72 1.58 36.482 36.482 0 0 0 10.71-1.62l11.53 57.62zm-33.76-72h24c.05 0 .09-.01.13-.01a52.058 52.058 0 0 0 6.43 6.43l-14.4 72.01a7.8 7.8 0 0 0 -.13 2.26l15.24 175.31h-31.27zm-48-86.11 11.06 22.11h-22.12zm-19.06 38.11h38.12l12 24h-62.12zm51.06 40v264h-8v-264zm-40.07 0h16.07v264h-16v-263a8.258 8.258 0 0 0 -.07-1zm-23.93 0h8.07a8.258 8.258 0 0 0 -.07 1v263h-8zm-104 20a12.01 12.01 0 0 1 12-12h76v256h-88zm336 348v8h-208v-8zm-156.18-16 9.6-24h85.16l9.6 24zm284.18-52a12.01 12.01 0 0 1 -12 12h-440a12.01 12.01 0 0 1 -12-12v-20h464zm0-36h-88v-256h76a12.01 12.01 0 0 1 12 12z" fill="url(#a)"/></svg>