<?xml version="1.0" encoding="UTF-8" standalone="no"?> <!-- Created with Vectornator for iOS (http://vectornator.io/) --><!DOCTYPE svg PUBLIC "-//W3C//DTD SVG 1.1//EN" "http://www.w3.org/Graphics/SVG/1.1/DTD/svg11.dtd">
<svg height="100%" style="fill-rule:evenodd;clip-rule:evenodd;stroke-linecap:round;stroke-linejoin:round;" xmlns:xlink="http://www.w3.org/1999/xlink" xmlns="http://www.w3.org/2000/svg" xml:space="preserve" width="100%" xmlns:vectornator="http://vectornator.io" version="1.1" viewBox="0 0 543 550">
<metadata>
<vectornator:setting key="DimensionsVisible" value="1"/>
<vectornator:setting key="PencilOnly" value="0"/>
<vectornator:setting key="SnapToPoints" value="0"/>
<vectornator:setting key="OutlineMode" value="0"/>
<vectornator:setting key="CMYKEnabledKey" value="0"/>
<vectornator:setting key="RulersVisible" value="1"/>
<vectornator:setting key="SnapToEdges" value="0"/>
<vectornator:setting key="GuidesVisible" value="1"/>
<vectornator:setting key="DisplayWhiteBackground" value="0"/>
<vectornator:setting key="doHistoryDisabled" value="0"/>
<vectornator:setting key="SnapToGuides" value="1"/>
<vectornator:setting key="TimeLapseWatermarkDisabled" value="0"/>
<vectornator:setting key="Units" value="Pixels"/>
<vectornator:setting key="DynamicGuides" value="0"/>
<vectornator:setting key="IsolateActiveLayer" value="0"/>
<vectornator:setting key="SnapToGrid" value="0"/>
</metadata>
<defs/>
<g id="Layer 1" vectornator:layerName="Layer 1">
<path stroke="#ab1f40" stroke-width="1" d="M87+390C87+385.3+87.1961+387.981+86+382C80.8795+382+82.3428+379.029+81+375C80+375+80+375+79+375C79+370.946+79.3162+372.949+78+369C77+369+77+369+76+369C76+364.946+76.3162+366.949+75+363C74+363+74+363+73+363C73+356.978+69.8364+354.509+68+349C65.0572+349+66.4714+348.529+64+351C68.9566+358.435+72.0939+368.282+75+377C76+377+76+377+77+377C78.2756+380.827+81.7536+392+86+392C87.2432+395.729+88.2686+396.194+87+400C83.2248+392.45+78.0105+386.021+74+378C69.95+380.025+69.8469+380.388+71+385C72+385+72+385+73+385C73+386.5+73+386.5+73+388C74+388+74+388+75+388C75+389.5+75+389.5+75+391C76+391+76+391+77+391C77+395.054+76.6838+393.051+78+397C79+397+79+397+80+397C80+398.5+80+398.5+80+400C81+400+81+400+82+400C82+401.5+82+401.5+82+403C84.5+403+84.5+403+87+403C87+407.358+87.6718+414+93+414C93+415.5+93+415.5+93+417C94+417+94+417+95+417C95+418+95+418+95+419C96+419+96+419+97+419C97+420.5+97+420.5+97+422C98+422+98+422+99+422C99+423.5+99+423.5+99+425C96+425+96+425+93+425C93.5+423.5+93.5+423.5+94+422C92.5+422+92.5+422+91+422C91+421+91+421+91+420C89.5+420.5+89.5+420.5+88+421C89.2981+418.404+89+419.745+89+417C87.5+417.5+87.5+417.5+86+418C87.2981+415.404+87+416.745+87+414C85.5+414+85.5+414+84+414C84.5+412.5+84.5+412.5+85+411C83.5+411+83.5+411+82+411C82+410+82+410+82+409C81+409+81+409+80+409C80+407.5+80+407.5+80+406C78.5+406+78.5+406+77+406C77.5+404.5+77.5+404.5+78+403C76.5+403+76.5+403+75+403C75.5+401.5+75.5+401.5+76+400C74.5+400+74.5+400+73+400C73.5+398.5+73.5+398.5+74+397C72.5+397+72.5+397+71+397C71.5+395.5+71.5+395.5+72+394C70.5+394+70.5+394+69+394C71.9428+391.057+71+392.943+71+388C67.9459+388+69.6325+388.211+66+387C66.5+385.5+66.5+385.5+67+384C65.5+384+65.5+384+64+384C64.5+382.5+64.5+382.5+65+381C63.5+381+63.5+381+62+381C62.5+379+62.5+379+63+377C62+377+62+377+61+377C61.5+375.5+61.5+375.5+62+374C56.9234+374+58+371.916+58+367C57+367+57+367+56+367C56.5+365.5+56.5+365.5+57+364C55.5+364+55.5+364+54+364C54.5+362.5+54.5+362.5+55+361C54+361+54+361+53+361C53.5+359+53.5+359+54+357C53+357+53+357+52+357C50.8012+353.403+52+353.379+52+350C51+350+51+350+50+350C50+348.5+50+348.5+50+347C49+347+49+347+48+347C49+345.5+49+345.5+50+344C46.3675+339.157+46.473+341.581+48+337C47+336.5+47+336.5+46+336C46.5+334.5+46.5+334.5+47+333C46+333+46+333+45+333C46.2981+330.404+46+331.745+46+329C45+329+45+329+44+329C45.4714+324.586+42.5286+323.414+44+319C42.5+319+42.5+319+41+319C41+318+41+318+41+317C33.9188+317+38.853+313.441+40+310C39+310+39+310+38+310C38.5+309+38.5+309+39+308C37+307.5+37+307.5+35+307C36+306.5+36+306.5+37+306C36.3333+304.667+35.6667+303.333+35+302C29.5313+302.781+28.5241+305+25+305C25+310.943+23.8215+308.821+27+312C24.1433+313.428+24.1433+314.572+27+316C23.925+317.537+25.4134+316.38+23+320C24+320.5+24+320.5+25+321C23.7019+323.596+24+322.255+24+325C25+325+25+325+26+325C25+326.5+25+326.5+24+328C25.5+328+25.5+328+27+328C27+330.745+27.2981+329.404+26+332C27+332+27+332+28+332C28+334.745+28.5963+333.702+26+335C27.5+335.5+27.5+335.5+29+336C28.5+337.5+28.5+337.5+28+339C29+339.5+29+339.5+30+340C29+341.5+29+341.5+28+343C30.8944+344.447+30+343.255+30+347C31+347+31+347+32+347C32+349.745+32.2981+348.404+31+351C32+351+32+351+33+351C33+353.745+33.2981+352.404+32+355C33+355+33+355+34+355C34+356.5+34+356.5+34+358C35+358+35+358+36+358C36+362.08+40.2222+360.778+36+365C37.5+365.5+37.5+365.5+39+366C37.6051+370.185+38.4397+372+43+372C43+374.943+43.4714+373.529+41+376C43+376+43+376+45+376C43.5+378+43.5+378+42+380C43.5+380+43.5+380+45+380C45+381+45+381+45+382C46.5+382.5+46.5+382.5+48+383C47+384.5+47+384.5+46+386C48.8944+387.447+48+386.255+48+390C49.5+390+49.5+390+51+390C51+392.943+51.4714+391.529+49+394C50.5+394+50.5+394+52+394C52+397.785+55.234+396.532+53+401C54+401+54+401+55+401C55+402.5+55+402.5+55+404C56.5+404+56.5+404+58+404C58+406.943+58.4714+405.529+56+408C57.5+408+57.5+408+59+408C59+409.5+59+409.5+59+411C60.5+411+60.5+411+62+411C60.7019+413.596+61+412.255+61+415C62+415+62+415+63+415C63+416.5+63+416.5+63+418C64+418+64+418+65+418C65+419.5+65+419.5+65+421C66.5+421+66.5+421+68+421C68+425.373+70.9273+425.145+68+431C69+431+69+431+70+431C71.2556+436.023+70.5654+433.696+72+438C70.5+438+70.5+438+69+438C69+436+69+436+69+434C68+434+68+434+67+434C67+432.5+67+432.5+67+431C66+431+66+431+65+431C65+429.5+65+429.5+65+428C63.5+428+63.5+428+62+428C62+426.5+62+426.5+62+425C61+425+61+425+60+425C60+423.5+60+423.5+60+422C59+422+59+422+58+422C58+420+58+420+58+418C53.2546+418+54.5963+416.807+53+420C52.5+418.5+52.5+418.5+52+417C51+417+51+417+50+417C48.5654+412.696+49.2556+415.023+48+410C47+410+47+410+46+410C46+405.643+45.9057+408.66+47+401C44.5706+402.215+42.9581+406.126+42+409C35.1868+405.593+40.8527+395.736+42+390C41+390+41+390+40+390C40+388.5+40+388.5+40+387C37.018+387+36.1062+386.106+34+384C33.5+389+33.5+389+33+394C31.8164+380.981+32.6053+386.632+31+377C30.5+378+30.5+378+30+379C28.5654+374.696+29.2556+377.023+28+372C27.5+376.5+27.5+376.5+27+381C22.83+372.66+26.5721+363.144+22+354C21.5+360+21.5+360+21+366C20.5+363+20.5+363+20+360C19+360+19+360+18+360C18+348.919+10.3347+338.213+10+327C9.37333+306.007+9.33333+285+9+264C10.0053+267.016+11.6313+268.263+13+271C13+259.762+9+249.582+9+238C9+231.555+17+229.063+17+223C16+223+16+223+15+223C14.2278+209.872+13.5259+206.422+17+196C18.2259+203.356+17.5082+200.033+19+206C22.7022+198.596+15.846+182.577+25+178C23.6223+175.245+24.6854+174.629+26+172C26.5+176+26.5+176+27+180C28.2923+173.538+27.2399+176.52+30+171C30.5+172+30.5+172+31+173C31+166.067+34+160.984+34+155C34.5+156.5+34.5+156.5+35+158C38.4412+156.279+37.4328+151.97+38+148C38.5+149.5+38.5+149.5+39+151C40+150.5+40+150.5+41+150C41+152+41+152+41+154C42+154+42+154+43+154C43+151.805+45.7439+147.512+47+145C48+146+48+146+49+147C49+144.255+48.4037+145.298+51+144C49.2581+138.774+54+137.988+54+133C56+132.5+56+132.5+58+132C58+126.388+66+122.219+66+116C72.4776+113.841+78.9167+105.167+82+99C81+99+81+99+80+99C81.8675+95.2649+86.0744+90.3085+90+89C90+84.819+90.819+84+95+84C95+80.3428+96.6443+80+100+80C100+78.5+100+78.5+100+77C99+77+99+77+98+77C103.69+75.1034+107.042+73+113+73C113+71+113+71+113+69C116.38+67.8733+117+67.5208+117+64C116+64+116+64+115+64C124.02+62.7115+126.674+58.1658+136+57C136+56+136+56+136+55C131.972+55+134.658+55.1096+128+54C133.475+51.2623+137.551+46+144+46C143+45.5+143+45.5+142+45C149.488+44.3193+157.459+44.0814+161+37C158.5+37+158.5+37+156+37C160.047+28.9067+177.465+36.5352+185+29C180+28.5+180+28.5+175+28C181.186+24.9068+184.94+25.62+193+25C189.5+24.5+189.5+24.5+186+24C255.842+0.719263+329.939+6.46958+395+39C389.5+40+389.5+40+384+41C392.492+42.4153+400.286+42.1431+408+46C406.542+48.9156+403.967+48.0223+401+50C403+50.5+403+50.5+405+51C405+52+405+52+405+53C406.5+53+406.5+53+408+53C408+56.3583+406+54.6417+406+58C411.347+58+415.314+55.8763+420+59C419+59.5+419+59.5+418+60C424.127+60.8753+427.397+61.7588+433+64C430.106+65.4472+431.745+65+428+65C427.5+66.5+427.5+66.5+427+68C435.943+68+433.114+66.1144+437+70C436+70.5+436+70.5+435+71C436.5+71.5+436.5+71.5+438+72C438+75.0541+437.789+73.3676+439+77C442.5+77+442.5+77+446+77C446+79.9428+446.471+78.5286+444+81C445.5+81.5+445.5+81.5+447+82C447+83+447+83+447+84C448.5+84+448.5+84+450+84C450+85.5+450+85.5+450+87C452.5+87+452.5+87+455+87C455+89.5+455+89.5+455+92C457.5+92+457.5+92+460+92C460+93.5+460+93.5+460+95C461.5+95+461.5+95+463+95C463+97.9428+463.471+96.5286+461+99C463.555+102.832+461.798+102+466+102C466+103.5+466+103.5+466+105C467+105+467+105+468+105C468+107.5+468+107.5+468+110C470+110+470+110+472+110C472+112.5+472+112.5+472+115C473.5+115+473.5+115+475+115C475+116.5+475+116.5+475+118C478.556+118+479+118.335+479+122C483.583+122+488.949+132.797+490+137C481.847+139.718+439+135.513+439+122C434.696+120.565+436.256+122.023+435+117C432.057+117+433.471+116.529+431+119C435.896+123.896+440.262+128.048+442+135C437.266+135+434.496+130.488+433+126C429.586+126+429.707+122.236+426+121C426+120+426+120+426+119C420.574+119+419.652+109+413+109C413+104.429+398.399+97.0999+394+96C393.5+97+393.5+97+393+98C394.5+98+394.5+98+396+98C396+99+396+99+396+100C397.5+100+397.5+100+399+100C399+101+399+101+399+102C400.5+102+400.5+102+402+102C402+103+402+103+402+104C403+104+403+104+404+104C404+105+404+105+404+106C406.5+106+406.5+106+409+106C409+112.313+415+108.07+415+115C416.5+115+416.5+115+418+115C418+116+418+116+418+117C419+117+419+117+420+117C420+119.48+422.52+122+425+122C425+124.48+427.52+127+430+127C430+128+430+128+430+129C431+129+431+129+432+129C432+130.5+432+130.5+432+132C435.608+132+441+139.548+441+143C447.202+143+444.613+142.075+449+145C440.76+157.361+403.982+146.132+402+146C399.931+145.862+399.736+144.471+399+143C396.255+145.745+397.894+145.298+394+144C394+141.5+394+141.5+394+139C392+139+392+139+390+139C389.5+137.5+389.5+137.5+389+136C387.5+136+387.5+136+386+136C386+133.26+385.976+132+383+132C383+130.5+383+130.5+383+129C379.946+129+381.632+129.211+378+128C378+127+378+127+378+126C375.26+126+374+125.976+374+123C372.5+123+372.5+123+371+123C371+122+371+122+371+121C366.529+119.882+363.659+118.553+359+117C359+110.582+339.127+107.051+334+105C310.168+95.4674+282.986+99.3059+258+100C269+99.5+269+99.5+280+99C261.478+98.6141+232.604+95.1321+212+102C222.5+102.5+222.5+102.5+233+103C224.859+107.07+216.362+102.213+208+105C214.5+105.5+214.5+105.5+221+106C215.808+108.596+192.866+113+187+113C186.5+114.5+186.5+114.5+186+116C180.552+116+175.433+116.267+174+122C169.896+122+164+127.214+164+131C160.255+131+161.894+131.447+159+130C157.553+132.894+158.745+132+155+132C154.5+134+154.5+134+154+136C152.5+136+152.5+136+151+136C149.48+140.56+146+139.185+146+144C143.255+144+144.596+144.298+142+143C141+144+141+144+140+145C142+145+142+145+144+145C144+146.5+144+146.5+144+148C138.44+148+138.822+152.356+137+156C136.5+155+136.5+155+136+154C133.794+158.412+130+156.392+130+163C126.436+163+126.805+165.781+126+169C125.5+168+125.5+168+125+167C120.365+173.952+121+167.422+121+180C120.5+177.5+120.5+177.5+120+175C114.198+177.901+114.652+187.135+114+193C113.5+189+113.5+189+113+185C105.152+200.697+103+206.16+103+227C99.2929+225.764+100.471+226.943+99+224C93.8912+249.544+93.7333+274.866+97+301C96.5+299.5+96.5+299.5+96+298C95.627+307.326+93.0485+317.146+96+326C96.5+315+96.5+315+97+304C101.401+321.605+97.3296+339.994+108+356C108.5+355+108.5+355+109+354C109+359.488+110.926+362.632+112+368C114+368+114+368+116+368C116+371.123+116.331+375+120+375C120+376.5+120+376.5+120+378C124.359+378+129.413+391.478+130+395C128+395.5+128+395.5+126+396C126.5+395+126.5+395+127+394C126+394+126+394+125+394C125+387.33+120.748+384.313+114+386C114+384.5+114+384.5+114+383C113+383+113+383+112+383C112+382+112+382+112+381C111+381+111+381+110+381C108.667+377+108.667+379+110+375C109+375+109+375+108+375C108+374+108+374+108+373C106.5+373+106.5+373+105+373C105.5+371.5+105.5+371.5+106+370C105+370+105+370+104+370C104+369+104+369+104+368C103+368+103+368+102+368C102.5+366.5+102.5+366.5+103+365C102+365+102+365+101+365C101+364+101+364+101+363C100+363+100+363+99+363C99.5+361.5+99.5+361.5+100+360C99+360+99+360+98+360C98.5+358.5+98.5+358.5+99+357C97.5+357+97.5+357+96+357C96.5+356+96.5+356+97+355C95.5+355+95.5+355+94+355C94.5+353.5+94.5+353.5+95+352C94+352+94+352+93+352C93.5+350.5+93.5+350.5+94+349C93+349+93+349+92+349C93+348+93+348+94+347C92.5+346.5+92.5+346.5+91+346C91.5+345+91.5+345+92+344C91+344+91+344+90+344C90+342.5+90+342.5+90+341C88.5+341+88.5+341+87+341C89.5963+339.702+89+340.745+89+338C87.5+338+87.5+338+86+338C88.5963+336.702+88+337.745+88+335C86.5+335+86.5+335+85+335C87.5963+333.702+87+334.745+87+332C85.5+332+85.5+332+84+332C84.5+330.5+84.5+330.5+85+329C84+329+84+329+83+329C85.6667+327.667+84.6667+328.667+86+326C83.5+326+83.5+326+81+326C84.7071+324.764+83.5286+325.943+85+323C82.5+323+82.5+323+80+323C83.7071+321.764+82.5286+322.943+84+320C81.5+320+81.5+320+79+320C82.7071+318.764+81.5286+319.943+83+317C77.0572+317+79.1785+315.821+76+319C77+319.5+77+319.5+78+320C76.7019+322.596+77.7454+322+75+322C77+322.5+77+322.5+79+323C77.2546+326.491+75.7454+323.509+74+327C75.5+327.5+75.5+327.5+77+328C75.5+329+75.5+329+74+330C76+330+76+330+78+330C77+331.5+77+331.5+76+333C77.5+333+77.5+333+79+333C77.3851+336.23+76.6149+333.77+75+337C76.5+337+76.5+337+78+337C77.5+338+77.5+338+77+339C78+339+78+339+79+339C79+341.943+79.4714+340.529+77+343C79+343.5+79+343.5+81+344C79.5+345+79.5+345+78+346C80+346+80+346+82+346C81+347.5+81+347.5+80+349C81.5+349+81.5+349+83+349C82+350.5+82+350.5+81+352C82.5+352+82.5+352+84+352C83+353.5+83+353.5+82+355C83.5+355+83.5+355+85+355C84+356.5+84+356.5+83+358C84.5+358+84.5+358+86+358C84.4934+362.52+85.7954+364.898+90+367C89+368.5+89+368.5+88+370C89.5+370+89.5+370+91+370C89.7019+373.894+89.2547+372.255+92+375C84.7745+376.806+87+383.601+87+390Z" fill="#ab1f40" stroke-linecap="round" opacity="1" stroke-linejoin="round"/>
<path stroke="#a31e3d" stroke-width="1" d="M127+378C127.914+380.743+129.086+383.257+130+386C133.223+386+135.019+390.056+136+393C137+393+137+393+138+393C138+394+138+394+138+395C142.086+395+142.352+400.76+143+404C146.253+404+153+406.092+153+410C154+410+154+410+155+410C155+411+155+411+155+412C156.5+412+156.5+412+158+412C158+413+158+413+158+414C159+414+159+414+160+414C160+415+160+415+160+416C161.5+416+161.5+416+163+416C162.5+417+162.5+417+162+418C223.143+438.381+277.256+464.581+345+442C345+441+345+441+345+440C341+440+341+440+337+440C342.456+434.544+349.741+434.452+357+433C356+432.5+356+432.5+355+432C361.979+429.674+366.453+424+374+424C373+423.5+373+423.5+372+423C380+417.667+373.8+421.067+393+420C387.516+414.516+389.449+416.161+379+415C382.957+413.021+397.306+407.388+393+416C396+416+396+416+399+416C399+417+399+417+399+418C420+418+420+418+441+418C441+419+441+419+441+420C442+419.5+442+419.5+443+419C443+420+443+420+443+421C468.033+421+478.865+415.534+501+410C501+416.35+492.893+424.214+490+430C489.5+427+489.5+427+489+424C478.644+434.356+477.38+450.81+463+458C466.325+464.65+454.064+470+449+470C447.522+474.433+441.019+481+436+481C436+502.856+332.382+540+312+540C287.331+540+262.669+539+238+539C229.048+539+222.76+538.947+214+537C205.79+535.176+152+523.079+152+513C148.26+513+139+510.187+139+506C136.346+506+134.352+505.176+132+504C135.5+503.5+135.5+503.5+139+503C134+502.5+134+502.5+129+502C130.447+499.106+129.255+500+133+500C128.544+499.363+113+494.598+113+489C115+489+115+489+117+489C115.5+488.5+115.5+488.5+114+488C114+487+114+487+114+486C112.5+486+112.5+486+111+486C111+482.794+107.977+481+105+481C105+480+105+480+105+479C99.6735+479+99+479.524+99+474C96.468+474+94.0829+471.028+91+470C93.8944+468.553+93+469.745+93+466C91.5+466+91.5+466+90+466C90+465+90+465+90+464C87.1567+465.422+88.5271+464.473+86+467C80.2661+461.266+67.7654+451.062+66+444C65+444+65+444+64+444C62.9704+440.911+60.2742+435+57+435C57+430.799+43.6815+418+58+418C58+420+58+420+58+422C59+422+59+422+60+422C60+423.5+60+423.5+60+425C61+425+61+425+62+425C62+426.5+62+426.5+62+428C63.5+428+63.5+428+65+428C65+429.5+65+429.5+65+431C66+431+66+431+67+431C67+432.5+67+432.5+67+434C68+434+68+434+69+434C69+436+69+436+69+438C70.5+438+70.5+438+72+438C70.2399+434.48+71.1462+436.731+70+431C69+431+69+431+68+431C69.1747+428.651+69.148+426.556+70+424C68.5+424+68.5+424+67+424C67.5+422.5+67.5+422.5+68+421C66.5+421+66.5+421+65+421C65+419.5+65+419.5+65+418C64+418+64+418+63+418C63+416.5+63+416.5+63+415C62+415+62+415+61+415C61+412.255+60.7019+413.596+62+411C60.5+411+60.5+411+59+411C59+409.5+59+409.5+59+408C57.5+408+57.5+408+56+408C58.4714+405.529+58+406.943+58+404C56.5+404+56.5+404+55+404C55+402.5+55+402.5+55+401C54+401+54+401+53+401C54.2981+398.404+54+399.745+54+397C52.5+397+52.5+397+51+397C51.5+395.5+51.5+395.5+52+394C50.5+394+50.5+394+49+394C51.4714+391.529+51+392.943+51+390C49.5+390+49.5+390+48+390C48+388.5+48+388.5+48+387C47+387+47+387+46+387C47+385.5+47+385.5+48+384C46+383.5+46+383.5+44+383C44.5+381.5+44.5+381.5+45+380C43.5+380+43.5+380+42+380C43.5+378.5+43.5+378.5+45+377C43+376.5+43+376.5+41+376C43.4714+373.529+43+374.943+43+372C38.7638+372+39+371.017+39+367C37.5+366.5+37.5+366.5+36+366C38.3698+362.445+38+364.202+38+361C36.5+361+36.5+361+35+361C35.5+359.5+35.5+359.5+36+358C35+358+35+358+34+358C34+356.5+34+356.5+34+355C33+355+33+355+32+355C33.2981+352.404+33+353.745+33+351C32+351+32+351+31+351C32.2981+348.404+32+349.745+32+347C31+347+31+347+30+347C30.5+345.5+30.5+345.5+31+344C29.5+343.5+29.5+343.5+28+343C29+342+29+342+30+341C29+340+29+340+28+339C28.5+338+28.5+338+29+337C27.5+336.5+27.5+336.5+26+336C26.6667+334.667+27.3333+333.333+28+332C27+332+27+332+26+332C27.2981+329.404+27+330.745+27+328C25.5+328+25.5+328+24+328C25+327+25+327+26+326C23.1189+324.559+23.6512+323.698+25+321C24+321+24+321+23+321C25.523+317.216+24.1502+318.85+27+316C26+314.5+26+314.5+25+313C26+312.5+26+312.5+27+312C24.0282+309.028+25.2287+310.915+24+306C30.521+303.826+25.3522+303.378+35+302C35.6667+303.333+36.3333+304.667+37+306C36+306.5+36+306.5+35+307C37+307+37+307+39+307C38.5+308+38.5+308+38+309C42.3268+311.163+38.096+312.712+37+316C39.7403+316+41+316.024+41+319C42.5+319+42.5+319+44+319C42.6862+322.941+43.0659+328.066+46+331C45.5+332+45.5+332+45+333C46+333+46+333+47+333C46.5+334.5+46.5+334.5+46+336C47+336.5+47+336.5+48+337C46.4687+341.594+49.2698+341.921+48+347C49+347+49+347+50+347C50+348.5+50+348.5+50+350C51+350+51+350+52+350C52+353.379+50.8012+353.403+52+357C53+357+53+357+54+357C52.8469+361.612+52.95+361.975+57+364C55.4318+368.705+56.3602+374+62+374C59.2677+382.197+76.0431+386.957+69+394C70.5+394+70.5+394+72+394C72+399.823+80+402.703+80+409C81+409+81+409+82+409C82+410+82+410+82+411C83.5+411+83.5+411+85+411C85+414.785+88.234+413.532+86+418C87+417.5+87+417.5+88+417C89.3333+419.667+89.3333+418.333+88+421C89+420.5+89+420.5+90+420C91.4472+422.894+90.2546+422+94+422C94+423+94+423+94+424C96.5+424.5+96.5+424.5+99+425C99+423.5+99+423.5+99+422C98+422+98+422+97+422C97+420.5+97+420.5+97+419C96+419+96+419+95+419C95+418+95+418+95+417C94+417+94+417+93+417C93+415.5+93+415.5+93+414C87.5919+414+87.8451+407.226+87+403C84.5+403+84.5+403+82+403C82+401.5+82+401.5+82+400C81+400+81+400+80+400C80+398.5+80+398.5+80+397C79+397+79+397+78+397C78+392.946+78.3162+394.949+77+391C76+391+76+391+75+391C75+389.5+75+389.5+75+388C74+388+74+388+73+388C73+386.5+73+386.5+73+385C72+385+72+385+71+385C69.9944+380.978+69.283+379.859+73+378C83.9907+399.981+109.303+441.768+134+450C134+456.351+156.558+467.093+162+468C162+464.753+159.895+464.965+157+464C158.954+460.092+157.046+457+153+457C153+456+153+456+153+455C151.5+455+151.5+455+150+455C150+454+150+454+150+453C138.45+453+116.67+438.01+113+427C112+427+112+427+111+427C111+424.054+95.8348+407+94+407C94+400.367+88.2878+384.727+87+377C92.0226+375.744+90.5654+377.304+92+373C91+373+91+373+90+373C90.5+371.5+90.5+371.5+91+370C89.5+370+89.5+370+88+370C89+369+89+369+90+368C88.5+367.5+88.5+367.5+87+367C87.5+365.5+87.5+365.5+88+364C87+364+87+364+86+364C86.5+362.5+86.5+362.5+87+361C86+361+86+361+85+361C85.5+359.5+85.5+359.5+86+358C84.5+358+84.5+358+83+358C84+357+84+357+85+356C83.5+355.5+83.5+355.5+82+355C83+354+83+354+84+353C82.5+352.5+82.5+352.5+81+352C82+351+82+351+83+350C81.5+349.5+81.5+349.5+80+349C81+348+81+348+82+347C80+346.5+80+346.5+78+346C79.5+345+79.5+345+81+344C79+343.5+79+343.5+77+343C79.4714+340.529+79+341.943+79+339C78+339+78+339+77+339C77.5+338+77.5+338+78+337C76.5+337+76.5+337+75+337C76.6149+333.77+77.3851+336.23+79+333C77.5+333+77.5+333+76+333C77+332+77+332+78+331C76+330.5+76+330.5+74+330C75.5+329+75.5+329+77+328C75.5+327.5+75.5+327.5+74+327C75.7454+323.509+77.2546+326.491+79+323C76.5+323+76.5+323+74+323C77.7071+321.764+76.5286+322.943+78+320C77+320+77+320+76+320C78.9245+315.613+76.7981+317+83+317C81.7019+319.596+82.7454+319+80+319C82+319.5+82+319.5+84+320C82.7019+322.596+83.7454+322+81+322C83+322.5+83+322.5+85+323C83.7019+325.596+84.7454+325+82+325C84+325.5+84+325.5+86+326C84.6667+328.667+85.6667+327.667+83+329C84+329+84+329+85+329C85+332.204+89.5578+332.721+85+335C86.5+335+86.5+335+88+335C88+337.745+88.5963+336.702+86+338C87.5+338+87.5+338+89+338C89+340.745+89.5963+339.702+87+341C88.5+341+88.5+341+90+341C90+342.5+90+342.5+90+344C91+344+91+344+92+344C91.5+345+91.5+345+91+346C92.5+346+92.5+346+94+346C93+347.5+93+347.5+92+349C93+349+93+349+94+349C92.7027+352.892+93.5233+353.262+97+355C96.5+356+96.5+356+96+357C97.5+357+97.5+357+99+357C97.7537+360.739+98.1839+365+103+365C101.862+368.415+102.071+370+106+370C106+373.358+108+371.642+108+375C109+375+109+375+110+375C108.667+379+108.667+377+110+381C111+381+111+381+112+381C112+382+112+382+112+383C113+383+113+383+114+383C114+384.5+114+384.5+114+386C118.391+386+120.914+388+124+388C124+391.374+123.838+389.353+125+394C126+394+126+394+127+394C126.5+395+126.5+395+126+396C127.5+396+127.5+396+129+396C129+388.946+129.632+391.897+128+387C127+387+127+387+126+387C126+382.972+126.11+385.658+125+379C126+378.5+126+378.5+127+378Z" fill="#a31e3d" stroke-linecap="round" opacity="1" stroke-linejoin="round"/>
<path stroke="#76162c" stroke-width="1" d="M503+147C476.309+146.166+474.522+144.29+454+146C458.216+150.216+462.565+157.261+464+163C442.502+152.251+422.543+157.22+400+154C390.499+152.643+377.043+132.022+367+127C342.806+114.903+319.044+103.804+291+101C320.898+86.0509+348.565+115.391+371+121C371+122+371+122+371+123C372.5+123+372.5+123+374+123C374+124+374+124+374+125C376.74+125+378+125.024+378+128C382.017+128+383+127.764+383+132C384+132+384+132+385+132C385+134.745+384.702+133.404+386+136C387.5+135.5+387.5+135.5+389+135C389.5+137+389.5+137+390+139C392+139+392+139+394+139C394+144.633+394.022+146.319+399+143C405.883+156.766+429.624+146.317+445+147C450.045+147.224+443.203+150.531+450+146C448.447+142.895+444.454+143.691+441+143C441+138.663+436.51+136.531+435+132C433.5+132+433.5+132+432+132C432+130.5+432+130.5+432+129C431+129+431+129+430+129C430+128+430+128+430+127C427.52+127+425+124.48+425+122C422.52+122+420+119.48+420+117C419+117+419+117+418+117C418+116+418+116+418+115C416.5+115+416.5+115+415+115C415.5+113.5+415.5+113.5+416+112C414+111.333+412+110.667+410+110C410+105.299+408.936+106+404+106C404+105+404+105+404+104C403+104+403+104+402+104C402+103+402+103+402+102C400.5+102+400.5+102+399+102C399+101+399+101+399+100C397.5+100+397.5+100+396+100C396+99+396+99+396+98C394.5+98+394.5+98+393+98C393.5+97+393.5+97+394+96C398.954+97.2385+413+103.945+413+109C415+109+415+109+417+109C417+113.58+422.614+114.843+424+119C425+119+425+119+426+119C426+122.414+429.764+122.293+431+126C436.028+126+435.321+135+442+135C442+129.399+436.141+122.57+431+120C433.37+116.445+431.798+117+435+117C436.256+122.023+434.696+120.565+439+122C439+124+439+124+439+126C453.372+129.593+472.286+143.571+489+138C489+130.045+483.178+128.535+481+122C480+122+480+122+479+122C479+120.5+479+120.5+479+119C475.444+119+475+118.665+475+115C473.5+115+473.5+115+472+115C472+112.5+472+112.5+472+110C470+110+470+110+468+110C468+107.5+468+107.5+468+105C467+105+467+105+466+105C466+103.5+466+103.5+466+102C461.271+102+461.043+98.914+463+95C461.5+95+461.5+95+460+95C460+93.5+460+93.5+460+92C457.5+92+457.5+92+455+92C455+89.5+455+89.5+455+87C452.5+87+452.5+87+450+87C450+85.5+450+85.5+450+84C448.5+84+448.5+84+447+84C447+81.2546+447.596+82.2982+445+81C452.064+66.8725+499.77+134.081+503+147Z" fill="#76162c" stroke-linecap="round" opacity="1" stroke-linejoin="round"/>
<path stroke="#367b7f" stroke-width="1" d="M211+392C211+391+211+391+211+390C207.5+390+207.5+390+204+390C205.992+386.016+211.524+388.952+214+384C212.5+384+212.5+384+211+384C211+383+211+383+211+382C192.946+382+199.376+383.792+191+381C189.764+384.707+190.943+383.529+188+385C194.184+388.092+201.455+391.065+208+392C206+392.5+206+392.5+204+393C204+394+204+394+204+395C205.5+395.5+205.5+395.5+207+396C207+397+207+397+207+398C200.289+395.763+187.677+400.355+184+393C180.807+394.596+182.745+394+178+394C177.5+390.5+177.5+390.5+177+387C175.667+387.667+174.333+388.333+173+389C173+382.414+180.044+383.087+176+375C172.1+378.9+174.936+376.883+166+378C166+375.5+166+375.5+166+373C152.3+373+157.922+372.216+149+374C149+372+149+372+149+370C164.941+368.937+160.457+372.543+166+367C161.383+357.767+157.576+353.718+149+348C150.5+347+150.5+347+152+346C154.26+350.521+162.162+357.162+166+361C171.743+355.257+167+361.004+167+344C167+331.647+175.379+332.052+152+334C152+331.128+151.729+329.541+153+327C148.723+330.208+149.738+334.421+145+336C145+324.406+150.899+318.151+157+309C158.236+312.707+158.471+311.057+157+314C162.077+314+161+311.916+161+307C156.561+307+150+308.621+150+314C149.5+313+149.5+313+149+312C146.404+313.298+147.745+313+145+313C145+309.357+146.306+304.694+149+302C147.5+301.5+147.5+301.5+146+301C153.894+299.026+148.63+300.114+162+299C161.5+298+161.5+298+161+297C163.471+294.529+162.057+295+165+295C165.5+296.5+165.5+296.5+166+298C168.686+292.628+193.797+293.266+199+295C199+296.5+199+296.5+199+298C200+298+200+298+201+298C201.5+292.5+201.5+292.5+202+287C202.497+290.974+201.801+297.901+206+300C208.818+295.773+207.013+294.065+206+289C208.943+287.529+207.293+288.236+211+287C207.837+285.418+204.504+278.993+206+276C208.391+283.172+212.05+285.683+219+288C218.5+289+218.5+289+218+290C219+290+219+290+220+290C219.5+291+219.5+291+219+292C222.386+292+231.45+298.09+236+299C232.211+300.894+234+299.255+234+306C239.5+306+239.5+306+245+306C243.463+310.612+243.793+307.966+245+314C252.5+314+252.5+314+260+314C250.259+315.082+252.35+312.3+250+317C253+317+253+317+256+317C253.5+317.5+253.5+317.5+251+318C254.229+319.615+252.277+318.819+257+320C257+329.804+241+337.624+241+342C241+349.379+255.4+345.7+262+349C261+350+261+350+260+351C253.314+337.628+236+346.971+236+359C242.876+359+245.51+355+252+355C252+356+252+356+252+357C250+357+250+357+248+357C250.943+358.471+249.293+357.764+253+359C249.106+360.298+250.745+359.255+248+362C249.5+362+249.5+362+251+362C251+371.079+231.849+371.731+226+371C227.745+367.509+226.255+369+232+369C228.5+368.5+228.5+368.5+225+368C225+367+225+367+225+366C223.702+368.596+224.745+368+222+368C222+363.921+221.995+362.335+226+361C214.716+357.239+221.074+371.572+232+374C228.48+375.76+230.731+374.854+225+376C229.5+376.5+229.5+376.5+234+377C234+378+234+378+234+379C222.043+379+209.307+374.923+197+378C205.359+378.76+214.038+378.346+222+381C222+385.89+215.245+390.585+211+392Z" fill="#367b7f" stroke-linecap="round" opacity="1" stroke-linejoin="round"/>
<path stroke="#3e8180" stroke-width="1" d="M149+218C150.52+214.96+149.295+214.295+147+212C152.365+203.952+145.855+195.709+142+188C143+187.5+143+187.5+144+187C145+188+145+188+146+189C147+187+147+187+148+185C156.214+226.068+172.175+186.565+180+185C197.99+181.402+205.41+193.453+217+178C221.84+182.84+218.065+188.13+221+194C223.596+192.702+222.255+193+225+193C220.245+190.623+221.036+177.482+226+175C224+174.5+224+174.5+222+174C224.872+171.128+226.729+169.812+228+166C229.5+166+229.5+166+231+166C231+167.5+231+167.5+231+169C233+168+233+168+235+167C236.435+171.304+236.256+168.977+235+174C237.745+174+236.404+174.298+239+173C243.048+181.096+257.33+199.691+256+209C253.93+223.492+234.415+203.831+232+199C231+199.5+231+199.5+230+200C237.35+214.701+240.259+213.293+244+232C246.5+232+246.5+232+249+232C249+235.452+243.464+236.536+241+239C241.5+240+241.5+240+242+241C235.072+242.732+238.152+240.634+237+251C232.946+251+234.949+251.316+231+250C231+249+231+249+231+248C228.508+247.751+203.134+238.622+217+234C213.971+230.971+207.116+225.628+203+227C207.93+236.86+214.282+249.535+226+251C226+252+226+252+226+253C227.5+253+227.5+253+229+253C229+256.745+229.447+255.106+228+258C230+258+230+258+232+258C232+259.5+232+259.5+232+261C231.5+260+231.5+260+231+259C225.968+261.516+229+273.359+229+278C220.857+265.786+204.015+229.836+187+227C175.139+225.023+167.016+238.313+146+237C144.441+236.903+141.347+233.959+142+232C144.575+224.276+156.767+228.907+162+231C162+229.5+162+229.5+162+228C151.5+227.5+151.5+227.5+141+227C141+226+141+226+141+225C152.5+225+152.5+225+164+225C165+228+165+228+166+231C167+231+167+231+168+231C168+221.389+177.335+221.665+183+216C177.983+210.983+162.038+218+156+218C160.5+217.5+160.5+217.5+165+217C152.647+215.877+156.615+218+149+218Z" fill="#3e8180" stroke-linecap="round" opacity="1" stroke-linejoin="round"/>
<path stroke="#3c7e7e" stroke-width="1" d="M321+268C323.894+266.553+323+267.745+323+264C318.594+264+316+254.105+316+251C315+251+315+251+314+251C314+234.047+301.42+226.084+286+223C288.743+223.914+291.257+225.086+294+226C285.53+226+252+221.373+252+233C248+232.5+248+232.5+244+232C244+211.605+234.756+214.268+230+200C232.656+200+265.889+229.223+255+202C253.099+197.247+251.208+196.377+253+191C263.279+191+255.93+209.178+275+206C275+210.63+260.36+212.64+256+217C257+217.5+257+217.5+258+218C264.304+210.121+271.903+212.032+281+209C281+210.5+281+210.5+281+212C301.664+215.444+307.769+235.769+321+249C327.469+255.469+336.601+251.902+342+260C330.899+265.55+332.963+270.444+332+282C333+282+333+282+334+282C334+276.615+332.448+261.816+342+265C341.5+266.5+341.5+266.5+341+268C344.054+268+342.368+268.211+346+267C346+271.886+346.707+269.293+342+274C344+274+344+274+346+274C346+277+346+277+346+280C343+280+343+280+340+280C343.877+282.585+342.62+280.86+344+285C342+285.5+342+285.5+340+286C341+286.5+341+286.5+342+287C328.946+287+333.795+288.265+327+286C327+280.309+323.587+273.174+321+268Z" fill="#3c7e7e" stroke-linecap="round" opacity="1" stroke-linejoin="round"/>
<path stroke="#991c39" stroke-width="1" d="M136+57C126.926+57+123.882+62.7311+115+64C116+65+116+65+117+66C115.702+68.5963+116.745+68+114+68C113.5+70.5+113.5+70.5+113+73C107.371+73+103.077+74.4613+98+77C99+78.5+99+78.5+100+80C96.6443+80+95+80.3428+95+84C90.819+84+90+84.819+90+89C89+89+89+89+88+89C87.0783+91.7651+82.4544+96.7728+80+98C83.8769+99.9385+71.5695+115+67+115C65.1468+120.56+58+126.879+58+132C56.5+132+56.5+132+55+132C53.4198+136.741+49.1995+138.599+51+144C48.4037+145.298+49+144.255+49+147C48+147+48+147+47+147C47+146+47+146+47+145C45.9476+148.157+43+151.478+43+154C42+154+42+154+41+154C41+152+41+152+41+150C40+150.5+40+150.5+39+151C33.6485+134.945+105.161+67.43+107+66C109.435+64.1057+136+42.8903+136+57Z" fill="#991c39" stroke-linecap="round" opacity="1" stroke-linejoin="round"/>
<path stroke="#b6a244" stroke-width="1" d="M297+317C297+316+297+316+297+315C279.663+315+262.298+315.153+245+314C243.458+306.289+238+295.749+238+291C235+291+235+291+232+291C232+287.274+230.792+286.625+232+283C230.5+283+230.5+283+229+283C229+277.664+226.173+261.414+231+259C231+260+231+260+231+261C231.5+259.5+231.5+259.5+232+258C230+258+230+258+228+258C229.447+255.106+229+256.745+229+253C227.5+253+227.5+253+226+253C226+252+226+252+226+251C230.431+251+233.172+249.724+237+251C237+241.205+234.524+243.99+242+241C241.5+240+241.5+240+241+239C243.827+236.173+247.011+235.978+249+232C250.5+232.5+250.5+232.5+252+233C253.301+227.796+252.47+227+258+227C258+228+258+228+258+229C262.106+230.369+267.392+229.488+272+230C274.838+221.487+282.287+226.429+292+227C292+228+292+228+292+229C295.796+229+296.427+230.809+300+232C300+233+300+233+300+234C305.554+235.851+303.165+238+310+238C310+242.803+314+245.627+314+251C315+251+315+251+316+251C316+255.602+319.383+259.148+321+264C322+264+322+264+323+264C323+268.412+321+266.292+321+270C320+270+320+270+319+270C319+268.5+319+268.5+319+267C315.082+267+310.966+267.932+309+264C307.5+264.5+307.5+264.5+306+265C308.76+270.52+307.708+267.538+309+274C310+274+310+274+311+274C311+276+311+276+311+278C314.789+276.106+313+277.745+313+271C314.5+270.5+314.5+270.5+316+270C316+276.018+315.89+272.006+317+282C319+282+319+282+321+282C321+283.5+321+283.5+321+285C309.754+287.812+317.988+300.992+324+305C322.5+306+322.5+306+321+307C321.5+308+321.5+308+322+309C319.333+309+316.667+309+314+309C317.229+310.615+315.819+309.277+317+314C312.633+312.544+310.867+313.735+313+318C312+318+312+318+311+318C311+317+311+317+311+316C305.095+316+304.867+322.934+299+320C300+319.5+300+319.5+301+319C298.529+316.529+299.943+317+297+317Z" fill="#ffde47" stroke-linecap="round" opacity="1" stroke-linejoin="round"/>
<path stroke="#a51e3e" stroke-width="1" d="M155+93C155+94+155+94+155+95C149.388+95+145.219+103+139+103C138.5+105+138.5+105+138+107C134.747+107+127+112.776+127+116C123.761+116+112+127.868+112+131C110.5+131+110.5+131+109+131C100.732+155.803+77.6581+173.026+69+199C61.115+195.057+80.268+173.062+82+167C86.2706+152.053+140.821+88.2735+155+93Z" fill="#a51e3e" stroke-linecap="round" opacity="1" stroke-linejoin="round"/>
<path stroke="#68283b" stroke-width="1" d="M165+152C163.559+146.236+161.245+142.623+156+140C156+143.587+158.439+145.879+160+149C155.187+146.594+156.154+145+150+145C152.479+146.239+154+146.034+154+149C149.946+149+151.949+149.316+148+148C148+149+148+149+148+150C155.572+151.893+150.631+150.876+163+152C163+153.5+163+153.5+163+155C156.949+155+150.655+151.345+146+156C145.5+154.5+145.5+154.5+145+153C132.651+165.349+122.773+179.455+115+195C114.349+188.491+113.269+178.365+120+175C120+177.5+120+177.5+120+180C121.383+167.552+120.352+173.971+125+167C125+168+125+168+125+169C126.288+165.136+126.051+164.316+130+163C130+156.392+133.794+158.412+136+154C136.5+155+136.5+155+137+156C138.822+152.356+138.44+148+144+148C144+146.5+144+146.5+144+145C142+145+142+145+140+145C142.462+142.538+142.952+142.476+146+144C146+138.933+150+141.318+150+137C152+136.5+152+136.5+154+136C154+134.5+154+134.5+154+133C159.416+131.646+158.365+129.122+164+131C164+127.214+169.896+122+174+122C174+120.5+174+120.5+174+119C178.281+118.144+181.719+116.856+186+116C186+115+186+115+186+114C196.14+110.62+201.66+106.532+214+109C203.254+114.373+172+121.666+172+136C171+136+171+136+170+136C168.859+143.99+172+146.358+172+154C168.402+148.602+166.904+141.328+166+135C162.976+136.512+163.533+137.822+160+139C163.693+140.847+166.227+148.318+165+152Z" fill="#68283b" stroke-linecap="round" opacity="1" stroke-linejoin="round"/>
<path stroke="#b02041" stroke-width="1" d="M181+95C181+97.4674+181.907+98.8145+183+101C180.333+102.333+181.333+101.333+180+104C179.5+103+179.5+103+179+102C179+104+179+104+179+106C175.255+106+176.447+105.106+175+108C174.5+107+174.5+107+174+106C171.106+107.447+172+106.255+172+110C171.5+108.5+171.5+108.5+171+107C171+109+171+109+171+111C169.5+110+169.5+110+168+109C165.445+112.832+166+110.798+166+115C164.5+114+164.5+114+163+113C161.071+115.893+158.416+118.168+157+121C156.5+120+156.5+120+156+119C153.826+122.261+152.215+122.354+151+126C150+125.5+150+125.5+149+125C147.822+128.533+146.512+127.976+145+131C144.5+130+144.5+130+144+129C141.787+132.32+140.688+135.156+137+137C137.5+138+137.5+138+138+139C134.43+137.215+133+139.462+133+143C128.609+143+118.171+158.553+113+162C113.5+163+113.5+163+114+164C111.425+165.288+111+166.141+111+169C106.467+166.734+107+169.805+107+174C104.333+172.667+105.667+172.667+103+174C104.5+175.5+104.5+175.5+106+177C102.455+179.364+99+179.222+99+184C97.5+184.5+97.5+184.5+96+185C97+185.5+97+185.5+98+186C94.1081+187.297+93.7384+186.477+92+183C93+183.5+93+183.5+94+184C94+183+94+183+94+182C95.5+182+95.5+182+97+182C96.5+180.5+96.5+180.5+96+179C95+179+95+179+94+179C95.5+178.5+95.5+178.5+97+178C97+174.721+98+173+98+170C99.5+169.5+99.5+169.5+101+169C100+167.5+100+167.5+99+166C102.241+166+102.186+163.407+105+162C104+161.5+104+161.5+103+161C108.419+157.749+107.263+153.368+112+151C110.793+144.966+112.612+146.537+108+145C108.5+146+108.5+146+109+147C108+147+108+147+107+147C105.744+150.768+102+152.41+102+156C101+155.5+101+155.5+100+155C103.784+147.432+107.457+143.087+111+136C111+137.5+111+137.5+111+139C114.581+137.209+119.382+131.618+122+129C123+129.5+123+129.5+124+130C123.5+129+123.5+129+123+128C126.382+124.618+132.604+115+138+115C138.5+117+138.5+117+139+119C142.202+119+140.445+118.63+144+121C144+115.798+143.26+118.109+146+114C146.5+115+146.5+115+147+116C148+114+148+114+149+112C150+113.5+150+113.5+151+115C152.338+110.985+154.554+108+159+108C159.5+106.5+159.5+106.5+160+105C160.5+106+160.5+106+161+107C162+106+162+106+163+105C164+106.5+164+106.5+165+108C166.316+104.051+166+106.054+166+102C166.5+103.5+166.5+103.5+167+105C170.85+101.15+169.216+103.177+172+99C173.471+101.943+172.764+100.293+174+104C175.316+100.051+175+102.054+175+98C175.5+99.5+175.5+99.5+176+101C177+99+177+99+178+97C178.5+98.5+178.5+98.5+179+100C180+97.5+180+97.5+181+95Z" fill="#b02041" stroke-linecap="round" opacity="1" stroke-linejoin="round"/>
<path stroke="#387e81" stroke-width="1" d="M185+229C181.603+239.191+181.117+250.292+185+260C186.308+254.77+186.605+233.815+185+229C200.095+223.968+228.213+280.773+229+291C228+291+228+291+227+291C227+293.745+227.298+292.404+226+295C227.5+295+227.5+295+229+295C229+296+229+296+229+297C223.937+297+222.899+292+219+292C219.5+291+219.5+291+220+290C219+290+219+290+218+290C218.5+289+218.5+289+219+288C211.615+288+209.065+282.196+207+276C203.18+279.82+207.615+281.845+209+286C210+286+210+286+211+286C204.071+289.465+207+294.479+207+301C202.665+298.11+203.509+293.283+202+288C201.5+293+201.5+293+201+298C200+298+200+298+199+298C199+296.5+199+296.5+199+295C191.444+295+170.233+289.535+166+298C165.5+296.5+165.5+296.5+165+295C163+295+163+295+161+295C167.017+282.966+187.768+294.232+197+285C197.5+286.5+197.5+286.5+198+288C194.3+288+196.654+287.869+191+289C192+289.5+192+289.5+193+290C180.439+291.396+171.029+291.985+161+297C161.5+298+161.5+298+162+299C149.3+299+154.595+298.281+146+300C148.084+296.873+148.846+296.577+152+295C149+294.5+149+294.5+146+294C146+290.5+146+290.5+146+287C147+287+147+287+148+287C149.236+290.707+148.057+289.529+151+291C151.5+289+151.5+289+152+287C151+287+151+287+150+287C150+279.219+146.951+271.197+149+263C148+264.5+148+264.5+147+266C142.913+263.957+145+265.745+145+258C144+258+144+258+143+258C149.01+245.98+155.196+264.959+153+243C160.256+241.186+167.153+244.282+174+242C174+235.578+182.225+234.674+180+228C183.054+228+181.368+227.789+185+229Z" fill="#387e81" stroke-linecap="round" opacity="1" stroke-linejoin="round"/>
<path stroke="#a11d3c" stroke-width="1" d="M87+400C88+399.5+88+399.5+89+399C91.4851+401.485+92.6099+407+96+407C96+411.714+100.505+412.515+102+417C104.374+417+111+424.767+111+427C114.562+427+116.884+433.628+121+435C121+443.292+143.432+452.27+150+453C150+454+150+454+150+455C151.5+455+151.5+455+153+455C153+456+153+456+153+457C154.5+457+154.5+457+156+457C156+460.346+158.612+460.776+157+464C159.943+465.471+158.293+464.764+162+466C162+467+162+467+162+468C131.614+461.923+102.861+423.791+87+400Z" fill="#a11d3c" stroke-linecap="round" opacity="1" stroke-linejoin="round"/>
<path stroke="#368086" stroke-width="1" d="M169+193C169.5+191+169.5+191+170+189C166.393+192.607+164.944+197.352+160+199C159.5+198+159.5+198+159+197C163.527+192.473+160.206+184.426+159+179C157.201+184.396+162.486+191.257+157+194C157+193+157+193+157+192C153.798+192+155.37+191.445+153+195C146.9+191.95+142.161+165.28+149+163C147.5+162.5+147.5+162.5+146+162C151.731+160.854+150.24+162.52+152+159C151+159+151+159+150+159C150+157.5+150+157.5+150+156C148+156+148+156+146+156C150.822+151.178+157.992+153.498+164+155C164.667+153+165.333+151+166+149C169.122+156.805+169.459+156.576+178+158C178.5+157+178.5+157+179+156C180.434+158.869+182.754+160.754+185+163C185.5+161.5+185.5+161.5+186+160C185+160+185+160+184+160C184+156.479+183.38+156.127+180+155C180.5+154+180.5+154+181+153C176.417+150.709+173.091+141.97+179+140C179+147.852+183.285+154.428+191+157C191+156+191+156+191+155C190+155+190+155+189+155C194.15+153.97+198.847+151+204+151C204+153+204+153+204+155C206+155+206+155+208+155C208+156+208+156+208+157C195.03+157+183+161.831+183+177C179.255+177+180.447+177.894+179+175C176.293+177.707+177+176.057+177+180C194.539+180+186.568+153.142+218+161C218+162+218+162+218+163C210.509+164.498+201.471+159.529+196+165C205.339+165+214.94+163.735+224+166C224+191.757+181.667+180.499+172+195C170.702+192.404+171.745+193+169+193Z" fill="#368086" stroke-linecap="round" opacity="1" stroke-linejoin="round"/>
<path stroke="#98a3a9" stroke-width="1" d="M422+311C412.371+320.629+392+305.03+392+325C376.825+325+399.976+303.071+401+300C394.299+304.691+385.688+316.72+381+305C384.5+304.5+384.5+304.5+388+304C388+302+388+302+388+300C377.079+297.816+380.368+292.735+376+284C384.107+281.298+407.146+280.561+403+293C412.284+297.642+404+301.751+404+308C406.5+308+406.5+308+409+308C409+301.899+415.339+298.323+418+293C417+293+417+293+416+293C416+289.42+419.831+282+424+282C424+286.992+424.919+290.306+430+292C428.106+286.318+421.228+275.591+429+273C429+277.867+432.442+284.326+434+289C436+289+436+289+438+289C438+285.792+437.254+284.254+435+282C435.5+281+435.5+281+436+280C435+280+435+280+434+280C434+274.959+431.214+271+438+271C438+277.428+443.208+295.069+449+297C449+299+449+299+449+301C450+301+450+301+451+301C444.527+302.079+437.728+301.087+436+308C437+308+437+308+438+308C438+309+438+309+438+310C434.461+311.18+424.969+312.485+422+311Z" fill="#98a3a9" stroke-linecap="round" opacity="1" stroke-linejoin="round"/>
<path stroke="#a1acb3" stroke-width="1" d="M503+209C506.851+209.963+511.158+211.316+513+215C516.832+212.445+514.798+213+519+213C519+217.028+518.89+214.343+520+221C519+221+519+221+518+221C516.371+237.293+495+251.552+495+263C501.925+263+505.691+252.982+511+249C511+258.688+507.544+259.185+503+266C519.527+274.263+483.842+278.614+479+277C480.298+274.404+479.255+275+482+275C482+268.255+482.894+270.789+481+267C487.421+267+494.879+274.061+501+271C498.441+265.883+486.161+266.321+482+258C486.464+253.536+487.543+248.173+486+242C491.054+242+488.735+241.578+493+243C493+238.966+494.228+237.683+493+234C492+234+492+234+491+234C491+226.47+500+223.102+500+231C500.5+229+500.5+229+501+227C500+227+500+227+499+227C499+219.128+498.778+215.334+503+209Z" fill="#a1acb3" stroke-linecap="round" opacity="1" stroke-linejoin="round"/>
<path stroke="#889197" stroke-width="1" d="M401+280C398.946+275.892+400.738+278.105+393+277C394.186+274.628+398.377+272.748+401+271C398.946+266.892+400.738+269.105+393+268C393+263.957+397+266.044+397+262C394.52+262+392+259.48+392+257C388.139+258.931+388.189+274.737+388+277C386.5+277+386.5+277+385+277C383.755+265.797+389+256.702+389+247C385.3+247+387.654+246.869+382+248C382+240.979+385.537+241.747+388+236C389.537+232.414+380.848+232.641+377+232C370.114+230.852+368.181+220+362+220C360.47+229.178+379.09+246.716+381+262C379.5+262+379.5+262+378+262C378+250.718+374.986+239.662+364+236C364+251.376+381.141+293.239+401+280Z" fill="#889197" stroke-linecap="round" opacity="1" stroke-linejoin="round"/>
<path stroke="#79162d" stroke-width="1" d="M127+378C124.057+379.471+125.236+378.293+124+382C122.761+379.521+122.966+378+120+378C120+376.5+120+376.5+120+375C119+375+119+375+118+375C118+372.392+116.835+370.504+116+368C114+368+114+368+112+368C112+362.512+110.074+359.368+109+354C108.5+355+108.5+355+108+356C105.518+348.554+93.372+320.814+101+317C101+341.18+121.722+356.889+127+378Z" fill="#79162d" stroke-linecap="round" opacity="1" stroke-linejoin="round"/>
<path stroke="#ad2041" stroke-width="1" d="M85+280C85+292.077+83.4366+304.591+88+316C88.5+313.5+88.5+313.5+89+311C93.117+319.234+91.1373+328.412+94+337C94.5+334.5+94.5+334.5+95+332C99.5447+341.089+99.5056+351.011+104+360C103+360+103+360+102+360C102+358.5+102+358.5+102+357C101+357+101+357+100+357C100.5+356+100.5+356+101+355C100+355+100+355+99+355C99.5+354+99.5+354+100+353C97.1056+351.553+98+352.745+98+349C97+349+97+349+96+349C96+347.333+96+345.667+96+344C95+344+95+344+94+344C94.5+343+94.5+343+95+342C94+341.5+94+341.5+93+341C93.5+340+93.5+340+94+339C93+338.5+93+338.5+92+338C92.5+337+92.5+337+93+336C90.7546+334.877+87.8727+326.255+89+324C88+324+88+324+87+324C87.5+323+87.5+323+88+322C87+321.5+87+321.5+86+321C86.5+320+86.5+320+87+319C86+318.5+86+318.5+85+318C85.5+316.5+85.5+316.5+86+315C82.8169+313.408+83.9369+312.189+85+309C84+308.5+84+308.5+83+308C83.5+306.5+83.5+306.5+84+305C83+305+83+305+82+305C84.5963+303.702+84+304.745+84+302C83+302+83+302+82+302C82.5+300.5+82.5+300.5+83+299C82+299+82+299+81+299C83.5963+297.702+83+298.745+83+296C82+296+82+296+81+296C82+295+82+295+83+294C82+293.5+82+293.5+81+293C82.4991+288.503+81.5908+283.409+85+280Z" fill="#ad2041" stroke-linecap="round" opacity="1" stroke-linejoin="round"/>
<path stroke="#4b111f" stroke-width="1" d="M170+419C164.626+419+167.294+419.323+162+418C162.5+417+162.5+417+163+416C161.5+416+161.5+416+160+416C160+415+160+415+160+414C159+414+159+414+158+414C158+413+158+413+158+412C156.5+412+156.5+412+155+412C155+411+155+411+155+410C154+410+154+410+153+410C153+408.773+138.28+395+138+395C138+394+138+394+138+393C137+393+137+393+136+393C135.019+390.056+133.223+386+130+386C129.086+383.257+127.914+380.743+127+378C135.568+378+158.781+413.39+170+419Z" fill="#4b111f" stroke-linecap="round" opacity="1" stroke-linejoin="round"/>
<path stroke="#b02042" stroke-width="1" d="M258+463C258+464+258+464+258+465C264.273+462.909+270.406+467.297+275+465C275.5+466+275.5+466+276+467C277+466.5+277+466.5+278+466C280.289+469.433+281.543+469.272+285+471C286+469+286+469+287+467C287.5+470+287.5+470+288+473C289+470.5+289+470.5+290+468C290.5+473+290.5+473+291+478C290.5+476+290.5+476+290+474C288.764+477.707+289.471+476.057+288+479C287.5+477.5+287.5+477.5+287+476C285.107+479.787+281.44+484.22+277+482C274.254+484.746+272.265+483.367+269+485C268.5+484+268.5+484+268+483C263.891+485.74+266.202+485+261+485C261+484+261+484+261+483C259.702+485.596+260.745+485+258+485C258+484+258+484+258+483C256.5+484+256.5+484+255+485C254.5+484+254.5+484+254+483C252.5+483.5+252.5+483.5+251+484C251+483+251+483+251+482C250+483+250+483+249+484C247.362+480.724+244.469+482+241+482C241+481+241+481+241+480C234.681+480+232.465+477.162+230+471C228.764+474.707+229.943+473.529+227+475C227+471.254+227.364+465.818+231+464C231.5+465+231.5+465+232+466C236.602+461.398+250.56+463+258+463Z" fill="#b02042" stroke-linecap="round" opacity="1" stroke-linejoin="round"/>
<path stroke="#35777b" stroke-width="1" d="M264+347C264+344.601+248.596+329.306+261+328C266.645+327.406+272.331+326.702+278+327C280.512+327.132+285.043+334.086+286+336C283.451+337.699+282.76+340+280+340C281.447+337.106+281+338.745+281+335C275.989+340.011+269.467+346.131+268+352C258.009+348.67+253.24+340.253+242+344C241.994+343.988+256.082+321.04+257+321C264.025+320.695+271+322.333+278+323C258.071+336.286+251.971+322.942+264+347Z" fill="#35777b" stroke-linecap="round" opacity="1" stroke-linejoin="round"/>
<path stroke="#a31e3d" stroke-width="1" d="M87+396C86.5+394+86.5+394+86+392C85+392+85+392+84+392C82.1805+386.542+78.3452+382.381+77+377C76+377+76+377+75+377C75+368.471+60.9605+355.559+66+348C70.2168+350.108+71.5234+358.57+73+363C74+363+74+363+75+363C75+367.054+74.6838+365.051+76+369C77+369+77+369+78+369C78+373.054+77.6838+371.051+79+375C80+375+80+375+81+375C81+379.054+80.6838+377.051+82+381C88.3512+381+87+390.954+87+396Z" fill="#a31e3d" stroke-linecap="round" opacity="1" stroke-linejoin="round"/>
<path stroke="#7c8489" stroke-width="1" d="M486+315C459.91+315+464.942+332+455+332C455+319.546+460.98+311.83+444+309C445.83+305.339+468.136+310.678+472+311C472+312.5+472+312.5+472+314C479+314.5+479+314.5+486+315Z" fill="#7c8489" stroke-linecap="round" opacity="1" stroke-linejoin="round"/>
<path stroke="#2b676b" stroke-width="1" d="M177+180C177+175.798+176.445+177.832+179+174C179.5+175.5+179.5+175.5+180+177C181.5+177+181.5+177+183+177C183+159.68+200.824+152.941+216+158C216+159+216+159+216+160C185.737+160+187.532+180+177+180Z" fill="#2b676b" stroke-linecap="round" opacity="1" stroke-linejoin="round"/>
<path stroke="#a1acb2" stroke-width="1" d="M409+335C407.269+329.807+392.61+330.169+396+320C399.416+309.752+425.799+322.599+428+327C424.636+330.364+422.691+333.691+418+329C415.057+330.471+416.236+329.293+415+333C419+335.667+417.333+334+420+338C411.327+338+402.228+339.743+394+337C394+334.5+394+334.5+394+332C373.784+325.261+405.93+334.386+409+335Z" fill="#a1acb2" stroke-linecap="round" opacity="1" stroke-linejoin="round"/>
<path stroke="#3e939a" stroke-width="1" d="M184+393C180.807+394.596+182.745+394+178+394C177.5+390.5+177.5+390.5+177+387C175.667+387.667+174.333+388.333+173+389C173+382.414+180.044+383.087+176+375C174.5+376.5+174.5+376.5+173+378C173.5+379+173.5+379+174+380C158.887+380+175.234+395.298+172+405C182.748+405+177.241+400+197+400C197+399+197+399+197+398C192.043+398+186.357+397.713+184+393Z" fill="#3e939a" stroke-linecap="round" opacity="1" stroke-linejoin="round"/>
<path stroke="#438a89" stroke-width="1" d="M217+274C218+274+218+274+219+274C218.5+275+218.5+275+218+276C219+276+219+276+220+276C220+281.141+221.209+283.403+226+285C226+286+226+286+226+287C214.094+284.619+219.974+264.658+212+262C202.431+258.81+203.713+272+196+272C205.755+258.994+225.738+256.523+217+274Z" fill="#438a89" stroke-linecap="round" opacity="1" stroke-linejoin="round"/>
<path stroke="#356e6d" stroke-width="1" d="M284+333C276.714+325.714+277.32+327+262+327C249.43+327+264+346.509+264+347C253.203+325.405+265.712+310.712+286+331C285+332+285+332+284+333Z" fill="#356e6d" stroke-linecap="round" opacity="1" stroke-linejoin="round"/>
<path stroke="#3c8588" stroke-width="1" d="M203+227C204+226+204+226+205+225C208.618+226.809+213.925+230.925+217+234C214.157+235.422+215.527+234.473+213+237C218.426+242.426+228.568+243.136+232+250C215.787+252.702+209.179+239.358+203+227Z" fill="#3c8588" stroke-linecap="round" opacity="1" stroke-linejoin="round"/>
<path stroke="#317379" stroke-width="1" d="M153+402C151.5+402+151.5+402+150+402C150.5+400.5+150.5+400.5+151+399C149.5+398.5+149.5+398.5+148+398C148+391.174+148.084+385.168+145+379C178.275+367.908+169.766+407+164+407C164+406+164+406+164+405C159.972+405+162.658+405.11+156+404C156+399.892+156.211+402.632+154+396C153.5+399+153.5+399+153+402Z" fill="#317379" stroke-linecap="round" opacity="1" stroke-linejoin="round"/>
<path stroke="#2c696e" stroke-width="1" d="M159+347C155.974+340.948+148.399+339.804+151+332C152.251+334.503+173.312+332.064+172+336C171.372+337.883+167+341.384+167+344C167+360.827+170.874+353.689+166+361C161.334+356.334+150.556+348.112+148+343C151.688+341.156+155.495+345.247+159+347Z" fill="#2c696e" stroke-linecap="round" opacity="1" stroke-linejoin="round"/>
<path stroke="#a61e3e" stroke-width="1" d="M86+148C88.4128+155.238+71.9647+175.071+68+183C63.183+173.366+81.2053+155.192+86+148Z" fill="#a61e3e" stroke-linecap="round" opacity="1" stroke-linejoin="round"/>
<path stroke="#1f4749" stroke-width="1" d="M314+246C314+232.148+297.281+225.256+286+223C299.953+227.651+306.065+234.098+314+246Z" fill="#1f4749" stroke-linecap="round" opacity="1" stroke-linejoin="round"/>
<path stroke="#555b5e" stroke-width="1" d="M397+285C392.759+285+357.471+271.264+374+263C374+278.399+384.738+281.22+398+282C397.5+283.5+397.5+283.5+397+285Z" fill="#555b5e" stroke-linecap="round" opacity="1" stroke-linejoin="round"/>
<path stroke="#af2041" stroke-width="1" d="M82+110C82+111.333+82+112.667+82+114C81+114+81+114+80+114C80.5+115+80.5+115+81+116C79.5+116.5+79.5+116.5+78+117C78.5+118+78.5+118+79+119C73.8183+119+73.5863+124.414+70+128C70.5+129+70.5+129+71+130C69.5+130.5+69.5+130.5+68+131C69+131.5+69+131.5+70+132C68+133+68+133+66+134C67+134.5+67+134.5+68+135C66.5+136+66.5+136+65+137C65.5+138+65.5+138+66+139C64.5+139.5+64.5+139.5+63+140C64+140.5+64+140.5+65+141C63.5+141+63.5+141+62+141C62+129.888+77.2507+119.499+82+110Z" fill="#af2041" stroke-linecap="round" opacity="1" stroke-linejoin="round"/>
<path stroke="#9f9e53" stroke-width="1" d="M250+319C253+318.5+253+318.5+256+318C253+317.5+253+317.5+250+317C257.013+302.975+281.319+315+297+315C297+316+297+316+297+317C295+317+295+317+293+317C292.333+319+291.667+321+291+323C290+323+290+323+289+323C289+321.5+289+321.5+289+320C278.011+325.495+261.386+322.795+250+319Z" fill="#f3f250" stroke-linecap="round" opacity="1" stroke-linejoin="round"/>
<path stroke="#2d6a6f" stroke-width="1" d="M180+228C189.498+246.996+147.851+241+143+241C160.35+235.217+169.185+244.222+180+228Z" fill="#2d6a6f" stroke-linecap="round" opacity="1" stroke-linejoin="round"/>
<path stroke="#1e050b" stroke-width="1" d="M443+418C447.109+415.26+446+417.202+446+412C424+412+424+412+402+412C403.5+411.5+403.5+411.5+405+411C395.938+410.094+390.502+408.249+383+412C402.378+412+420.474+415.451+443+416C443+417+443+417+443+418Z" fill="#1e050b" stroke-linecap="round" opacity="1" stroke-linejoin="round"/>
<path stroke="#ae2041" stroke-width="1" d="M332+455C330.702+457.596+331+456.255+331+459C330+458.5+330+458.5+329+458C328+459.5+328+459.5+327+461C326.5+459.5+326.5+459.5+326+458C325.5+459.5+325.5+459.5+325+461C324+461+324+461+323+461C323+460+323+460+323+459C322+461+322+461+321+463C320.5+461.5+320.5+461.5+320+460C319+462+319+462+318+464C317.5+462.5+317.5+462.5+317+461C315.667+463.667+316.667+462.667+314+464C314+463+314+463+314+462C313+463.5+313+463.5+312+465C311+464+311+464+310+463C309.5+464.5+309.5+464.5+309+466C308+465+308+465+307+464C306+465+306+465+305+466C304.5+465+304.5+465+304+464C302.5+465+302.5+465+301+466C301+465+301+465+301+464C300+465.5+300+465.5+299+467C298.5+465.5+298.5+465.5+298+464C297+465.5+297+465.5+296+467C295.5+466+295.5+466+295+465C291.051+466.316+293.054+466+289+466C294.015+458.478+303.107+464.446+310+461C309+460.5+309+460.5+308+460C309.553+456.895+313.546+457.691+317+457C317+458+317+458+317+459C322.227+459+327.303+457.348+332+455Z" fill="#ae2041" stroke-linecap="round" opacity="1" stroke-linejoin="round"/>
<path stroke="#2b2e30" stroke-width="1" d="M488+260C488+251.79+501.531+240.469+507+235C507+239.347+493.092+260+488+260Z" fill="#2b2e30" stroke-linecap="round" opacity="1" stroke-linejoin="round"/>
<path stroke="#881933" stroke-width="1" d="M431+63C426.67+63+422.327+61.6182+418+61C419+60+419+60+420+59C415.103+57.3678+411.012+56.747+406+58C406+54.6417+408+56.3583+408+53C406.5+53+406.5+53+405+53C405+52+405+52+405+51C403.5+50.5+403.5+50.5+402+50C404.553+47.4475+405.968+48.5161+409+47C415.422+53.4219+424.578+56.5781+431+63Z" fill="#881933" stroke-linecap="round" opacity="1" stroke-linejoin="round"/>
<path stroke="#25575c" stroke-width="1" d="M178+255C178+259.624+178.638+263.819+183+266C183+261.568+178.965+259.07+181+255C180+255+180+255+179+255C179+254+179+254+179+253C163.821+249.964+170.57+265.43+162+274C173.948+277.983+164.612+255+178+255Z" fill="#25575c" stroke-linecap="round" opacity="1" stroke-linejoin="round"/>
<path stroke="#3d8f96" stroke-width="1" d="M146+236C153.876+235.394+162.467+237.753+170+237C180.24+235.976+167.125+225.013+187+227C186.5+228+186.5+228+186+229C175.35+226.337+172.071+243.449+146+236Z" fill="#3d8f96" stroke-linecap="round" opacity="1" stroke-linejoin="round"/>
<path stroke="#3a8a90" stroke-width="1" d="M180+267C182.5+267+182.5+267+185+267C184+268.5+184+268.5+183+270C184+270.5+184+270.5+185+271C187.333+268.667+189.667+266.333+192+264C192+269.546+187+270.227+187+275C179+275+177.468+265.339+176+258C172.183+259.909+173.332+263.665+175+267C173+267+173+267+171+267C169.99+257.913+168.631+255+178+255C178+259.192+180+262.922+180+267Z" fill="#3a8a90" stroke-linecap="round" opacity="1" stroke-linejoin="round"/>
<path stroke="#96a1a7" stroke-width="1" d="M474+340C474.5+341.5+474.5+341.5+475+343C466.39+342.139+465.529+338+461+338C461+330.539+470.072+313.072+479+322C469.88+325.04+467.981+332.076+466+340C468.667+340+471.333+340+474+340Z" fill="#96a1a7" stroke-linecap="round" opacity="1" stroke-linejoin="round"/>
<path stroke="#3d9198" stroke-width="1" d="M163+369C163+368+163+368+163+367C154.946+367+158.214+367.738+153+366C155.947+360.106+149.411+358.882+145+358C148.728+350.543+156.389+362.194+160+364C157.628+356.884+150.924+354.848+148+349C157.182+349+162.529+360.057+166+367C164.5+368+164.5+368+163+369Z" fill="#3d9198" stroke-linecap="round" opacity="1" stroke-linejoin="round"/>
<path stroke="#307277" stroke-width="1" d="M204+188C206.475+183.049+221.329+169+226+169C226+173.97+209.212+188+204+188Z" fill="#307277" stroke-linecap="round" opacity="1" stroke-linejoin="round"/>
<path stroke="#959fa5" stroke-width="1" d="M450+295C450.5+296.5+450.5+296.5+451+298C457.745+298+455.211+298.894+459+297C459+300.054+458.789+298.368+460+302C466.5+302+466.5+302+473+302C473+303+473+303+473+304C480+304.5+480+304.5+487+305C484.366+305.165+442.424+310.152+450+295Z" fill="#959fa5" stroke-linecap="round" opacity="1" stroke-linejoin="round"/>
<path stroke="#2d6b70" stroke-width="1" d="M180+217C180+218.5+180+218.5+180+220C173.478+220+168+224.259+168+231C167+231+167+231+166+231C164.124+221.618+158.797+226.898+151+223C156.506+221.165+173.506+217+180+217Z" fill="#2d6b70" stroke-linecap="round" opacity="1" stroke-linejoin="round"/>
<path stroke="#378288" stroke-width="1" d="M178+158C166.623+158+165.451+147.902+161+139C163.467+137.767+163.533+136.233+166+135C166+143.006+167.647+146.471+172+153C172+147.414+169.911+142.464+169+137C171.5+136.5+171.5+136.5+174+136C174+144.429+178+150.453+178+158Z" fill="#378288" stroke-linecap="round" opacity="1" stroke-linejoin="round"/>
<path stroke="#32777c" stroke-width="1" d="M321+283C322+283+322+283+323+283C323+280.057+323.471+281.471+321+279C321.931+277.138+328.879+286.991+342+288C342+289.5+342+289.5+342+291C331.255+291+333.491+288.019+331+293C335.374+293+333.03+292.757+338+294C337.5+295+337.5+295+337+296C326.944+294.563+327.934+289.967+320+286C320.5+284.5+320.5+284.5+321+283Z" fill="#32777c" stroke-linecap="round" opacity="1" stroke-linejoin="round"/>
<path stroke="#b02041" stroke-width="1" d="M15+223C16+223+16+223+17+223C17+228.004+10.5911+231.385+10+237C8.42854+251.929+13+258.065+13+271C3.32954+251.659+15+237.27+15+223Z" fill="#b02041" stroke-linecap="round" opacity="1" stroke-linejoin="round"/>
<path stroke="#2f7075" stroke-width="1" d="M194+244C201.456+251.456+192.513+271+183+271C188.583+259.833+197.514+258.058+194+244Z" fill="#2f7075" stroke-linecap="round" opacity="1" stroke-linejoin="round"/>
<path stroke="#2f7075" stroke-width="1" d="M247+358C249.5+357.5+249.5+357.5+252+357C252+356+252+356+252+355C245.51+355+242.876+359+236+359C236+341.506+263+341.259+263+355C252.61+352.403+249.858+346.762+239+354C244.654+355.885+245.333+350.083+253+352C260.58+353.895+253.329+360.11+247+358Z" fill="#2f7075" stroke-linecap="round" opacity="1" stroke-linejoin="round"/>
<path stroke="#2f6f74" stroke-width="1" d="M161+295C167.017+282.966+187.768+294.232+197+285C197.5+286.5+197.5+286.5+198+288C194.3+288+196.654+287.869+191+289C192+289.5+192+289.5+193+290C182.785+291.135+169.651+295+161+295Z" fill="#2f6f74" stroke-linecap="round" opacity="1" stroke-linejoin="round"/>
<path stroke="#235256" stroke-width="1" d="M176+258C164.574+263.713+184.893+277.979+190+279C190+278+190+278+190+277C179.963+277+177.79+266.952+176+258Z" fill="#235256" stroke-linecap="round" opacity="1" stroke-linejoin="round"/>
<path stroke="#373b3d" stroke-width="1" d="M410+315C404.532+320.468+413.403+312.649+400+316C383.754+320.062+408.794+334.383+409+335C387.866+335+387.607+306.043+410+315Z" fill="#373b3d" stroke-linecap="round" opacity="1" stroke-linejoin="round"/>
<path stroke="#3c0b16" stroke-width="1" d="M312+540C275+539.5+275+539.5+238+539C262.349+542.044+288.513+547.829+312+540Z" fill="#3c0b16" stroke-linecap="round" opacity="1" stroke-linejoin="round"/>
<path stroke="#70142a" stroke-width="1" d="M211+103C231.131+96.2896+263.486+98.337+280+98C256.678+99.1106+234.327+103+211+103Z" fill="#70142a" stroke-linecap="round" opacity="1" stroke-linejoin="round"/>
<path stroke="#296065" stroke-width="1" d="M191+157C182.619+157+178.293+143.83+180+137C186+136.5+186+136.5+192+136C190.488+139.023+187.335+138.166+184+139C194.029+141.229+190.085+140.028+196+142C196+143+196+143+196+144C192.255+144+193.894+143.553+191+145C192.298+142.404+192+143.745+192+141C187.5+141+187.5+141+183+141C180.458+151.168+191+151.452+191+157Z" fill="#296065" stroke-linecap="round" opacity="1" stroke-linejoin="round"/>
<path stroke="#a01d3c" stroke-width="1" d="M54+289C54+305.502+61+321.603+61+338C55.6908+322.073+54+305.726+54+289Z" fill="#a01d3c" stroke-linecap="round" opacity="1" stroke-linejoin="round"/>
<path stroke="#611224" stroke-width="1" d="M104+222C102.923+200.459+105.214+200.572+113+185C113+198.562+110.289+209.422+104+222Z" fill="#611224" stroke-linecap="round" opacity="1" stroke-linejoin="round"/>
<path stroke="#687074" stroke-width="1" d="M453+298C453+291.587+460+292.767+460+287C454.972+287+457.986+286.836+451+288C451+282.929+453+285.785+453+280C451+279.5+451+279.5+449+279C449+277.5+449+277.5+449+276C446.129+277.436+447.423+278.577+445+281C447.363+285.726+449.712+292.847+451+298C452+298+452+298+453+298Z" fill="#687074" stroke-linecap="round" opacity="1" stroke-linejoin="round"/>
<path stroke="#9ca25c" stroke-width="1" d="M317+282C317+271.946+317.949+275.846+316+270C314.5+270.5+314.5+270.5+313+271C313.5+274+313.5+274+314+277C313+277.5+313+277.5+312+278C311.5+276+311.5+276+311+274C310+274+310+274+309+274C307.565+268.258+308.51+271.276+306+265C307.5+264.5+307.5+264.5+309+264C310.609+267.218+315.49+266.298+319+267C319+268.5+319+268.5+319+270C320.5+270+320.5+270+322+270C323.354+275.417+320.417+277.834+323+283C319.626+283+321.647+283.162+317+282Z" fill="#f3f250" stroke-linecap="round" opacity="1" stroke-linejoin="round"/>
<path stroke="#32777d" stroke-width="1" d="M188+385C190.596+383.702+190+384.745+190+382C199.507+379.623+192.628+380.919+211+382C211+383+211+383+211+384C212.5+384+212.5+384+214+384C211.524+388.952+205.992+386.016+204+390C207.5+390+207.5+390+211+390C211+391.5+211+391.5+211+393C202.228+393+195.62+387.54+188+385Z" fill="#32777d" stroke-linecap="round" opacity="1" stroke-linejoin="round"/>
<path stroke="#a11d3c" stroke-width="1" d="M214+484C224.236+484+236.695+489.528+247+491C243+491.5+243+491.5+239+492C240.5+492.5+240.5+492.5+242+493C234.795+494.201+231.219+492.031+224+491C224+490+224+490+224+489C219.645+487.548+217.356+487.356+214+484Z" fill="#a11d3c" stroke-linecap="round" opacity="1" stroke-linejoin="round"/>
<path stroke="#2f6c6f" stroke-width="1" d="M316+287C324.083+285.653+325.515+288.029+329+295C328+296+328+296+327+297C329+297.667+331+298.333+333+299C323.039+312.281+317.527+299.216+316+287Z" fill="#2f6c6f" stroke-linecap="round" opacity="1" stroke-linejoin="round"/>
<path stroke="#5b6266" stroke-width="1" d="M485+338C485+328.972+485.384+333.302+484+325C486+324.5+486+324.5+488+324C488+325.5+488+325.5+488+327C489+327+489+327+490+327C490+316.332+485.775+319.906+474+319C478.397+320.466+478.888+321.777+481+326C477.123+328.585+479.14+327.62+475+329C478.027+332.027+481.326+336.775+485+338Z" fill="#5b6266" stroke-linecap="round" opacity="1" stroke-linejoin="round"/>
<path stroke="#235458" stroke-width="1" d="M174+140C175.152+144.607+176.463+150.731+181+153C180.5+154+180.5+154+180+155C183.257+156.628+184+156.015+184+160C185+160+185+160+186+160C185.5+161.5+185.5+161.5+185+163C178.452+156.452+174+148.975+174+140Z" fill="#235458" stroke-linecap="round" opacity="1" stroke-linejoin="round"/>
<path stroke="#1a050a" stroke-width="1" d="M474+150C489.5+150+489.5+150+505+150C505+149+505+149+505+148C506.411+150.821+507.21+152.839+508+156C494.5+156+494.5+156+481+156C481+155+481+155+481+154C479+154+479+154+477+154C478+153.5+478+153.5+479+153C475.925+151.463+477.62+152.413+474+150Z" fill="#1a050a" stroke-linecap="round" opacity="1" stroke-linejoin="round"/>
<path stroke="#555b5e" stroke-width="1" d="M387+316C386.5+314+386.5+314+386+312C385+312+385+312+384+312C391.582+308.209+392.66+306.34+400+299C400+305.21+391.418+311.582+387+316Z" fill="#555b5e" stroke-linecap="round" opacity="1" stroke-linejoin="round"/>
<path stroke="#2c0810" stroke-width="1" d="M505+150C485.815+150+477.921+152.96+464+146C465.333+145.333+466.667+144.667+468+144C476.28+152.28+491.296+147.344+503+147C503.745+146.978+503.667+145.667+504+145C505.211+148.632+505+146.946+505+150Z" fill="#2c0810" stroke-linecap="round" opacity="1" stroke-linejoin="round"/>
<path stroke="#3b3f41" stroke-width="1" d="M476+332C475.5+331+475.5+331+475+330C471.074+331.963+471.81+335.949+471+340C472.5+340+472.5+340+474+340C468.667+341.333+471.333+341.333+466+340C466+331.519+472.172+323+481+323C481+327.438+478.93+327.69+475+329C475.5+330.5+475.5+330.5+476+332Z" fill="#3b3f41" stroke-linecap="round" opacity="1" stroke-linejoin="round"/>
<path stroke="#a01d3c" stroke-width="1" d="M51+309C53.141+317.564+57+331.12+57+340C52.5021+337.751+44.3621+309+51+309Z" fill="#a01d3c" stroke-linecap="round" opacity="1" stroke-linejoin="round"/>
<path stroke="#449ea6" stroke-width="1" d="M163+155C163+153.5+163+153.5+163+152C150.509+152+155.28+153.64+148+150C151.877+147.415+149.86+147.62+154+149C154+146.034+152.479+146.239+150+145C156.025+145+155.399+145.932+160+149C160+146.132+157.522+143.261+155+142C155.5+141+155.5+141+156+140C161.814+142.907+162.208+147.416+165+153C164+154+164+154+163+155Z" fill="#449ea6" stroke-linecap="round" opacity="1" stroke-linejoin="round"/>
<path stroke="#af2041" stroke-width="1" d="M91+171C92+171.5+92+171.5+93+172C91.5+173+91.5+173+90+174C90.5+175+90.5+175+91+176C89.5+176.5+89.5+176.5+88+177C89+177.5+89+177.5+90+178C88.5+179+88.5+179+87+180C87.5+181+87.5+181+88+182C86.6667+183.333+85.3333+184.667+84+186C84.5+187+84.5+187+85+188C82.0571+189.471+83.7072+188.764+80+190C84.6102+187.695+87.8852+175.672+91+171Z" fill="#af2041" stroke-linecap="round" opacity="1" stroke-linejoin="round"/>
<path stroke="#400c18" stroke-width="1" d="M441+420C441+419+441+419+441+418C420+418+420+418+399+418C399+417+399+417+399+416C396+416+396+416+393+416C409.565+414.159+426.338+415.594+443+416C443+419.745+443.894+418.553+441+420Z" fill="#400c18" stroke-linecap="round" opacity="1" stroke-linejoin="round"/>
<path stroke="#378288" stroke-width="1" d="M150+221C152.773+212.68+155.825+215.166+165+216C161+216.5+161+216.5+157+217C163.256+217.521+178.097+211.097+183+216C182+217.5+182+217.5+181+219C173.678+215.339+161.18+223.795+150+221Z" fill="#378288" stroke-linecap="round" opacity="1" stroke-linejoin="round"/>
<path stroke="#2d6a6f" stroke-width="1" d="M202+256C202+261.2+193.039+273+188+273C188+268.678+198.717+259.283+202+256Z" fill="#2d6a6f" stroke-linecap="round" opacity="1" stroke-linejoin="round"/>
<path stroke="#871932" stroke-width="1" d="M52+417C51+417+51+417+50+417C48.5654+412.696+49.2556+415.023+48+410C47+410+47+410+46+410C46+405.643+45.9057+408.66+47+401C35.9443+406.528+48.6458+418.937+51+426C52.1644+419.014+52+422.028+52+417Z" fill="#871932" stroke-linecap="round" opacity="1" stroke-linejoin="round"/>
<path stroke="#235458" stroke-width="1" d="M153+327C153+338.747+153.854+336.708+159+347C149.713+342.356+141.996+335.253+153+327Z" fill="#235458" stroke-linecap="round" opacity="1" stroke-linejoin="round"/>
<path stroke="#a31e3d" stroke-width="1" d="M412+98C414.063+102.126+418.641+106+423+106C423+107+423+107+423+108C424.5+108+424.5+108+426+108C426+110.943+426.471+109.529+424+112C418.683+108.455+416.008+103.003+410+101C411+99.5+411+99.5+412+98Z" fill="#a31e3d" stroke-linecap="round" opacity="1" stroke-linejoin="round"/>
<path stroke="#307177" stroke-width="1" d="M182+142C187+141.5+187+141.5+192+141C192+143.745+192.298+142.404+191+145C194.088+145+196.999+146.25+200+147C200+150.414+200.471+148.529+197+152C198+152+198+152+199+152C187.208+154.948+185.554+152.662+182+142Z" fill="#307177" stroke-linecap="round" opacity="1" stroke-linejoin="round"/>
<path stroke="#7e172f" stroke-width="1" d="M446+77C442.5+77+442.5+77+439+77C439+72.9832+439.236+72+435+72C436+71+436+71+437+70C433.114+66.1144+435.943+68+427+68C427+67+427+67+427+66C435.369+63.9078+443.298+68.8937+446+77Z" fill="#7e172f" stroke-linecap="round" opacity="1" stroke-linejoin="round"/>
<path stroke="#2e6c72" stroke-width="1" d="M174+405C174+406+174+406+174+407C169.248+407+159.792+380.03+174+378C174+379+174+379+174+380C158.887+380+175.234+395.298+172+405C173+405+173+405+174+405Z" fill="#2e6c72" stroke-linecap="round" opacity="1" stroke-linejoin="round"/>
<path stroke="#1f4a4d" stroke-width="1" d="M145+381C141.771+379.385+143.723+380.181+139+379C140.857+375.286+163.197+373.216+166+373C163.102+378.795+148.257+371.228+145+381Z" fill="#1f4a4d" stroke-linecap="round" opacity="1" stroke-linejoin="round"/>
<path stroke="#1b3f42" stroke-width="1" d="M180+238C180+245.344+170.387+255.387+163+248C163.5+247+163.5+247+164+246C176.295+250.098+173.602+244.398+180+238Z" fill="#1b3f42" stroke-linecap="round" opacity="1" stroke-linejoin="round"/>
<path stroke="#204b4e" stroke-width="1" d="M342+265C332.736+261.912+334.58+276.78+334+282C333+282+333+282+332+282C332+269.441+330.978+268.518+340+261C341+263+341+263+342+265Z" fill="#204b4e" stroke-linecap="round" opacity="1" stroke-linejoin="round"/>
<path stroke="#245559" stroke-width="1" d="M173+270C170.73+279.082+166.07+281.31+158+284C161.907+278.14+168.927+276.11+173+270Z" fill="#245559" stroke-linecap="round" opacity="1" stroke-linejoin="round"/>
<path stroke="#9d1d3b" stroke-width="1" d="M92+263C93.2693+296.002+92.5875+280.337+94+310C85.3018+296.953+92+278.681+92+263Z" fill="#9d1d3b" stroke-linecap="round" opacity="1" stroke-linejoin="round"/>
<path stroke="#214e52" stroke-width="1" d="M278+209C270.5+212.75+263.43+214.285+256+218C260.635+212.438+271+206.667+278+209Z" fill="#214e52" stroke-linecap="round" opacity="1" stroke-linejoin="round"/>
<path stroke="#2b666b" stroke-width="1" d="M155+264C159.473+266.236+154.111+286.222+158+294C157+294+157+294+156+294C156+283.454+145.484+273.516+155+264Z" fill="#2b666b" stroke-linecap="round" opacity="1" stroke-linejoin="round"/>
<path stroke="#1c4346" stroke-width="1" d="M260+190C262.414+194.827+263+190.542+263+198C264.5+198+264.5+198+266+198C266+200+266+200+266+202C268+202+268+202+270+202C266.301+216.797+252.604+193.698+260+190Z" fill="#1c4346" stroke-linecap="round" opacity="1" stroke-linejoin="round"/>
<path stroke="#378288" stroke-width="1" d="M223+359C224.5+359.5+224.5+359.5+226+360C222.783+361.608+223.082+364.755+222+368C224.745+368+223.702+368.596+225+366C225+367+225+367+225+368C228.5+368+228.5+368+232+368C226.269+369.146+227.76+367.48+226+371C230+371+230+371+234+371C234+372+234+372+234+373C222.121+373+215.426+370.362+223+359Z" fill="#378288" stroke-linecap="round" opacity="1" stroke-linejoin="round"/>
<path stroke="#1c4145" stroke-width="1" d="M178+278C178+279+178+279+178+280C171.754+280+166.514+286.829+160+289C162.979+284.532+171.931+278+178+278Z" fill="#1c4145" stroke-linecap="round" opacity="1" stroke-linejoin="round"/>
<path stroke="#25585c" stroke-width="1" d="M154+336C158.248+336+163.253+337.873+167+336C167+341.031+164.803+341.366+164+351C162.5+351+162.5+351+161+351C161+339.214+161.195+343.195+154+336Z" fill="#25585c" stroke-linecap="round" opacity="1" stroke-linejoin="round"/>
<path stroke="#1e474a" stroke-width="1" d="M336+253C328.742+253+315.751+251.498+321+241C322.863+244.726+329.083+248.694+333+250C333+251+333+251+333+252C334.5+252.5+334.5+252.5+336+253Z" fill="#1e474a" stroke-linecap="round" opacity="1" stroke-linejoin="round"/>
<path stroke="#112729" stroke-width="1" d="M149+263C149+268.338+143.432+287+152+287C151.5+289+151.5+289+151+291C142.607+286.804+144.285+270.072+149+263Z" fill="#112729" stroke-linecap="round" opacity="1" stroke-linejoin="round"/>
<path stroke="#b0a752" stroke-width="1" d="M236+299C232+298.5+232+298.5+228+298C228.5+296.5+228.5+296.5+229+295C227.5+295+227.5+295+226+295C226+292.26+226.024+291+229+291C229+287+229+287+229+283C230.5+283+230.5+283+232+283C232+286.39+230.851+287.554+232+291C235+291+235+291+238+291C238+294.352+237.506+295.989+236+299Z" fill="#f3f250" stroke-linecap="round" opacity="1" stroke-linejoin="round"/>
<path stroke="#951b38" stroke-width="1" d="M9+310C6.64109+293.488+7.3878+276.675+7+260C14.4595+274.919+8.65258+293.324+9+310Z" fill="#951b38" stroke-linecap="round" opacity="1" stroke-linejoin="round"/>
<path stroke="#38858b" stroke-width="1" d="M159+197C159+198.5+159+198.5+159+200C166.396+201.849+165.192+195.904+171+193C176.526+204.051+158.539+205.078+153+194C155.471+191.529+154.057+192+157+192C157+194.5+157+194.5+157+197C158+197+158+197+159+197Z" fill="#38858b" stroke-linecap="round" opacity="1" stroke-linejoin="round"/>
<path stroke="#599e92" stroke-width="1" d="M309+238C302.38+238+298.993+231.331+292+229C292+228+292+228+292+227C299.271+227+305.213+232.319+309+238Z" fill="#599e92" stroke-linecap="round" opacity="1" stroke-linejoin="round"/>
<path stroke="#35777a" stroke-width="1" d="M291+330C291.5+329+291.5+329+292+328C288.052+326.026+285.701+324.598+288+320C288.5+321.5+288.5+321.5+289+323C290+323+290+323+291+323C291+316.885+296.406+314.406+301+319C300+319.5+300+319.5+299+320C300+320.5+300+320.5+301+321C298.785+324.322+295.639+330+291+330Z" fill="#35777a" stroke-linecap="round" opacity="1" stroke-linejoin="round"/>
<path stroke="#77162c" stroke-width="1" d="M99+478C102+478.5+102+478.5+105+479C105+480+105+480+105+481C107.977+481+111+482.794+111+486C112.5+486+112.5+486+114+486C114+487+114+487+114+488C115.5+488+115.5+488+117+488C109.43+489.892+104.086+483.086+99+478Z" fill="#77162c" stroke-linecap="round" opacity="1" stroke-linejoin="round"/>
<path stroke="#330913" stroke-width="1" d="M441+480C443.108+476.838+448+474.294+448+471C451.238+470.19+453.037+468+456+468C453.983+470.269+446.126+482.563+441+480Z" fill="#330913" stroke-linecap="round" opacity="1" stroke-linejoin="round"/>
<path stroke="#861832" stroke-width="1" d="M99+478C99+476+99+476+99+474C96.468+474+94.0829+471.028+91+470C93.8944+468.553+93+469.745+93+466C91.5+466+91.5+466+90+466C90+465+90+465+90+464C87.1567+465.422+88.5271+464.473+86+467C90.0994+469.05+95.5309+474.531+99+478Z" fill="#861832" stroke-linecap="round" opacity="1" stroke-linejoin="round"/>
<path stroke="#307277" stroke-width="1" d="M254+359C264.749+348.251+240.26+355+239+355C244.662+346.506+257+346.355+257+358C255.5+358.5+255.5+358.5+254+359Z" fill="#307277" stroke-linecap="round" opacity="1" stroke-linejoin="round"/>
<path stroke="#961b38" stroke-width="1" d="M39+406C39.7648+399.117+40.7555+396.222+42+390C41+390+41+390+40+390C40+388.5+40+388.5+40+387C37.018+387+36.1062+386.106+34+384C32.7903+397.306+39+396.336+39+406Z" fill="#961b38" stroke-linecap="round" opacity="1" stroke-linejoin="round"/>
<path stroke="#3d9097" stroke-width="1" d="M217+178C221.551+175.725+220.354+173.589+226+175C221.933+177.034+221.622+187.867+223+192C224+192+224+192+225+192C223.667+192.667+222.333+193.333+221+194C221+189.548+219.935+180.935+217+178Z" fill="#3d9097" stroke-linecap="round" opacity="1" stroke-linejoin="round"/>
<path stroke="#327479" stroke-width="1" d="M275+325C280.236+321.509+276.808+323.149+286+322C287.727+325.454+288.546+326.273+292+328C291.5+329+291.5+329+291+330C292+330.5+292+330.5+293+331C287.19+333.905+280.763+326.441+275+325Z" fill="#327479" stroke-linecap="round" opacity="1" stroke-linejoin="round"/>
<path stroke="#a01d3c" stroke-width="1" d="M391+459C391+460+391+460+391+461C384.772+463.076+380.258+470.419+373+468C375.943+465.057+374.057+466+379+466C380.521+458.395+383.74+459+391+459Z" fill="#a01d3c" stroke-linecap="round" opacity="1" stroke-linejoin="round"/>
<path stroke="#798186" stroke-width="1" d="M477+331C476+331.5+476+331.5+475+332C475+331+475+331+475+330C471.074+331.963+471.81+335.949+471+340C473+340+473+340+475+340C475+341.5+475+341.5+475+343C470+343+470+343+465+343C470.5+343.5+470.5+343.5+476+344C476.5+337.5+476.5+337.5+477+331Z" fill="#798186" stroke-linecap="round" opacity="1" stroke-linejoin="round"/>
<path stroke="#490d1b" stroke-width="1" d="M96+258C96+244.949+96.2351+236.442+99+224C103.671+233.342+98.5123+246.695+96+258Z" fill="#490d1b" stroke-linecap="round" opacity="1" stroke-linejoin="round"/>
<path stroke="#a81f3f" stroke-width="1" d="M119+111C117.467+115.598+110.326+122.092+108+125C105.902+118.705+112.693+111+119+111Z" fill="#a81f3f" stroke-linecap="round" opacity="1" stroke-linejoin="round"/>
<path stroke="#af2041" stroke-width="1" d="M96+95C96+99.511+91.455+106+87+106C87+107+87+107+87+108C85.5+108+85.5+108+84+108C88.1231+103.877+93.3945+100.211+96+95Z" fill="#af2041" stroke-linecap="round" opacity="1" stroke-linejoin="round"/>
<path stroke="#96a1a7" stroke-width="1" d="M473+304C473+303+473+303+473+302C480.033+302+486.971+301+494+301C494+306.745+493.255+304.509+495+308C485.045+305.511+487.732+304.982+473+304Z" fill="#96a1a7" stroke-linecap="round" opacity="1" stroke-linejoin="round"/>
<path stroke="#828b90" stroke-width="1" d="M370+217C376.796+218.699+384+220.822+384+228C377.18+226.863+370+224.303+370+217Z" fill="#828b90" stroke-linecap="round" opacity="1" stroke-linejoin="round"/>
<path stroke="#143133" stroke-width="1" d="M176+403C182.754+396.246+191.49+401.837+200+399C200+400+200+400+200+401C193.5+401+193.5+401+187+401C189+401.667+191+402.333+193+403C188.321+405.339+179.942+406.942+176+403Z" fill="#143133" stroke-linecap="round" opacity="1" stroke-linejoin="round"/>
<path stroke="#9a1c39" stroke-width="1" d="M160+34C167.785+34+176.88+28.7382+185+28C180.712+34.4318+166.53+34+160+34Z" fill="#9a1c39" stroke-linecap="round" opacity="1" stroke-linejoin="round"/>
<path stroke="#360a14" stroke-width="1" d="M464+460C463.5+459+463.5+459+463+458C467.73+455.635+469.481+449.84+475+448C469.737+455.017+473.179+450.821+464+460Z" fill="#360a14" stroke-linecap="round" opacity="1" stroke-linejoin="round"/>
<path stroke="#ae2041" stroke-width="1" d="M415+121C418.759+124.759+423.026+127.539+426+132C424.5+132.5+424.5+132.5+423+133C423.5+132+423.5+132+424+131C422.5+131+422.5+131+421+131C421+129.5+421+129.5+421+128C420+128+420+128+419+128C419+127+419+127+419+126C417.5+126+417.5+126+416+126C416+125+416+125+416+124C415+124+415+124+414+124C414.5+122.5+414.5+122.5+415+121Z" fill="#ae2041" stroke-linecap="round" opacity="1" stroke-linejoin="round"/>
<path stroke="#2a6368" stroke-width="1" d="M147+242C152+241.5+152+241.5+157+241C147.14+245.93+160.064+257.688+146+253C148.119+249.821+148.281+245.843+147+242Z" fill="#2a6368" stroke-linecap="round" opacity="1" stroke-linejoin="round"/>
<path stroke="#ae2041" stroke-width="1" d="M124+72C124.5+73.5+124.5+73.5+125+75C124+74.5+124+74.5+123+74C121.046+76.9303+119.746+79+116+79C116.5+80+116.5+80+117+81C116+80.5+116+80.5+115+80C114.5+81.5+114.5+81.5+114+83C113+82.5+113+82.5+112+82C116.23+77.7699+118.769+73.7438+124+72Z" fill="#ae2041" stroke-linecap="round" opacity="1" stroke-linejoin="round"/>
<path stroke="#163437" stroke-width="1" d="M222+382C215.831+375.831+204.717+379.363+196+379C205.51+376.623+215.49+376.623+225+379C223.5+380.5+223.5+380.5+222+382Z" fill="#163437" stroke-linecap="round" opacity="1" stroke-linejoin="round"/>
<path stroke="#a6b1b8" stroke-width="1" d="M497+293C489.829+297.781+480.893+295.555+472+296C472+295+472+295+472+294C477.143+293.429+494.173+287.347+497+293Z" fill="#a6b1b8" stroke-linecap="round" opacity="1" stroke-linejoin="round"/>
<path stroke="#193a3d" stroke-width="1" d="M158+245C158+251.198+159.013+250.507+164+253C162.48+256.04+163.327+265.057+163+268C161.545+258.545+158+253.094+158+245Z" fill="#193a3d" stroke-linecap="round" opacity="1" stroke-linejoin="round"/>
<path stroke="#2d6b70" stroke-width="1" d="M177+159C184.926+166.926+175+169.534+175+176C173.5+176+173.5+176+172+176C173.981+170.058+174.886+163.228+177+159Z" fill="#2d6b70" stroke-linecap="round" opacity="1" stroke-linejoin="round"/>
<path stroke="#961b38" stroke-width="1" d="M142+44C148.572+40.7141+153.588+38.0589+161+37C157.459+44.0811+149.633+44+142+44Z" fill="#961b38" stroke-linecap="round" opacity="1" stroke-linejoin="round"/>
<path stroke="#b02041" stroke-width="1" d="M122+82C125.707+85.7071+125+83.5858+125+88C124.5+87+124.5+87+124+86C120.826+87.5869+122.637+89.363+120+92C119.5+91+119.5+91+119+90C118+92+118+92+117+94C112.834+88.4451+113.143+91.4292+117+85C117.667+86.3333+118.333+87.6667+119+89C119+84.3333+118.4+86.8+122+82Z" fill="#b02041" stroke-linecap="round" opacity="1" stroke-linejoin="round"/>
<path stroke="#132e31" stroke-width="1" d="M140+228C140.5+226.5+140.5+226.5+141+225C151.5+226.5+151.5+226.5+162+228C162+229.5+162+229.5+162+231C154.695+229.539+147.305+229.461+140+228Z" fill="#132e31" stroke-linecap="round" opacity="1" stroke-linejoin="round"/>
<path stroke="#245559" stroke-width="1" d="M170+189C170+194.962+164.795+201+159+201C160.966+197.067+166.863+193.182+170+189Z" fill="#245559" stroke-linecap="round" opacity="1" stroke-linejoin="round"/>
<path stroke="#919ba1" stroke-width="1" d="M493+316C488.922+307.843+483.474+310.698+473+310C472.5+312+472.5+312+472+314C479.884+314.563+485.741+314.548+493+316Z" fill="#919ba1" stroke-linecap="round" opacity="1" stroke-linejoin="round"/>
<path stroke="#464b4e" stroke-width="1" d="M508+237C510.398+232.204+511.346+228.384+510+223C509+223+509+223+508+223C508+219.3+507.869+221.654+509+216C507.5+215.5+507.5+215.5+506+215C504.851+220.745+503.962+232.962+508+237Z" fill="#464b4e" stroke-linecap="round" opacity="1" stroke-linejoin="round"/>
<path stroke="#8e989e" stroke-width="1" d="M498+282C498+284.745+497.404+283.702+500+285C494.461+287.77+476.489+286.974+476+287C476+286+476+286+476+285C484.234+282.255+488.828+282+498+282Z" fill="#8e989e" stroke-linecap="round" opacity="1" stroke-linejoin="round"/>
<path stroke="#317378" stroke-width="1" d="M195+282C200.165+280.278+205+275.611+205+270C200.959+273.031+195+276.411+195+282Z" fill="#317378" stroke-linecap="round" opacity="1" stroke-linejoin="round"/>
<path stroke="#0c1c1d" stroke-width="1" d="M214+160C215+160+215+160+216+160C216+159+216+159+216+158C214.5+158+214.5+158+213+158C214.5+157+214.5+157+216+156C218+160+225+161.447+225+165C223.5+165.5+223.5+165.5+222+166C222+164.5+222+164.5+222+163C220+163+220+163+218+163C218+162+218+162+218+161C216+160.5+216+160.5+214+160Z" fill="#0c1c1d" stroke-linecap="round" opacity="1" stroke-linejoin="round"/>
<path stroke="#76152c" stroke-width="1" d="M97+326C94.1462+317.438+95.3757+308.017+95+299C102.582+306.582+97.6263+311.595+97+326Z" fill="#76152c" stroke-linecap="round" opacity="1" stroke-linejoin="round"/>
<path stroke="#90999f" stroke-width="1" d="M435+312C432.404+313.298+433+312.255+433+315C427.693+315+428.729+319+422+319C422+313.051+430.536+307.536+435+312Z" fill="#90999f" stroke-linecap="round" opacity="1" stroke-linejoin="round"/>
<path stroke="#b02041" stroke-width="1" d="M69+291C77.3745+291+73.7363+290.434+80+292C78.5528+294.894+79.7454+294+76+294C77.5+294.5+77.5+294.5+79+295C79+296+79+296+79+297C77.5+297+77.5+297+76+297C78+297.5+78+297.5+80+298C78.329+301.342+72.5115+300.498+69+301C71.7071+298.293+70.0572+299+74+299C71.5+298.5+71.5+298.5+69+298C70.4472+295.106+69.2546+296+73+296C71+295.5+71+295.5+69+295C70+294+70+294+71+293C70+292+70+292+69+291Z" fill="#b02041" stroke-linecap="round" opacity="1" stroke-linejoin="round"/>
<path stroke="#420c19" stroke-width="1" d="M429+490C430.447+485.66+435.897+481+441+481C438.704+485.593+434.23+490+429+490Z" fill="#420c19" stroke-linecap="round" opacity="1" stroke-linejoin="round"/>
<path stroke="#1a3e41" stroke-width="1" d="M197+208C197.5+209.5+197.5+209.5+198+211C192.35+213.825+193.221+219.664+195+225C188.005+221.503+194.114+212.329+197+208Z" fill="#1a3e41" stroke-linecap="round" opacity="1" stroke-linejoin="round"/>
<path stroke="#c2ab46" stroke-width="1" d="M243+297C243+299.948+244.412+303.062+245+306C239.5+306+239.5+306+234+306C234+300.104+235.892+294.631+243+297Z" fill="#f3f250" stroke-linecap="round" opacity="1" stroke-linejoin="round"/>
<path stroke="#1c4346" stroke-width="1" d="M222+166C213.327+166+204.666+165.361+196+165C202.334+158.666+213.756+164.649+222+163C222+164.5+222+164.5+222+166Z" fill="#1c4346" stroke-linecap="round" opacity="1" stroke-linejoin="round"/>
<path stroke="#a81f3f" stroke-width="1" d="M48+264C48+272.34+48.6377+280.668+49+289C48.5+279+48.5+279+48+269C46.5+270+46.5+270+45+271C46.1778+268.644+47.1621+266.514+48+264Z" fill="#a81f3f" stroke-linecap="round" opacity="1" stroke-linejoin="round"/>
<path stroke="#1c4144" stroke-width="1" d="M185+229C185+240.528+185+249.499+185+261C183.166+249.996+179.478+240.044+185+229Z" fill="#1c4144" stroke-linecap="round" opacity="1" stroke-linejoin="round"/>
<path stroke="#2b666b" stroke-width="1" d="M244+321C244+322.5+244+322.5+244+324C227.616+324+236.07+325.035+228+321C234.648+316.568+229.812+318.817+244+321Z" fill="#2b666b" stroke-linecap="round" opacity="1" stroke-linejoin="round"/>
<path stroke="#881933" stroke-width="1" d="M25+377C25.9937+368.057+25.9694+361.939+22+354C21.0473+365.433+21.8699+367.61+25+377Z" fill="#881933" stroke-linecap="round" opacity="1" stroke-linejoin="round"/>
<path stroke="#b02042" stroke-width="1" d="M130+76C131+77.5+131+77.5+132+79C133+77+133+77+134+75C135.093+77.1855+136+78.5326+136+81C135.5+80+135.5+80+135+79C134.5+80.5+134.5+80.5+134+82C132.5+82+132.5+82+131+82C131+83.5+131+83.5+131+85C129.553+82.1056+130.745+83+127+83C128.185+77.0755+126.798+79.2018+130+76Z" fill="#b02042" stroke-linecap="round" opacity="1" stroke-linejoin="round"/>
<path stroke="#33787e" stroke-width="1" d="M157+309C158.236+312.707+158.471+311.057+157+314C162.077+314+161+311.916+161+307C155.473+307+150+308.956+150+315C154.436+315+154.664+312.504+157+309Z" fill="#33787e" stroke-linecap="round" opacity="1" stroke-linejoin="round"/>
<path stroke="#941b37" stroke-width="1" d="M11+228C11+220.723+12.3123+216.751+14+210C15.1109+226.663+19.0089+221.993+11+228Z" fill="#941b37" stroke-linecap="round" opacity="1" stroke-linejoin="round"/>
<path stroke="#193a3d" stroke-width="1" d="M195+282C187.974+284.342+181.477+284.94+173+286C177.494+281.506+188.465+282+195+282Z" fill="#193a3d" stroke-linecap="round" opacity="1" stroke-linejoin="round"/>
<path stroke="#393d3f" stroke-width="1" d="M422+302C422+306.472+415.46+310+411+310C414.328+305.84+416.381+302+422+302Z" fill="#393d3f" stroke-linecap="round" opacity="1" stroke-linejoin="round"/>
<path stroke="#831831" stroke-width="1" d="M32+390C32+380.972+32.3836+385.302+31+377C30.5+378+30.5+378+30+379C28.5654+374.696+29.2556+377.023+28+372C27.1384+379.755+26.4851+384.485+32+390Z" fill="#831831" stroke-linecap="round" opacity="1" stroke-linejoin="round"/>
<path stroke="#8f1a35" stroke-width="1" d="M31+163C32.1491+171.044+32.7454+167.764+31+173C30.5+172+30.5+172+30+171C28.3588+175.924+29.1733+172.96+28+180C26.9867+170.88+27.4605+170.079+31+163Z" fill="#8f1a35" stroke-linecap="round" opacity="1" stroke-linejoin="round"/>
<path stroke="#5e1123" stroke-width="1" d="M484+437C482.723+430.616+485.481+429.278+489+424C489+432.383+489.591+431.409+484+437Z" fill="#5e1123" stroke-linecap="round" opacity="1" stroke-linejoin="round"/>
<path stroke="#a81f3f" stroke-width="1" d="M58+210C58+215.151+55.9323+219.169+54+224C53.2674+219.604+50.9578+210+58+210Z" fill="#a81f3f" stroke-linecap="round" opacity="1" stroke-linejoin="round"/>
<path stroke="#1d4548" stroke-width="1" d="M193+167C198.353+169.677+203.396+168.934+209+168C209+169+209+169+209+170C202.5+170+196.917+171.959+191+169C192+168+192+168+193+167Z" fill="#1d4548" stroke-linecap="round" opacity="1" stroke-linejoin="round"/>
<path stroke="#3d0b17" stroke-width="1" d="M251+542C275+541.5+275+541.5+299+541C283.157+543.263+267.003+542+251+542Z" fill="#3d0b17" stroke-linecap="round" opacity="1" stroke-linejoin="round"/>
<path stroke="#272a2b" stroke-width="1" d="M383+291C389.682+291+385.004+290.909+397+292C397+293+397+293+397+294C383.949+295.088+388.808+296.269+382+294C382.5+292.5+382.5+292.5+383+291Z" fill="#272a2b" stroke-linecap="round" opacity="1" stroke-linejoin="round"/>
<path stroke="#8a1933" stroke-width="1" d="M374+420C379.289+414.711+386.18+416.727+393+419C383.5+419.5+383.5+419.5+374+420Z" fill="#8a1933" stroke-linecap="round" opacity="1" stroke-linejoin="round"/>
<path stroke="#1c4245" stroke-width="1" d="M158+197C157.5+195.5+157.5+195.5+157+194C162.413+191.293+159+183.317+159+178C159.657+184.566+161.796+191.305+158+197Z" fill="#1c4245" stroke-linecap="round" opacity="1" stroke-linejoin="round"/>
<path stroke="#202324" stroke-width="1" d="M441+296C441+297+441+297+441+298C435.7+298+431.243+299.126+426+300C428.26+295.48+436.612+296+441+296Z" fill="#202324" stroke-linecap="round" opacity="1" stroke-linejoin="round"/>
<path stroke="#a71e3e" stroke-width="1" d="M58+210C61.1318+203.736+62.0238+200.167+61+193C58.879+199.363+58+202.929+58+210Z" fill="#a71e3e" stroke-linecap="round" opacity="1" stroke-linejoin="round"/>
<path stroke="#70142a" stroke-width="1" d="M400+43C388.205+43+393.095+44.238+385+41C398.409+39.8826+394.162+37.1618+400+43Z" fill="#70142a" stroke-linecap="round" opacity="1" stroke-linejoin="round"/>
<path stroke="#801730" stroke-width="1" d="M302+11C274.5+11.5+274.5+11.5+247+12C265.333+11.6474+283.664+11+302+11Z" fill="#801730" stroke-linecap="round" opacity="1" stroke-linejoin="round"/>
<path stroke="#b49a3b" stroke-width="1" d="M273+227C272.5+228.5+272.5+228.5+272+230C267.392+229.488+262.106+230.369+258+229C258+228+258+228+258+227C265.5+227+265.5+227+273+227Z" fill="#f3f250" stroke-linecap="round" opacity="1" stroke-linejoin="round"/>
<path stroke="#911a36" stroke-width="1" d="M20+190C21.0808+204.051+22.3744+198.877+20+206C18.4352+199.741+18.0389+195.883+20+190Z" fill="#911a36" stroke-linecap="round" opacity="1" stroke-linejoin="round"/>
<path stroke="#b02041" stroke-width="1" d="M99+104C100.76+107.52+102.342+107.974+101+112C95.3326+109.166+95.0681+109.243+99+104Z" fill="#b02041" stroke-linecap="round" opacity="1" stroke-linejoin="round"/>
<path stroke="#71152a" stroke-width="1" d="M207+106C215.376+103.208+208.946+105+227+105C222.085+107.458+210.443+106+207+106Z" fill="#71152a" stroke-linecap="round" opacity="1" stroke-linejoin="round"/>
<path stroke="#74152b" stroke-width="1" d="M6+247C6+272+6+272+6+297C6+280.333+6+263.667+6+247Z" fill="#74152b" stroke-linecap="round" opacity="1" stroke-linejoin="round"/>
</g>
</svg>
