<svg height="512" viewBox="0 0 512 512" width="512" xmlns="http://www.w3.org/2000/svg" xmlns:xlink="http://www.w3.org/1999/xlink"><linearGradient id="a" gradientUnits="userSpaceOnUse" x1="-8.485" x2="526.688" y1="482.53" y2="-52.643" data-name="New Gradient Swatch 1"><stop offset="0" stop-color="#003f8a"/><stop offset=".518" stop-color="#00d7df"/><stop offset="1" stop-color="#006df0"/></linearGradient><linearGradient id="b" x1="96.492" x2="631.666" xlink:href="#a" y1="587.508" y2="52.334"/><g><path d="m440 32a39.808 39.808 0 0 0 -24 8.02v-24.02a8 8 0 0 0 -8-8h-348a28.031 28.031 0 0 0 -28 28v392a28.031 28.031 0 0 0 28 28h60v40a8.009 8.009 0 0 0 12.44 6.66l19.56-13.04 19.56 13.04a8.026 8.026 0 0 0 4.44 1.34 8.015 8.015 0 0 0 8-8v-40h224a8 8 0 0 0 8-8v-38.28l17.02 34.04a8.017 8.017 0 0 0 7.14 4.42h.01a8 8 0 0 0 7.15-4.4l31.82-63.18a7.921 7.921 0 0 0 .86-3.6v-305a40.04 40.04 0 0 0 -40-40zm-344 408h-36a12.01 12.01 0 0 1 -12-12v-392a12.01 12.01 0 0 1 12-12h36zm72 41.05-11.56-7.71a8.026 8.026 0 0 0 -8.88 0l-11.56 7.71v-25.05h32zm232-41.05h-288v-416h288zm40.2-17.66-11.17-22.34h22.43zm19.32-38.34h-38.49l-3.93-7.85 46.43-.13zm4.48-23.98-47.84.13-.15-232.15h47.99zm0-248.02h-48v-16h48zm0-32h-48v-8a24 24 0 0 1 48 0z" fill="url(#a)"/><path d="m440 352a8 8 0 0 0 8-8v-200a8 8 0 0 0 -16 0v200a8 8 0 0 0 8 8z" fill="url(#b)"/></g></svg>